<ttFont>
    <TTGlyph name=".notdef" xMin="256" yMin="0" xMax="1280" yMax="1280">
      <contour>
        <pt x="256" y="0" on="1"/>
        <pt x="256" y="1280" on="1"/>
        <pt x="1280" y="1280" on="1"/>
        <pt x="1280" y="0" on="1"/>
      </contour>
      <contour>
        <pt x="288" y="32" on="1"/>
        <pt x="1248" y="32" on="1"/>
        <pt x="1248" y="1248" on="1"/>
        <pt x="288" y="1248" on="1"/>
      </contour>
    </TTGlyph>
    <TTGlyph name="ampersand" xMin="106" yMin="-47" xMax="1304" yMax="1452">
      <contour>
        <pt x="1009" y="684" on="1"/>
        <pt x="1173" y="684" on="1"/>
        <pt x="1173" y="492" on="0"/>
        <pt x="1054" y="309" on="1"/>
        <pt x="1304" y="0" on="1"/>
        <pt x="1081" y="0" on="1"/>
        <pt x="954" y="160" on="1"/>
        <pt x="854" y="61" on="0"/>
        <pt x="796" y="27" on="1"/>
        <pt x="681" y="-47" on="0"/>
        <pt x="526" y="-47" on="1"/>
        <pt x="288" y="-47" on="0"/>
        <pt x="174" y="121" on="1"/>
        <pt x="106" y="221" on="0"/>
        <pt x="106" y="360" on="1"/>
        <pt x="106" y="526" on="0"/>
        <pt x="212" y="635" on="1"/>
        <pt x="286" y="709" on="0"/>
        <pt x="438" y="797" on="1"/>
        <pt x="294" y="977" on="0"/>
        <pt x="276" y="1075" on="1"/>
        <pt x="272" y="1102" on="0"/>
        <pt x="272" y="1130" on="1"/>
        <pt x="272" y="1288" on="0"/>
        <pt x="405" y="1384" on="1"/>
        <pt x="499" y="1452" on="0"/>
        <pt x="622" y="1452" on="1"/>
        <pt x="806" y="1452" on="0"/>
        <pt x="901" y="1317" on="1"/>
        <pt x="931" y="1260" on="1"/>
        <pt x="950" y="1217" on="0"/>
        <pt x="954" y="1167" on="1"/>
        <pt x="956" y="1149" on="0"/>
        <pt x="956" y="1130" on="1"/>
        <pt x="956" y="989" on="0"/>
        <pt x="843" y="889" on="1"/>
        <pt x="784" y="836" on="0"/>
        <pt x="673" y="774" on="1"/>
        <pt x="946" y="440" on="1"/>
        <pt x="1009" y="552" on="0"/>
        <pt x="1009" y="676" on="1"/>
      </contour>
      <contour>
        <pt x="583" y="883" on="1"/>
        <pt x="749" y="987" on="0"/>
        <pt x="780" y="1063" on="1"/>
        <pt x="794" y="1094" on="0"/>
        <pt x="794" y="1135" on="1"/>
        <pt x="794" y="1241" on="0"/>
        <pt x="702" y="1288" on="1"/>
        <pt x="663" y="1309" on="0"/>
        <pt x="616" y="1309" on="1"/>
        <pt x="493" y="1309" on="0"/>
        <pt x="452" y="1206" on="1"/>
        <pt x="440" y="1174" on="0"/>
        <pt x="440" y="1133" on="1"/>
        <pt x="440" y="1065" on="0"/>
        <pt x="491" y="993" on="1"/>
      </contour>
      <contour>
        <pt x="856" y="281" on="1"/>
        <pt x="528" y="690" on="1"/>
        <pt x="335" y="567" on="0"/>
        <pt x="294" y="465" on="1"/>
        <pt x="278" y="424" on="0"/>
        <pt x="278" y="375" on="1"/>
        <pt x="278" y="242" on="0"/>
        <pt x="389" y="164" on="1"/>
        <pt x="460" y="113" on="0"/>
        <pt x="546" y="113" on="1"/>
        <pt x="684" y="113" on="0"/>
        <pt x="823" y="246" on="1"/>
        <pt x="839" y="262" on="0"/>
      </contour>
    </TTGlyph>
    <TTGlyph name="asterisk" xMin="450" yMin="903" xMax="1071" yMax="1493">
      <contour>
        <pt x="696" y="1493" on="1"/>
        <pt x="825" y="1493" on="1"/>
        <pt x="815" y="1264" on="1"/>
        <pt x="1032" y="1341" on="1"/>
        <pt x="1071" y="1221" on="1"/>
        <pt x="849" y="1159" on="1"/>
        <pt x="993" y="977" on="1"/>
        <pt x="888" y="903" on="1"/>
        <pt x="761" y="1094" on="1"/>
        <pt x="632" y="903" on="1"/>
        <pt x="530" y="977" on="1"/>
        <pt x="671" y="1159" on="1"/>
        <pt x="450" y="1221" on="1"/>
        <pt x="489" y="1341" on="1"/>
        <pt x="706" y="1264" on="1"/>
      </contour>
    </TTGlyph>
    <TTGlyph name="at" xMin="69" yMin="-290" xMax="1947" yMax="1518">
      <contour>
        <pt x="1361" y="1026" on="1"/>
        <pt x="1531" y="1026" on="1"/>
        <pt x="1347" y="453" on="1"/>
        <pt x="1322" y="381" on="0"/>
        <pt x="1322" y="350" on="1"/>
        <pt x="1322" y="295" on="0"/>
        <pt x="1382" y="268" on="1"/>
        <pt x="1402" y="260" on="0"/>
        <pt x="1425" y="260" on="1"/>
        <pt x="1556" y="260" on="0"/>
        <pt x="1664" y="408" on="1"/>
        <pt x="1769" y="553" on="0"/>
        <pt x="1769" y="731" on="1"/>
        <pt x="1769" y="977" on="0"/>
        <pt x="1570" y="1159" on="1"/>
        <pt x="1367" y="1348" on="0"/>
        <pt x="1079" y="1360" on="1"/>
        <pt x="1048" y="1360" on="1"/>
        <pt x="747" y="1360" on="0"/>
        <pt x="515" y="1151" on="1"/>
        <pt x="446" y="1081" on="1"/>
        <pt x="243" y="850" on="0"/>
        <pt x="243" y="559" on="1"/>
        <pt x="243" y="270" on="0"/>
        <pt x="458" y="72" on="1"/>
        <pt x="679" y="-133" on="0"/>
        <pt x="1011" y="-133" on="1"/>
        <pt x="1173" y="-133" on="0"/>
        <pt x="1406" y="-67" on="1"/>
        <pt x="1464" y="-204" on="1"/>
        <pt x="1234" y="-290" on="0"/>
        <pt x="1001" y="-290" on="1"/>
        <pt x="632" y="-290" on="0"/>
        <pt x="364" y="-71" on="1"/>
        <pt x="114" y="133" on="0"/>
        <pt x="75" y="434" on="1"/>
        <pt x="69" y="481" on="0"/>
        <pt x="69" y="528" on="1"/>
        <pt x="69" y="844" on="0"/>
        <pt x="264" y="1110" on="1"/>
        <pt x="321" y="1190" on="0"/>
        <pt x="393" y="1253" on="1"/>
        <pt x="614" y="1454" on="0"/>
        <pt x="923" y="1505" on="1"/>
        <pt x="999" y="1518" on="0"/>
        <pt x="1075" y="1518" on="1"/>
        <pt x="1415" y="1518" on="0"/>
        <pt x="1666" y="1311" on="1"/>
        <pt x="1904" y="1118" on="0"/>
        <pt x="1941" y="842" on="1"/>
        <pt x="1947" y="799" on="0"/>
        <pt x="1947" y="756" on="1"/>
        <pt x="1947" y="508" on="0"/>
        <pt x="1771" y="299" on="1"/>
        <pt x="1615" y="117" on="0"/>
        <pt x="1390" y="117" on="1"/>
        <pt x="1193" y="117" on="0"/>
        <pt x="1165" y="274" on="1"/>
        <pt x="1030" y="127" on="0"/>
        <pt x="874" y="127" on="1"/>
        <pt x="706" y="127" on="0"/>
        <pt x="610" y="268" on="1"/>
        <pt x="540" y="369" on="0"/>
        <pt x="540" y="502" on="1"/>
        <pt x="540" y="725" on="0"/>
        <pt x="702" y="897" on="1"/>
        <pt x="860" y="1067" on="0"/>
        <pt x="1066" y="1069" on="1"/>
        <pt x="1238" y="1069" on="0"/>
        <pt x="1316" y="891" on="1"/>
      </contour>
      <contour>
        <pt x="1054" y="938" on="1"/>
        <pt x="919" y="938" on="0"/>
        <pt x="817" y="793" on="1"/>
        <pt x="724" y="664" on="0"/>
        <pt x="724" y="500" on="1"/>
        <pt x="724" y="362" on="0"/>
        <pt x="821" y="293" on="1"/>
        <pt x="870" y="258" on="0"/>
        <pt x="927" y="258" on="1"/>
        <pt x="1046" y="258" on="0"/>
        <pt x="1136" y="391" on="1"/>
        <pt x="1204" y="489" on="0"/>
        <pt x="1236" y="662" on="1"/>
        <pt x="1245" y="707" on="0"/>
        <pt x="1247" y="741" on="1"/>
        <pt x="1247" y="755" on="1"/>
        <pt x="1247" y="856" on="0"/>
        <pt x="1163" y="909" on="1"/>
        <pt x="1113" y="938" on="0"/>
      </contour>
    </TTGlyph>
    <TTGlyph name="colon" xMin="225" yMin="0" xMax="438" yMax="1073">
      <contour>
        <pt x="438" y="213" on="1"/>
        <pt x="438" y="0" on="1"/>
        <pt x="225" y="0" on="1"/>
        <pt x="225" y="213" on="1"/>
      </contour>
      <contour>
        <pt x="438" y="1073" on="1"/>
        <pt x="438" y="860" on="1"/>
        <pt x="225" y="860" on="1"/>
        <pt x="225" y="1073" on="1"/>
      </contour>
    </TTGlyph>
    <TTGlyph name="comma" xMin="178" yMin="-301" xMax="393" yMax="213">
      <contour>
        <pt x="178" y="213" on="1"/>
        <pt x="393" y="213" on="1"/>
        <pt x="393" y="-32" on="1"/>
        <pt x="393" y="-301" on="0"/>
        <pt x="178" y="-301" on="1"/>
        <pt x="178" y="-223" on="1"/>
        <pt x="266" y="-219" on="0"/>
        <pt x="287" y="-155" on="1"/>
        <pt x="301" y="-116" on="0"/>
        <pt x="301" y="-36" on="1"/>
        <pt x="301" y="0" on="1"/>
        <pt x="178" y="0" on="1"/>
      </contour>
    </TTGlyph>
    <TTGlyph name="dollar" xMin="70" yMin="-258" xMax="1064" yMax="1577">
      <contour>
        <pt x="501" y="1577" on="1"/>
        <pt x="622" y="1577" on="1"/>
        <pt x="622" y="1466" on="1"/>
        <pt x="880" y="1448" on="0"/>
        <pt x="976" y="1257" on="1"/>
        <pt x="1015" y="1180" on="0"/>
        <pt x="1019" y="1083" on="1"/>
        <pt x="1019" y="1063" on="1"/>
        <pt x="858" y="1063" on="1"/>
        <pt x="856" y="1221" on="0"/>
        <pt x="739" y="1290" on="1"/>
        <pt x="698" y="1313" on="0"/>
        <pt x="649" y="1321" on="1"/>
        <pt x="636" y="1323" on="0"/>
        <pt x="622" y="1323" on="1"/>
        <pt x="622" y="813" on="1"/>
        <pt x="827" y="750" on="0"/>
        <pt x="890" y="715" on="1"/>
        <pt x="1064" y="616" on="0"/>
        <pt x="1064" y="399" on="1"/>
        <pt x="1064" y="186" on="0"/>
        <pt x="925" y="61" on="1"/>
        <pt x="903" y="41" on="0"/>
        <pt x="876" y="25" on="1"/>
        <pt x="776" y="-34" on="0"/>
        <pt x="622" y="-47" on="1"/>
        <pt x="622" y="-258" on="1"/>
        <pt x="501" y="-258" on="1"/>
        <pt x="501" y="-47" on="1"/>
        <pt x="186" y="-26" on="0"/>
        <pt x="98" y="213" on="1"/>
        <pt x="70" y="293" on="0"/>
        <pt x="70" y="390" on="1"/>
        <pt x="70" y="408" on="0"/>
        <pt x="71" y="426" on="1"/>
        <pt x="233" y="426" on="1"/>
        <pt x="247" y="274" on="0"/>
        <pt x="276" y="225" on="1"/>
        <pt x="280" y="219" on="0"/>
        <pt x="284" y="211" on="1"/>
        <pt x="356" y="113" on="0"/>
        <pt x="501" y="94" on="1"/>
        <pt x="501" y="651" on="1"/>
        <pt x="311" y="709" on="0"/>
        <pt x="243" y="758" on="1"/>
        <pt x="98" y="862" on="0"/>
        <pt x="98" y="1057" on="1"/>
        <pt x="98" y="1356" on="0"/>
        <pt x="384" y="1442" on="1"/>
        <pt x="438" y="1458" on="0"/>
        <pt x="501" y="1466" on="1"/>
      </contour>
      <contour>
        <pt x="501" y="829" on="1"/>
        <pt x="501" y="1321" on="1"/>
        <pt x="305" y="1294" on="0"/>
        <pt x="270" y="1139" on="1"/>
        <pt x="264" y="1110" on="0"/>
        <pt x="264" y="1077" on="1"/>
        <pt x="264" y="893" on="0"/>
      </contour>
      <contour>
        <pt x="622" y="633" on="1"/>
        <pt x="622" y="94" on="1"/>
        <pt x="747" y="109" on="0"/>
        <pt x="810" y="170" on="1"/>
        <pt x="896" y="252" on="0"/>
        <pt x="896" y="375" on="1"/>
        <pt x="896" y="500" on="0"/>
        <pt x="800" y="561" on="1"/>
        <pt x="741" y="598" on="0"/>
      </contour>
    </TTGlyph>
    <TTGlyph name="eight" xMin="74" yMin="0" xMax="1004" yMax="1500">
      <contour>
        <pt x="539" y="1350" on="1"/>
        <pt x="254" y="1350" on="0"/>
        <pt x="254" y="1100" on="1"/>
        <pt x="254" y="850" on="0"/>
        <pt x="539" y="850" on="1"/>
        <pt x="824" y="850" on="0"/>
        <pt x="824" y="1100" on="1"/>
        <pt x="824" y="1350" on="0"/>
      </contour>
      <contour>
        <pt x="539" y="700" on="1"/>
        <pt x="224" y="700" on="0"/>
        <pt x="224" y="425" on="1"/>
        <pt x="224" y="150" on="0"/>
        <pt x="539" y="150" on="1"/>
        <pt x="854" y="150" on="0"/>
        <pt x="854" y="425" on="1"/>
        <pt x="854" y="700" on="0"/>
      </contour>
      <contour>
        <pt x="237" y="780" on="1"/>
        <pt x="104" y="878" on="0"/>
        <pt x="104" y="1100" on="1"/>
        <pt x="104" y="1500" on="0"/>
        <pt x="539" y="1500" on="1"/>
        <pt x="974" y="1500" on="0"/>
        <pt x="974" y="1100" on="1"/>
        <pt x="974" y="878" on="0"/>
        <pt x="841" y="780" on="1"/>
        <pt x="1004" y="677" on="0"/>
        <pt x="1004" y="425" on="1"/>
        <pt x="1004" y="0" on="0"/>
        <pt x="539" y="0" on="1"/>
        <pt x="74" y="0" on="0"/>
        <pt x="74" y="425" on="1"/>
        <pt x="74" y="677" on="0"/>
      </contour>
    </TTGlyph>
    <TTGlyph name="equal" xMin="102" yMin="227" xMax="1093" yMax="723">
      <contour>
        <pt x="1093" y="723" on="1"/>
        <pt x="1093" y="580" on="1"/>
        <pt x="102" y="580" on="1"/>
        <pt x="102" y="723" on="1"/>
      </contour>
      <contour>
        <pt x="1093" y="371" on="1"/>
        <pt x="1093" y="227" on="1"/>
        <pt x="102" y="227" on="1"/>
        <pt x="102" y="371" on="1"/>
      </contour>
    </TTGlyph>
    <TTGlyph name="exclam" xMin="450" yMin="0" xMax="622" yMax="1493">
      <contour>
        <pt x="612" y="1493" on="1"/>
        <pt x="612" y="801" on="1"/>
        <pt x="572" y="344" on="1"/>
        <pt x="502" y="344" on="1"/>
        <pt x="462" y="801" on="1"/>
        <pt x="462" y="1493" on="1"/>
      </contour>
      <contour>
        <pt x="622" y="213" on="1"/>
        <pt x="622" y="0" on="1"/>
        <pt x="450" y="0" on="1"/>
        <pt x="450" y="213" on="1"/>
      </contour>
    </TTGlyph>
    <TTGlyph name="five" xMin="124" yMin="0" xMax="1039" yMax="1500">
      <contour>
        <pt x="1039" y="500" on="1"/>
        <pt x="1039" y="0" on="0"/>
        <pt x="602" y="0" on="1"/>
        <pt x="174" y="0" on="0"/>
        <pt x="124" y="397" on="1"/>
        <pt x="274" y="397" on="1"/>
        <pt x="324" y="150" on="0"/>
        <pt x="602" y="150" on="1"/>
        <pt x="889" y="150" on="0"/>
        <pt x="889" y="500" on="1"/>
        <pt x="889" y="850" on="0"/>
        <pt x="612" y="850" on="1"/>
        <pt x="410" y="850" on="0"/>
        <pt x="324" y="722" on="1"/>
        <pt x="179" y="722" on="1"/>
        <pt x="249" y="1500" on="1"/>
        <pt x="969" y="1500" on="1"/>
        <pt x="969" y="1350" on="1"/>
        <pt x="384" y="1350" on="1"/>
        <pt x="347" y="949" on="1"/>
        <pt x="454" y="1000" on="0"/>
        <pt x="612" y="1000" on="1"/>
        <pt x="1039" y="1000" on="0"/>
      </contour>
    </TTGlyph>
    <TTGlyph name="four" xMin="40" yMin="0" xMax="1040" yMax="1500">
      <contour>
        <pt x="698" y="1231" on="1"/>
        <pt x="221" y="519" on="1"/>
        <pt x="698" y="519" on="1"/>
      </contour>
      <contour>
        <pt x="698" y="1500" on="1"/>
        <pt x="848" y="1500" on="1"/>
        <pt x="848" y="519" on="1"/>
        <pt x="1040" y="519" on="1"/>
        <pt x="1040" y="369" on="1"/>
        <pt x="848" y="369" on="1"/>
        <pt x="848" y="0" on="1"/>
        <pt x="698" y="0" on="1"/>
        <pt x="698" y="369" on="1"/>
        <pt x="40" y="369" on="1"/>
        <pt x="40" y="519" on="1"/>
      </contour>
    </TTGlyph>
    <TTGlyph name="glyph139" xMin="-825" yMin="-650" xMax="550" yMax="1500">
      <contour>
        <pt x="400" y="-450" on="1"/>
        <pt x="400" y="-550" on="0"/>
        <pt x="319" y="-600" on="1"/>
        <pt x="237" y="-650" on="0"/>
        <pt x="75" y="-650" on="1"/>
        <pt x="-45" y="-650" on="0"/>
        <pt x="-115" y="-636" on="1"/>
        <pt x="-184" y="-622" on="0"/>
        <pt x="-202" y="-595" on="1"/>
        <pt x="-219" y="-622" on="0"/>
        <pt x="-273" y="-636" on="1"/>
        <pt x="-327" y="-650" on="0"/>
        <pt x="-425" y="-650" on="1"/>
        <pt x="-575" y="-650" on="0"/>
        <pt x="-650" y="-600" on="1"/>
        <pt x="-725" y="-550" on="0"/>
        <pt x="-725" y="-450" on="1"/>
        <pt x="-725" y="-360" on="1"/>
        <pt x="-750" y="-360" on="1"/>
        <pt x="-793" y="-360" on="0"/>
        <pt x="-825" y="-300" on="0"/>
        <pt x="-825" y="-250" on="1"/>
        <pt x="-825" y="-200" on="0"/>
        <pt x="-725" y="-100" on="1"/>
        <pt x="-575" y="-100" on="1"/>
        <pt x="-575" y="-451" on="1"/>
        <pt x="-575" y="-500" on="0"/>
        <pt x="-425" y="-500" on="1"/>
        <pt x="-275" y="-500" on="0"/>
        <pt x="-275" y="-450" on="1"/>
        <pt x="-275" y="-250" on="1"/>
        <pt x="-275" y="-200" on="0"/>
        <pt x="-355" y="-200" on="1"/>
        <pt x="-355" y="-100" on="1"/>
        <pt x="-255" y="-100" on="1"/>
        <pt x="-125" y="-100" on="0"/>
        <pt x="-125" y="-250" on="1"/>
        <pt x="-125" y="-450" on="1"/>
        <pt x="-125" y="-500" on="0"/>
        <pt x="75" y="-500" on="1"/>
        <pt x="250" y="-500" on="0"/>
        <pt x="250" y="-450" on="1"/>
        <pt x="250" y="976" on="1"/>
        <pt x="250" y="1082" on="0"/>
        <pt x="50" y="1102" on="1"/>
        <pt x="202" y="1306" on="0"/>
        <pt x="256" y="1500" on="1"/>
        <pt x="363" y="1428" on="1"/>
        <pt x="434" y="1380" on="0"/>
        <pt x="493" y="1380" on="1"/>
        <pt x="523" y="1380" on="0"/>
        <pt x="550" y="1393" on="1"/>
        <pt x="550" y="1260" on="0"/>
        <pt x="488" y="1241" on="1"/>
        <pt x="473" y="1236" on="0"/>
        <pt x="455" y="1236" on="1"/>
        <pt x="400" y="1236" on="0"/>
        <pt x="321" y="1284" on="1"/>
        <pt x="266" y="1171" on="1"/>
        <pt x="400" y="1112" on="0"/>
        <pt x="400" y="976" on="1"/>
      </contour>
    </TTGlyph>
    <TTGlyph name="glyph144" xMin="-1175" yMin="-650" xMax="550" yMax="1500">
      <contour>
        <pt x="400" y="-450" on="1"/>
        <pt x="400" y="-550" on="0"/>
        <pt x="314" y="-600" on="1"/>
        <pt x="227" y="-650" on="0"/>
        <pt x="55" y="-650" on="1"/>
        <pt x="-35" y="-650" on="0"/>
        <pt x="-98" y="-635" on="1"/>
        <pt x="-161" y="-620" on="0"/>
        <pt x="-199" y="-590" on="1"/>
        <pt x="-236" y="-620" on="0"/>
        <pt x="-293" y="-635" on="1"/>
        <pt x="-349" y="-650" on="0"/>
        <pt x="-425" y="-650" on="1"/>
        <pt x="-575" y="-650" on="0"/>
        <pt x="-650" y="-600" on="1"/>
        <pt x="-725" y="-550" on="0"/>
        <pt x="-725" y="-450" on="1"/>
        <pt x="-725" y="-380" on="1"/>
        <pt x="-725" y="-250" on="0"/>
        <pt x="-875" y="-250" on="1"/>
        <pt x="-1025" y="-250" on="0"/>
        <pt x="-1025" y="-380" on="1"/>
        <pt x="-1025" y="-400" on="1"/>
        <pt x="-1000" y="-400" on="1"/>
        <pt x="-925" y="-400" on="0"/>
        <pt x="-925" y="-450" on="1"/>
        <pt x="-925" y="-498" on="0"/>
        <pt x="-975" y="-575" on="1"/>
        <pt x="-1025" y="-650" on="1"/>
        <pt x="-1175" y="-650" on="1"/>
        <pt x="-1175" y="-379" on="1"/>
        <pt x="-1175" y="-230" on="0"/>
        <pt x="-1025" y="-100" on="0"/>
        <pt x="-875" y="-100" on="1"/>
        <pt x="-725" y="-100" on="0"/>
        <pt x="-575" y="-230" on="0"/>
        <pt x="-575" y="-380" on="1"/>
        <pt x="-575" y="-451" on="1"/>
        <pt x="-575" y="-500" on="0"/>
        <pt x="-425" y="-500" on="1"/>
        <pt x="-275" y="-500" on="0"/>
        <pt x="-275" y="-449" on="1"/>
        <pt x="-275" y="-250" on="1"/>
        <pt x="-275" y="-200" on="0"/>
        <pt x="-355" y="-200" on="1"/>
        <pt x="-355" y="-100" on="1"/>
        <pt x="-255" y="-100" on="1"/>
        <pt x="-125" y="-100" on="0"/>
        <pt x="-125" y="-250" on="1"/>
        <pt x="-125" y="-457" on="1"/>
        <pt x="-125" y="-500" on="0"/>
        <pt x="63" y="-500" on="1"/>
        <pt x="250" y="-500" on="0"/>
        <pt x="250" y="-450" on="1"/>
        <pt x="250" y="976" on="1"/>
        <pt x="250" y="1082" on="0"/>
        <pt x="50" y="1102" on="1"/>
        <pt x="202" y="1306" on="0"/>
        <pt x="256" y="1500" on="1"/>
        <pt x="363" y="1428" on="1"/>
        <pt x="434" y="1380" on="0"/>
        <pt x="493" y="1380" on="1"/>
        <pt x="523" y="1380" on="0"/>
        <pt x="550" y="1393" on="1"/>
        <pt x="550" y="1260" on="0"/>
        <pt x="488" y="1241" on="1"/>
        <pt x="473" y="1236" on="0"/>
        <pt x="455" y="1236" on="1"/>
        <pt x="400" y="1236" on="0"/>
        <pt x="321" y="1284" on="1"/>
        <pt x="266" y="1171" on="1"/>
        <pt x="400" y="1112" on="0"/>
        <pt x="400" y="976" on="1"/>
      </contour>
    </TTGlyph>
    <TTGlyph name="glyph146" xMin="-1750" yMin="-650" xMax="-300" yMax="-50">
      <contour>
        <pt x="-300" y="-375" on="1"/>
        <pt x="-450" y="-375" on="1"/>
        <pt x="-450" y="-272" on="1"/>
        <pt x="-678" y="-181" on="0"/>
        <pt x="-722" y="-181" on="1"/>
        <pt x="-767" y="-181" on="0"/>
        <pt x="-950" y="-260" on="1"/>
        <pt x="-950" y="-375" on="1"/>
        <pt x="-1100" y="-375" on="1"/>
        <pt x="-1100" y="-240" on="1"/>
        <pt x="-1168" y="-176" on="0"/>
        <pt x="-1201" y="-176" on="1"/>
        <pt x="-1234" y="-176" on="0"/>
        <pt x="-1340" y="-272" on="1"/>
        <pt x="-1476" y="-176" on="0"/>
        <pt x="-1501" y="-176" on="1"/>
        <pt x="-1533" y="-176" on="0"/>
        <pt x="-1570" y="-204" on="1"/>
        <pt x="-1570" y="-223" on="1"/>
        <pt x="-1500" y="-223" on="0"/>
        <pt x="-1500" y="-266" on="1"/>
        <pt x="-1500" y="-307" on="0"/>
        <pt x="-1570" y="-375" on="0"/>
        <pt x="-1645" y="-375" on="1"/>
        <pt x="-1750" y="-375" on="0"/>
        <pt x="-1750" y="-254" on="1"/>
        <pt x="-1750" y="-186" on="0"/>
        <pt x="-1550" y="-50" on="0"/>
        <pt x="-1504" y="-50" on="1"/>
        <pt x="-1465" y="-50" on="0"/>
        <pt x="-1340" y="-135" on="1"/>
        <pt x="-1235" y="-50" on="0"/>
        <pt x="-1197" y="-50" on="1"/>
        <pt x="-1160" y="-50" on="0"/>
        <pt x="-1008" y="-154" on="1"/>
        <pt x="-730" y="-50" on="0"/>
        <pt x="-680" y="-50" on="1"/>
        <pt x="-630" y="-50" on="0"/>
        <pt x="-465" y="-118" on="1"/>
        <pt x="-382" y="-152" on="1"/>
        <pt x="-300" y="-187" on="0"/>
        <pt x="-300" y="-281" on="1"/>
      </contour>
      <contour>
        <pt x="-300" y="-521" on="1"/>
        <pt x="-300" y="-585" on="0"/>
        <pt x="-387" y="-617" on="1"/>
        <pt x="-475" y="-650" on="0"/>
        <pt x="-650" y="-650" on="1"/>
        <pt x="-900" y="-650" on="0"/>
        <pt x="-1095" y="-585" on="1"/>
        <pt x="-1290" y="-521" on="0"/>
        <pt x="-1450" y="-521" on="1"/>
        <pt x="-1625" y="-521" on="0"/>
        <pt x="-1750" y="-598" on="1"/>
        <pt x="-1750" y="-555" on="1"/>
        <pt x="-1750" y="-512" on="0"/>
        <pt x="-1625" y="-435" on="0"/>
        <pt x="-1450" y="-435" on="1"/>
        <pt x="-1250" y="-435" on="0"/>
        <pt x="-1050" y="-500" on="1"/>
        <pt x="-850" y="-564" on="0"/>
        <pt x="-650" y="-564" on="1"/>
        <pt x="-450" y="-564" on="0"/>
        <pt x="-450" y="-521" on="1"/>
        <pt x="-450" y="-478" on="0"/>
        <pt x="-550" y="-478" on="1"/>
        <pt x="-550" y="-392" on="0"/>
        <pt x="-450" y="-392" on="1"/>
        <pt x="-375" y="-392" on="0"/>
        <pt x="-337" y="-425" on="1"/>
        <pt x="-300" y="-457" on="0"/>
      </contour>
    </TTGlyph>
    <TTGlyph name="glyph150" xMin="-1045" yMin="-650" xMax="550" yMax="1500">
      <contour>
        <pt x="-848" y="-464" on="1"/>
        <pt x="-848" y="-450" on="0"/>
        <pt x="-875" y="-450" on="1"/>
        <pt x="-895" y="-450" on="1"/>
        <pt x="-895" y="-510" on="1"/>
        <pt x="-870" y="-502" on="0"/>
        <pt x="-848" y="-480" on="0"/>
      </contour>
      <contour>
        <pt x="400" y="-400" on="1"/>
        <pt x="400" y="-650" on="0"/>
        <pt x="150" y="-650" on="1"/>
        <pt x="44" y="-650" on="0"/>
        <pt x="-97" y="-537" on="1"/>
        <pt x="-145" y="-500" on="0"/>
        <pt x="-245" y="-500" on="1"/>
        <pt x="-245" y="-650" on="1"/>
        <pt x="-395" y="-650" on="1"/>
        <pt x="-495" y="-520" on="0"/>
        <pt x="-495" y="-460" on="1"/>
        <pt x="-495" y="-360" on="0"/>
        <pt x="-395" y="-360" on="1"/>
        <pt x="-395" y="-312" on="1"/>
        <pt x="-450" y="-269" on="1"/>
        <pt x="-645" y="-378" on="1"/>
        <pt x="-837" y="-269" on="1"/>
        <pt x="-895" y="-313" on="1"/>
        <pt x="-895" y="-350" on="1"/>
        <pt x="-845" y="-350" on="1"/>
        <pt x="-796" y="-350" on="0"/>
        <pt x="-770" y="-400" on="1"/>
        <pt x="-757" y="-425" on="0"/>
        <pt x="-757" y="-457" on="1"/>
        <pt x="-757" y="-485" on="0"/>
        <pt x="-795" y="-550" on="0"/>
        <pt x="-895" y="-650" on="1"/>
        <pt x="-1045" y="-650" on="1"/>
        <pt x="-1045" y="-250" on="1"/>
        <pt x="-845" y="-100" on="1"/>
        <pt x="-645" y="-213" on="1"/>
        <pt x="-445" y="-100" on="1"/>
        <pt x="-245" y="-250" on="1"/>
        <pt x="-245" y="-350" on="1"/>
        <pt x="-134" y="-350" on="0"/>
        <pt x="-41" y="-425" on="1"/>
        <pt x="51" y="-500" on="0"/>
        <pt x="150" y="-500" on="1"/>
        <pt x="250" y="-500" on="0"/>
        <pt x="250" y="-400" on="1"/>
        <pt x="250" y="976" on="1"/>
        <pt x="250" y="1082" on="0"/>
        <pt x="50" y="1102" on="1"/>
        <pt x="202" y="1306" on="0"/>
        <pt x="256" y="1500" on="1"/>
        <pt x="363" y="1428" on="1"/>
        <pt x="434" y="1380" on="0"/>
        <pt x="493" y="1380" on="1"/>
        <pt x="523" y="1380" on="0"/>
        <pt x="550" y="1393" on="1"/>
        <pt x="550" y="1260" on="0"/>
        <pt x="488" y="1241" on="1"/>
        <pt x="473" y="1236" on="0"/>
        <pt x="455" y="1236" on="1"/>
        <pt x="400" y="1236" on="0"/>
        <pt x="321" y="1284" on="1"/>
        <pt x="266" y="1171" on="1"/>
        <pt x="400" y="1112" on="0"/>
        <pt x="400" y="976" on="1"/>
      </contour>
    </TTGlyph>
    <TTGlyph name="glyph157" xMin="-400" yMin="-650" xMax="550" yMax="1500">
      <contour>
        <pt x="-400" y="-200" on="1"/>
        <pt x="-400" y="-100" on="0"/>
        <pt x="-285" y="-100" on="1"/>
        <pt x="-150" y="-100" on="0"/>
        <pt x="-150" y="-165" on="1"/>
        <pt x="-150" y="-270" on="0"/>
        <pt x="-250" y="-300" on="1"/>
        <pt x="-250" y="-445" on="1"/>
        <pt x="0" y="-200" on="1"/>
        <pt x="250" y="-445" on="1"/>
        <pt x="250" y="976" on="1"/>
        <pt x="250" y="1082" on="0"/>
        <pt x="50" y="1102" on="1"/>
        <pt x="202" y="1306" on="0"/>
        <pt x="256" y="1500" on="1"/>
        <pt x="363" y="1428" on="1"/>
        <pt x="434" y="1380" on="0"/>
        <pt x="493" y="1380" on="1"/>
        <pt x="523" y="1380" on="0"/>
        <pt x="550" y="1393" on="1"/>
        <pt x="550" y="1260" on="0"/>
        <pt x="488" y="1241" on="1"/>
        <pt x="473" y="1236" on="0"/>
        <pt x="455" y="1236" on="1"/>
        <pt x="400" y="1236" on="0"/>
        <pt x="321" y="1284" on="1"/>
        <pt x="266" y="1171" on="1"/>
        <pt x="400" y="1112" on="0"/>
        <pt x="400" y="976" on="1"/>
        <pt x="400" y="-650" on="1"/>
        <pt x="250" y="-650" on="1"/>
        <pt x="0" y="-405" on="1"/>
        <pt x="-250" y="-650" on="1"/>
        <pt x="-400" y="-650" on="1"/>
      </contour>
    </TTGlyph>
    <TTGlyph name="glyph162" xMin="-400" yMin="-650" xMax="550" yMax="1500">
      <contour>
        <pt x="-400" y="-240" on="1"/>
        <pt x="-400" y="-100" on="0"/>
        <pt x="-265" y="-100" on="1"/>
        <pt x="-150" y="-100" on="0"/>
        <pt x="-150" y="-200" on="1"/>
        <pt x="-150" y="-300" on="0"/>
        <pt x="-250" y="-300" on="1"/>
        <pt x="-250" y="-500" on="0"/>
        <pt x="0" y="-500" on="1"/>
        <pt x="250" y="-500" on="0"/>
        <pt x="250" y="-300" on="1"/>
        <pt x="250" y="976" on="1"/>
        <pt x="250" y="1082" on="0"/>
        <pt x="50" y="1102" on="1"/>
        <pt x="202" y="1306" on="0"/>
        <pt x="256" y="1500" on="1"/>
        <pt x="363" y="1428" on="1"/>
        <pt x="434" y="1380" on="0"/>
        <pt x="493" y="1380" on="1"/>
        <pt x="523" y="1380" on="0"/>
        <pt x="550" y="1393" on="1"/>
        <pt x="550" y="1260" on="0"/>
        <pt x="488" y="1241" on="1"/>
        <pt x="473" y="1236" on="0"/>
        <pt x="455" y="1236" on="1"/>
        <pt x="400" y="1236" on="0"/>
        <pt x="321" y="1284" on="1"/>
        <pt x="266" y="1171" on="1"/>
        <pt x="400" y="1112" on="0"/>
        <pt x="400" y="976" on="1"/>
        <pt x="400" y="-300" on="1"/>
        <pt x="400" y="-650" on="0"/>
        <pt x="0" y="-650" on="1"/>
        <pt x="-400" y="-650" on="0"/>
        <pt x="-400" y="-300" on="1"/>
      </contour>
    </TTGlyph>
    <TTGlyph name="glyph166" xMin="-500" yMin="-650" xMax="550" yMax="1500">
      <contour>
        <pt x="400" y="6" on="1"/>
        <pt x="400" y="-300" on="1"/>
        <pt x="400" y="-650" on="0"/>
        <pt x="0" y="-650" on="1"/>
        <pt x="-400" y="-650" on="0"/>
        <pt x="-400" y="-300" on="1"/>
        <pt x="-500" y="-300" on="0"/>
        <pt x="-500" y="-200" on="1"/>
        <pt x="-500" y="-100" on="0"/>
        <pt x="-385" y="-100" on="1"/>
        <pt x="-250" y="-100" on="0"/>
        <pt x="-250" y="-240" on="1"/>
        <pt x="-250" y="-300" on="1"/>
        <pt x="-250" y="-500" on="0"/>
        <pt x="0" y="-500" on="1"/>
        <pt x="250" y="-500" on="0"/>
        <pt x="250" y="-300" on="1"/>
        <pt x="250" y="0" on="1"/>
        <pt x="100" y="0" on="1"/>
        <pt x="100" y="150" on="1"/>
        <pt x="250" y="150" on="1"/>
        <pt x="250" y="976" on="1"/>
        <pt x="250" y="1082" on="0"/>
        <pt x="50" y="1102" on="1"/>
        <pt x="202" y="1306" on="0"/>
        <pt x="256" y="1500" on="1"/>
        <pt x="363" y="1428" on="1"/>
        <pt x="434" y="1380" on="0"/>
        <pt x="493" y="1380" on="1"/>
        <pt x="523" y="1380" on="0"/>
        <pt x="550" y="1393" on="1"/>
        <pt x="550" y="1260" on="0"/>
        <pt x="488" y="1241" on="1"/>
        <pt x="473" y="1236" on="0"/>
        <pt x="455" y="1236" on="1"/>
        <pt x="400" y="1236" on="0"/>
        <pt x="321" y="1284" on="1"/>
        <pt x="266" y="1171" on="1"/>
        <pt x="400" y="1112" on="0"/>
        <pt x="400" y="976" on="1"/>
        <pt x="400" y="153" on="1"/>
        <pt x="472" y="162" on="0"/>
        <pt x="550" y="195" on="1"/>
        <pt x="508" y="35" on="0"/>
      </contour>
    </TTGlyph>
    <TTGlyph name="glyph169" xMin="-480" yMin="-1200" xMax="-250" yMax="-700">
      <contour>
        <pt x="-250" y="-700" on="0"/>
        <pt x="-250" y="-790" on="1"/>
        <pt x="-250" y="-1200" on="1"/>
        <pt x="-400" y="-1200" on="1"/>
        <pt x="-400" y="-881" on="1"/>
        <pt x="-480" y="-881" on="0"/>
        <pt x="-480" y="-790" on="1"/>
        <pt x="-480" y="-700" on="0"/>
        <pt x="-360" y="-700" on="1"/>
      </contour>
    </TTGlyph>
    <TTGlyph name="glyph170" xMin="-684" yMin="-1200" xMax="-133" yMax="-700">
      <contour>
        <pt x="-450" y="-1200" on="1"/>
        <pt x="-583" y="-1200" on="0"/>
        <pt x="-628" y="-1140" on="1"/>
        <pt x="-657" y="-1102" on="0"/>
        <pt x="-657" y="-1052" on="1"/>
        <pt x="-657" y="-1024" on="0"/>
        <pt x="-647" y="-991" on="1"/>
        <pt x="-604" y="-881" on="1"/>
        <pt x="-684" y="-881" on="0"/>
        <pt x="-684" y="-790" on="1"/>
        <pt x="-684" y="-700" on="0"/>
        <pt x="-564" y="-700" on="1"/>
        <pt x="-441" y="-700" on="0"/>
        <pt x="-441" y="-814" on="1"/>
        <pt x="-441" y="-861" on="0"/>
        <pt x="-462" y="-927" on="1"/>
        <pt x="-496" y="-1017" on="1"/>
        <pt x="-499" y="-1025" on="0"/>
        <pt x="-499" y="-1032" on="1"/>
        <pt x="-499" y="-1063" on="0"/>
        <pt x="-433" y="-1063" on="1"/>
        <pt x="-360" y="-1063" on="0"/>
        <pt x="-286" y="-881" on="1"/>
        <pt x="-212" y="-700" on="1"/>
        <pt x="-158" y="-700" on="1"/>
        <pt x="-133" y="-700" on="0"/>
        <pt x="-133" y="-762" on="1"/>
        <pt x="-133" y="-841" on="0"/>
        <pt x="-269" y="-1200" on="0"/>
      </contour>
    </TTGlyph>
    <TTGlyph name="glyph171" xMin="-799" yMin="-1200" xMax="-103" yMax="-700">
      <contour>
        <pt x="-431" y="-1075" on="1"/>
        <pt x="-568" y="-1200" on="0"/>
        <pt x="-703" y="-1200" on="1"/>
        <pt x="-799" y="-1200" on="0"/>
        <pt x="-799" y="-1082" on="1"/>
        <pt x="-799" y="-1012" on="0"/>
        <pt x="-669" y="-881" on="1"/>
        <pt x="-648" y="-858" on="0"/>
        <pt x="-648" y="-840" on="1"/>
        <pt x="-648" y="-808" on="0"/>
        <pt x="-710" y="-790" on="1"/>
        <pt x="-710" y="-700" on="0"/>
        <pt x="-603" y="-700" on="1"/>
        <pt x="-500" y="-700" on="0"/>
        <pt x="-500" y="-761" on="1"/>
        <pt x="-500" y="-822" on="0"/>
        <pt x="-563" y="-919" on="1"/>
        <pt x="-632" y="-1024" on="0"/>
        <pt x="-632" y="-1053" on="1"/>
        <pt x="-632" y="-1063" on="0"/>
        <pt x="-623" y="-1063" on="1"/>
        <pt x="-541" y="-1063" on="0"/>
        <pt x="-390" y="-907" on="1"/>
        <pt x="-359" y="-1063" on="0"/>
        <pt x="-293" y="-1063" on="1"/>
        <pt x="-250" y="-1063" on="0"/>
        <pt x="-198" y="-790" on="1"/>
        <pt x="-181" y="-700" on="1"/>
        <pt x="-142" y="-700" on="1"/>
        <pt x="-103" y="-700" on="0"/>
        <pt x="-103" y="-789" on="1"/>
        <pt x="-103" y="-878" on="0"/>
        <pt x="-120" y="-970" on="1"/>
        <pt x="-157" y="-1200" on="0"/>
        <pt x="-293" y="-1200" on="1"/>
        <pt x="-376" y="-1200" on="0"/>
      </contour>
    </TTGlyph>
    <TTGlyph name="glyph172" xMin="-1120" yMin="1950" xMax="-250" yMax="2400">
      <contour>
        <pt x="-1120" y="2150" on="1"/>
        <pt x="-1120" y="2400" on="0"/>
        <pt x="-800" y="2400" on="1"/>
        <pt x="-600" y="2400" on="0"/>
        <pt x="-425" y="2250" on="1"/>
        <pt x="-250" y="2100" on="1"/>
        <pt x="-250" y="1950" on="1"/>
        <pt x="-870" y="1950" on="1"/>
        <pt x="-1120" y="1950" on="0"/>
      </contour>
      <contour>
        <pt x="-950" y="2100" on="0"/>
        <pt x="-870" y="2100" on="1"/>
        <pt x="-480" y="2100" on="1"/>
        <pt x="-599" y="2230" on="0"/>
        <pt x="-800" y="2230" on="1"/>
        <pt x="-950" y="2230" on="0"/>
        <pt x="-950" y="2150" on="1"/>
      </contour>
    </TTGlyph>
    <TTGlyph name="glyph173" xMin="-1120" yMin="1950" xMax="-250" yMax="2500">
      <contour>
        <pt x="-870" y="2100" on="1"/>
        <pt x="-480" y="2100" on="1"/>
        <pt x="-599" y="2230" on="0"/>
        <pt x="-800" y="2230" on="1"/>
        <pt x="-950" y="2230" on="0"/>
        <pt x="-950" y="2150" on="1"/>
        <pt x="-950" y="2100" on="0"/>
      </contour>
      <contour>
        <pt x="-870" y="1950" on="1"/>
        <pt x="-1120" y="1950" on="0"/>
        <pt x="-1120" y="2150" on="1"/>
        <pt x="-1120" y="2400" on="0"/>
        <pt x="-800" y="2400" on="1"/>
        <pt x="-600" y="2400" on="0"/>
        <pt x="-425" y="2250" on="1"/>
        <pt x="-412" y="2239" on="0"/>
        <pt x="-400" y="2228" on="1"/>
        <pt x="-400" y="2500" on="1"/>
        <pt x="-250" y="2500" on="1"/>
        <pt x="-250" y="1950" on="1"/>
      </contour>
    </TTGlyph>
    <TTGlyph name="glyph174" xMin="-1120" yMin="1950" xMax="-250" yMax="2502">
      <contour>
        <pt x="-870" y="2100" on="1"/>
        <pt x="-480" y="2100" on="1"/>
        <pt x="-599" y="2230" on="0"/>
        <pt x="-800" y="2230" on="1"/>
        <pt x="-950" y="2230" on="0"/>
        <pt x="-950" y="2150" on="1"/>
        <pt x="-950" y="2100" on="0"/>
      </contour>
      <contour>
        <pt x="-480" y="2327" on="1"/>
        <pt x="-480" y="2300" on="0"/>
        <pt x="-466" y="2286" on="1"/>
        <pt x="-452" y="2272" on="0"/>
        <pt x="-425" y="2272" on="1"/>
        <pt x="-397" y="2272" on="0"/>
        <pt x="-383" y="2286" on="1"/>
        <pt x="-370" y="2300" on="0"/>
        <pt x="-370" y="2327" on="1"/>
        <pt x="-370" y="2355" on="0"/>
        <pt x="-383" y="2368" on="1"/>
        <pt x="-397" y="2382" on="0"/>
        <pt x="-425" y="2382" on="1"/>
        <pt x="-452" y="2382" on="0"/>
        <pt x="-466" y="2368" on="1"/>
        <pt x="-480" y="2355" on="0"/>
      </contour>
      <contour>
        <pt x="-331" y="2170" on="1"/>
        <pt x="-250" y="2100" on="1"/>
        <pt x="-250" y="1950" on="1"/>
        <pt x="-870" y="1950" on="1"/>
        <pt x="-1120" y="1950" on="0"/>
        <pt x="-1120" y="2150" on="1"/>
        <pt x="-1120" y="2400" on="0"/>
        <pt x="-800" y="2400" on="1"/>
        <pt x="-695" y="2400" on="0"/>
        <pt x="-598" y="2359" on="1"/>
        <pt x="-591" y="2423" on="0"/>
        <pt x="-556" y="2458" on="1"/>
        <pt x="-512" y="2502" on="0"/>
        <pt x="-425" y="2502" on="1"/>
        <pt x="-337" y="2502" on="0"/>
        <pt x="-293" y="2458" on="1"/>
        <pt x="-250" y="2415" on="0"/>
        <pt x="-250" y="2327" on="1"/>
        <pt x="-250" y="2239" on="0"/>
        <pt x="-293" y="2196" on="1"/>
        <pt x="-309" y="2180" on="0"/>
      </contour>
    </TTGlyph>
    <TTGlyph name="glyph175" xMin="-1120" yMin="1950" xMax="-250" yMax="2500">
      <contour>
        <pt x="-870" y="2100" on="1"/>
        <pt x="-480" y="2100" on="1"/>
        <pt x="-599" y="2230" on="0"/>
        <pt x="-800" y="2230" on="1"/>
        <pt x="-950" y="2230" on="0"/>
        <pt x="-950" y="2150" on="1"/>
        <pt x="-950" y="2100" on="0"/>
      </contour>
      <contour>
        <pt x="-650" y="2378" on="1"/>
        <pt x="-650" y="2500" on="1"/>
        <pt x="-500" y="2500" on="1"/>
        <pt x="-499" y="2307" on="1"/>
        <pt x="-461" y="2282" on="0"/>
        <pt x="-425" y="2250" on="1"/>
        <pt x="-412" y="2239" on="0"/>
        <pt x="-400" y="2228" on="1"/>
        <pt x="-400" y="2500" on="1"/>
        <pt x="-250" y="2500" on="1"/>
        <pt x="-250" y="1950" on="1"/>
        <pt x="-870" y="1950" on="1"/>
        <pt x="-1120" y="1950" on="0"/>
        <pt x="-1120" y="2150" on="1"/>
        <pt x="-1120" y="2400" on="0"/>
        <pt x="-800" y="2400" on="1"/>
        <pt x="-723" y="2400" on="0"/>
      </contour>
    </TTGlyph>
    <TTGlyph name="glyph176" xMin="-925" yMin="1950" xMax="-475" yMax="2400">
      <contour>
        <pt x="-775" y="2175" on="1"/>
        <pt x="-775" y="2138" on="0"/>
        <pt x="-756" y="2119" on="1"/>
        <pt x="-737" y="2100" on="0"/>
        <pt x="-700" y="2100" on="1"/>
        <pt x="-662" y="2100" on="0"/>
        <pt x="-643" y="2119" on="1"/>
        <pt x="-625" y="2138" on="0"/>
        <pt x="-625" y="2175" on="1"/>
        <pt x="-625" y="2213" on="0"/>
        <pt x="-643" y="2231" on="1"/>
        <pt x="-662" y="2250" on="0"/>
        <pt x="-700" y="2250" on="1"/>
        <pt x="-737" y="2250" on="0"/>
        <pt x="-756" y="2231" on="1"/>
        <pt x="-775" y="2213" on="0"/>
      </contour>
      <contour>
        <pt x="-475" y="2175" on="1"/>
        <pt x="-475" y="2062" on="0"/>
        <pt x="-531" y="2006" on="1"/>
        <pt x="-587" y="1950" on="0"/>
        <pt x="-700" y="1950" on="1"/>
        <pt x="-813" y="1950" on="0"/>
        <pt x="-869" y="2006" on="1"/>
        <pt x="-925" y="2062" on="0"/>
        <pt x="-925" y="2175" on="1"/>
        <pt x="-925" y="2288" on="0"/>
        <pt x="-869" y="2344" on="1"/>
        <pt x="-813" y="2400" on="0"/>
        <pt x="-700" y="2400" on="1"/>
        <pt x="-587" y="2400" on="0"/>
        <pt x="-531" y="2344" on="1"/>
        <pt x="-475" y="2288" on="0"/>
      </contour>
    </TTGlyph>
    <TTGlyph name="glyph177" xMin="-910" yMin="1950" xMax="-490" yMax="2369">
      <contour>
        <pt x="-760" y="2099" on="1"/>
        <pt x="-910" y="2099" on="1"/>
        <pt x="-910" y="2220" on="1"/>
        <pt x="-760" y="2220" on="1"/>
        <pt x="-760" y="2369" on="1"/>
        <pt x="-640" y="2369" on="1"/>
        <pt x="-640" y="2220" on="1"/>
        <pt x="-490" y="2220" on="1"/>
        <pt x="-490" y="2099" on="1"/>
        <pt x="-640" y="2099" on="1"/>
        <pt x="-640" y="1950" on="1"/>
        <pt x="-760" y="1950" on="1"/>
      </contour>
    </TTGlyph>
    <TTGlyph name="glyph178" xMin="-800" yMin="1950" xMax="-100" yMax="2500">
      <contour>
        <pt x="-630" y="2327" on="1"/>
        <pt x="-500" y="2327" on="0"/>
        <pt x="-500" y="2228" on="1"/>
        <pt x="-500" y="2139" on="0"/>
        <pt x="-575" y="2139" on="1"/>
        <pt x="-640" y="2139" on="0"/>
        <pt x="-650" y="2186" on="1"/>
        <pt x="-650" y="2092" on="0"/>
        <pt x="-500" y="2092" on="1"/>
        <pt x="-375" y="2092" on="0"/>
        <pt x="-312" y="2142" on="1"/>
        <pt x="-250" y="2192" on="0"/>
        <pt x="-250" y="2245" on="1"/>
        <pt x="-250" y="2358" on="0"/>
        <pt x="-350" y="2406" on="0"/>
        <pt x="-350" y="2453" on="1"/>
        <pt x="-350" y="2500" on="0"/>
        <pt x="-300" y="2500" on="1"/>
        <pt x="-225" y="2500" on="0"/>
        <pt x="-100" y="2349" on="0"/>
        <pt x="-100" y="2245" on="1"/>
        <pt x="-100" y="2097" on="0"/>
        <pt x="-212" y="2024" on="1"/>
        <pt x="-325" y="1950" on="0"/>
        <pt x="-500" y="1950" on="1"/>
        <pt x="-800" y="1950" on="0"/>
        <pt x="-800" y="2186" on="1"/>
        <pt x="-800" y="2327" on="0"/>
      </contour>
    </TTGlyph>
    <TTGlyph name="glyph179" xMin="250" yMin="0" xMax="1800" yMax="1500">
      <contour>
        <pt x="400" y="300" on="1"/>
        <pt x="400" y="150" on="1"/>
        <pt x="440" y="150" on="0"/>
        <pt x="470" y="212" on="1"/>
        <pt x="500" y="274" on="0"/>
        <pt x="500" y="320" on="1"/>
        <pt x="500" y="360" on="0"/>
        <pt x="450" y="360" on="1"/>
        <pt x="400" y="360" on="0"/>
      </contour>
      <contour>
        <pt x="1150" y="0" on="1"/>
        <pt x="1000" y="0" on="1"/>
        <pt x="1000" y="1153" on="1"/>
        <pt x="879" y="1285" on="1"/>
        <pt x="699" y="1120" on="1"/>
        <pt x="519" y="1285" on="1"/>
        <pt x="400" y="1153" on="1"/>
        <pt x="400" y="496" on="1"/>
        <pt x="423" y="500" on="0"/>
        <pt x="450" y="500" on="1"/>
        <pt x="650" y="500" on="0"/>
        <pt x="650" y="320" on="1"/>
        <pt x="650" y="215" on="0"/>
        <pt x="571" y="108" on="1"/>
        <pt x="492" y="0" on="0"/>
        <pt x="400" y="0" on="1"/>
        <pt x="250" y="0" on="1"/>
        <pt x="250" y="1135" on="1"/>
        <pt x="250" y="1211" on="0"/>
        <pt x="315" y="1285" on="1"/>
        <pt x="509" y="1500" on="1"/>
        <pt x="699" y="1322" on="1"/>
        <pt x="889" y="1500" on="1"/>
        <pt x="1083" y="1285" on="1"/>
        <pt x="1097" y="1269" on="0"/>
        <pt x="1108" y="1253" on="1"/>
        <pt x="1365" y="1500" on="1"/>
        <pt x="1719" y="1277" on="1"/>
        <pt x="1800" y="1226" on="0"/>
        <pt x="1800" y="1135" on="1"/>
        <pt x="1800" y="0" on="1"/>
        <pt x="1650" y="0" on="1"/>
        <pt x="1650" y="1139" on="1"/>
        <pt x="1381" y="1306" on="1"/>
        <pt x="1150" y="1083" on="1"/>
      </contour>
    </TTGlyph>
    <TTGlyph name="glyph180" xMin="-1775" yMin="-650" xMax="-975" yMax="-100">
      <contour>
        <pt x="-1625" y="-370" on="1"/>
        <pt x="-1595" y="-370" on="1"/>
        <pt x="-1455" y="-370" on="0"/>
        <pt x="-1455" y="-500" on="1"/>
        <pt x="-1455" y="-650" on="0"/>
        <pt x="-1625" y="-650" on="1"/>
        <pt x="-1775" y="-650" on="1"/>
        <pt x="-1775" y="-370" on="1"/>
        <pt x="-1775" y="-100" on="0"/>
        <pt x="-1375" y="-100" on="1"/>
        <pt x="-975" y="-100" on="0"/>
        <pt x="-975" y="-370" on="1"/>
        <pt x="-975" y="-650" on="1"/>
        <pt x="-1125" y="-650" on="1"/>
        <pt x="-1125" y="-370" on="1"/>
        <pt x="-1125" y="-250" on="0"/>
        <pt x="-1375" y="-250" on="1"/>
        <pt x="-1625" y="-250" on="0"/>
      </contour>
      <contour>
        <pt x="-1625" y="-470" on="1"/>
        <pt x="-1625" y="-550" on="1"/>
        <pt x="-1555" y="-550" on="0"/>
        <pt x="-1555" y="-501" on="1"/>
        <pt x="-1555" y="-470" on="0"/>
        <pt x="-1595" y="-470" on="1"/>
      </contour>
    </TTGlyph>
    <TTGlyph name="glyph181" xMin="-1205" yMin="-1200" xMax="-975" yMax="-700">
      <contour>
        <pt x="-975" y="-700" on="0"/>
        <pt x="-975" y="-790" on="1"/>
        <pt x="-975" y="-1200" on="1"/>
        <pt x="-1125" y="-1200" on="1"/>
        <pt x="-1125" y="-881" on="1"/>
        <pt x="-1205" y="-881" on="0"/>
        <pt x="-1205" y="-790" on="1"/>
        <pt x="-1205" y="-700" on="0"/>
        <pt x="-1085" y="-700" on="1"/>
      </contour>
    </TTGlyph>
    <TTGlyph name="glyph182" xMin="-1526" yMin="-1200" xMax="-975" yMax="-700">
      <contour>
        <pt x="-1292" y="-1200" on="1"/>
        <pt x="-1425" y="-1200" on="0"/>
        <pt x="-1470" y="-1140" on="1"/>
        <pt x="-1499" y="-1102" on="0"/>
        <pt x="-1499" y="-1052" on="1"/>
        <pt x="-1499" y="-1024" on="0"/>
        <pt x="-1489" y="-991" on="1"/>
        <pt x="-1446" y="-881" on="1"/>
        <pt x="-1526" y="-881" on="0"/>
        <pt x="-1526" y="-790" on="1"/>
        <pt x="-1526" y="-700" on="0"/>
        <pt x="-1406" y="-700" on="1"/>
        <pt x="-1283" y="-700" on="0"/>
        <pt x="-1283" y="-814" on="1"/>
        <pt x="-1283" y="-861" on="0"/>
        <pt x="-1304" y="-927" on="1"/>
        <pt x="-1338" y="-1017" on="1"/>
        <pt x="-1341" y="-1025" on="0"/>
        <pt x="-1341" y="-1032" on="1"/>
        <pt x="-1341" y="-1063" on="0"/>
        <pt x="-1275" y="-1063" on="1"/>
        <pt x="-1202" y="-1063" on="0"/>
        <pt x="-1128" y="-881" on="1"/>
        <pt x="-1054" y="-700" on="1"/>
        <pt x="-1000" y="-700" on="1"/>
        <pt x="-975" y="-700" on="0"/>
        <pt x="-975" y="-762" on="1"/>
        <pt x="-975" y="-841" on="0"/>
        <pt x="-1111" y="-1200" on="0"/>
      </contour>
    </TTGlyph>
    <TTGlyph name="glyph183" xMin="-1671" yMin="-1200" xMax="-975" yMax="-700">
      <contour>
        <pt x="-1303" y="-1075" on="1"/>
        <pt x="-1440" y="-1200" on="0"/>
        <pt x="-1575" y="-1200" on="1"/>
        <pt x="-1671" y="-1200" on="0"/>
        <pt x="-1671" y="-1082" on="1"/>
        <pt x="-1671" y="-1012" on="0"/>
        <pt x="-1541" y="-881" on="1"/>
        <pt x="-1520" y="-858" on="0"/>
        <pt x="-1520" y="-840" on="1"/>
        <pt x="-1520" y="-808" on="0"/>
        <pt x="-1582" y="-790" on="1"/>
        <pt x="-1582" y="-700" on="0"/>
        <pt x="-1475" y="-700" on="1"/>
        <pt x="-1372" y="-700" on="0"/>
        <pt x="-1372" y="-761" on="1"/>
        <pt x="-1372" y="-822" on="0"/>
        <pt x="-1435" y="-919" on="1"/>
        <pt x="-1504" y="-1024" on="0"/>
        <pt x="-1504" y="-1053" on="1"/>
        <pt x="-1504" y="-1063" on="0"/>
        <pt x="-1495" y="-1063" on="1"/>
        <pt x="-1413" y="-1063" on="0"/>
        <pt x="-1262" y="-907" on="1"/>
        <pt x="-1231" y="-1063" on="0"/>
        <pt x="-1165" y="-1063" on="1"/>
        <pt x="-1122" y="-1063" on="0"/>
        <pt x="-1070" y="-790" on="1"/>
        <pt x="-1053" y="-700" on="1"/>
        <pt x="-1014" y="-700" on="1"/>
        <pt x="-975" y="-700" on="0"/>
        <pt x="-975" y="-789" on="1"/>
        <pt x="-975" y="-878" on="0"/>
        <pt x="-992" y="-970" on="1"/>
        <pt x="-1029" y="-1200" on="0"/>
        <pt x="-1165" y="-1200" on="1"/>
        <pt x="-1248" y="-1200" on="0"/>
      </contour>
    </TTGlyph>
    <TTGlyph name="glyph185" xMin="-640" yMin="-1200" xMax="400" yMax="2500">
      <contour>
        <pt x="-390" y="2050" on="1"/>
        <pt x="0" y="2050" on="1"/>
        <pt x="-119" y="2180" on="0"/>
        <pt x="-320" y="2180" on="1"/>
        <pt x="-470" y="2180" on="0"/>
        <pt x="-470" y="2100" on="1"/>
        <pt x="-470" y="2050" on="0"/>
      </contour>
      <contour>
        <pt x="400" y="-900" on="1"/>
        <pt x="400" y="-1200" on="0"/>
        <pt x="0" y="-1200" on="1"/>
        <pt x="-400" y="-1200" on="0"/>
        <pt x="-400" y="-900" on="1"/>
        <pt x="-400" y="-730" on="1"/>
        <pt x="-250" y="-730" on="1"/>
        <pt x="-250" y="-900" on="1"/>
        <pt x="-250" y="-1050" on="0"/>
        <pt x="0" y="-1050" on="1"/>
        <pt x="250" y="-1050" on="0"/>
        <pt x="250" y="-900" on="1"/>
        <pt x="250" y="1700" on="1"/>
        <pt x="250" y="1850" on="0"/>
        <pt x="100" y="1900" on="1"/>
        <pt x="-390" y="1900" on="1"/>
        <pt x="-640" y="1900" on="0"/>
        <pt x="-640" y="2100" on="1"/>
        <pt x="-640" y="2350" on="0"/>
        <pt x="-320" y="2350" on="1"/>
        <pt x="-243" y="2350" on="0"/>
        <pt x="-170" y="2328" on="1"/>
        <pt x="-170" y="2500" on="1"/>
        <pt x="-20" y="2500" on="1"/>
        <pt x="-19" y="2257" on="1"/>
        <pt x="19" y="2232" on="0"/>
        <pt x="55" y="2200" on="1"/>
        <pt x="68" y="2189" on="0"/>
        <pt x="80" y="2178" on="1"/>
        <pt x="80" y="2450" on="1"/>
        <pt x="230" y="2450" on="1"/>
        <pt x="230" y="2000" on="1"/>
        <pt x="300" y="1947" on="1"/>
        <pt x="400" y="1873" on="0"/>
        <pt x="400" y="1700" on="1"/>
      </contour>
    </TTGlyph>
    <TTGlyph name="glyph186" xMin="-534" yMin="-1200" xMax="400" yMax="2461">
      <contour>
        <pt x="250" y="1640" on="1"/>
        <pt x="250" y="1850" on="0"/>
        <pt x="16" y="1850" on="1"/>
        <pt x="-200" y="1850" on="1"/>
        <pt x="-450" y="1850" on="0"/>
        <pt x="-450" y="2041" on="1"/>
        <pt x="-450" y="2086" on="0"/>
        <pt x="-410" y="2221" on="0"/>
        <pt x="-410" y="2291" on="1"/>
        <pt x="-410" y="2361" on="0"/>
        <pt x="-534" y="2361" on="1"/>
        <pt x="-534" y="2461" on="0"/>
        <pt x="-434" y="2461" on="1"/>
        <pt x="-260" y="2461" on="0"/>
        <pt x="-260" y="2291" on="1"/>
        <pt x="-260" y="2206" on="0"/>
        <pt x="-300" y="2091" on="0"/>
        <pt x="-300" y="2041" on="1"/>
        <pt x="-300" y="2000" on="0"/>
        <pt x="-200" y="2000" on="1"/>
        <pt x="16" y="2000" on="1"/>
        <pt x="400" y="2000" on="0"/>
        <pt x="400" y="1640" on="1"/>
        <pt x="400" y="-900" on="1"/>
        <pt x="400" y="-1200" on="0"/>
        <pt x="0" y="-1200" on="1"/>
        <pt x="-400" y="-1200" on="0"/>
        <pt x="-400" y="-900" on="1"/>
        <pt x="-400" y="-730" on="1"/>
        <pt x="-250" y="-730" on="1"/>
        <pt x="-250" y="-900" on="1"/>
        <pt x="-250" y="-1050" on="0"/>
        <pt x="0" y="-1050" on="1"/>
        <pt x="250" y="-1050" on="0"/>
        <pt x="250" y="-900" on="1"/>
      </contour>
    </TTGlyph>
    <TTGlyph name="glyph187" xMin="-825" yMin="-1200" xMax="550" yMax="1500">
      <contour>
        <pt x="250" y="976" on="1"/>
        <pt x="250" y="1082" on="0"/>
        <pt x="50" y="1102" on="1"/>
        <pt x="202" y="1306" on="0"/>
        <pt x="256" y="1500" on="1"/>
        <pt x="363" y="1428" on="1"/>
        <pt x="434" y="1380" on="0"/>
        <pt x="493" y="1380" on="1"/>
        <pt x="523" y="1380" on="0"/>
        <pt x="550" y="1393" on="1"/>
        <pt x="550" y="1260" on="0"/>
        <pt x="488" y="1241" on="1"/>
        <pt x="473" y="1236" on="0"/>
        <pt x="455" y="1236" on="1"/>
        <pt x="400" y="1236" on="0"/>
        <pt x="321" y="1284" on="1"/>
        <pt x="266" y="1171" on="1"/>
        <pt x="400" y="1112" on="0"/>
        <pt x="400" y="976" on="1"/>
        <pt x="400" y="-1000" on="1"/>
        <pt x="400" y="-1100" on="0"/>
        <pt x="319" y="-1150" on="1"/>
        <pt x="237" y="-1200" on="0"/>
        <pt x="75" y="-1200" on="1"/>
        <pt x="-45" y="-1200" on="0"/>
        <pt x="-115" y="-1186" on="1"/>
        <pt x="-184" y="-1172" on="0"/>
        <pt x="-202" y="-1145" on="1"/>
        <pt x="-219" y="-1172" on="0"/>
        <pt x="-273" y="-1186" on="1"/>
        <pt x="-327" y="-1200" on="0"/>
        <pt x="-425" y="-1200" on="1"/>
        <pt x="-575" y="-1200" on="0"/>
        <pt x="-650" y="-1150" on="1"/>
        <pt x="-725" y="-1100" on="0"/>
        <pt x="-725" y="-1000" on="1"/>
        <pt x="-725" y="-910" on="1"/>
        <pt x="-750" y="-910" on="1"/>
        <pt x="-793" y="-910" on="0"/>
        <pt x="-825" y="-850" on="0"/>
        <pt x="-825" y="-800" on="1"/>
        <pt x="-825" y="-750" on="0"/>
        <pt x="-725" y="-700" on="0"/>
        <pt x="-650" y="-700" on="1"/>
        <pt x="-575" y="-700" on="1"/>
        <pt x="-575" y="-1001" on="1"/>
        <pt x="-575" y="-1050" on="0"/>
        <pt x="-425" y="-1050" on="1"/>
        <pt x="-275" y="-1050" on="0"/>
        <pt x="-275" y="-1000" on="1"/>
        <pt x="-275" y="-850" on="1"/>
        <pt x="-275" y="-800" on="0"/>
        <pt x="-355" y="-800" on="1"/>
        <pt x="-355" y="-700" on="1"/>
        <pt x="-255" y="-700" on="1"/>
        <pt x="-125" y="-700" on="0"/>
        <pt x="-125" y="-850" on="1"/>
        <pt x="-125" y="-1000" on="1"/>
        <pt x="-125" y="-1050" on="0"/>
        <pt x="75" y="-1050" on="1"/>
        <pt x="250" y="-1050" on="0"/>
        <pt x="250" y="-1000" on="1"/>
      </contour>
    </TTGlyph>
    <TTGlyph name="glyph188" xMin="-1175" yMin="-1200" xMax="550" yMax="1500">
      <contour>
        <pt x="400" y="-1000" on="1"/>
        <pt x="400" y="-1100" on="0"/>
        <pt x="314" y="-1150" on="1"/>
        <pt x="227" y="-1200" on="0"/>
        <pt x="55" y="-1200" on="1"/>
        <pt x="-35" y="-1200" on="0"/>
        <pt x="-98" y="-1185" on="1"/>
        <pt x="-161" y="-1170" on="0"/>
        <pt x="-199" y="-1140" on="1"/>
        <pt x="-236" y="-1170" on="0"/>
        <pt x="-293" y="-1185" on="1"/>
        <pt x="-349" y="-1200" on="0"/>
        <pt x="-425" y="-1200" on="1"/>
        <pt x="-575" y="-1200" on="0"/>
        <pt x="-650" y="-1150" on="1"/>
        <pt x="-725" y="-1100" on="0"/>
        <pt x="-725" y="-1000" on="1"/>
        <pt x="-725" y="-920" on="1"/>
        <pt x="-725" y="-850" on="0"/>
        <pt x="-875" y="-850" on="1"/>
        <pt x="-1025" y="-850" on="0"/>
        <pt x="-1025" y="-920" on="1"/>
        <pt x="-1025" y="-950" on="1"/>
        <pt x="-1000" y="-950" on="1"/>
        <pt x="-925" y="-950" on="0"/>
        <pt x="-925" y="-1000" on="1"/>
        <pt x="-925" y="-1048" on="0"/>
        <pt x="-975" y="-1125" on="1"/>
        <pt x="-1025" y="-1200" on="1"/>
        <pt x="-1175" y="-1200" on="1"/>
        <pt x="-1175" y="-919" on="1"/>
        <pt x="-1175" y="-830" on="0"/>
        <pt x="-1025" y="-700" on="0"/>
        <pt x="-875" y="-700" on="1"/>
        <pt x="-725" y="-700" on="0"/>
        <pt x="-575" y="-830" on="0"/>
        <pt x="-575" y="-920" on="1"/>
        <pt x="-575" y="-1001" on="1"/>
        <pt x="-575" y="-1050" on="0"/>
        <pt x="-425" y="-1050" on="1"/>
        <pt x="-275" y="-1050" on="0"/>
        <pt x="-275" y="-999" on="1"/>
        <pt x="-275" y="-850" on="1"/>
        <pt x="-275" y="-800" on="0"/>
        <pt x="-355" y="-800" on="1"/>
        <pt x="-355" y="-700" on="1"/>
        <pt x="-255" y="-700" on="1"/>
        <pt x="-125" y="-700" on="0"/>
        <pt x="-125" y="-850" on="1"/>
        <pt x="-125" y="-1007" on="1"/>
        <pt x="-125" y="-1050" on="0"/>
        <pt x="63" y="-1050" on="1"/>
        <pt x="250" y="-1050" on="0"/>
        <pt x="250" y="-1000" on="1"/>
        <pt x="250" y="976" on="1"/>
        <pt x="250" y="1082" on="0"/>
        <pt x="50" y="1102" on="1"/>
        <pt x="202" y="1306" on="0"/>
        <pt x="256" y="1500" on="1"/>
        <pt x="363" y="1428" on="1"/>
        <pt x="434" y="1380" on="0"/>
        <pt x="493" y="1380" on="1"/>
        <pt x="523" y="1380" on="0"/>
        <pt x="550" y="1393" on="1"/>
        <pt x="550" y="1260" on="0"/>
        <pt x="488" y="1241" on="1"/>
        <pt x="473" y="1236" on="0"/>
        <pt x="455" y="1236" on="1"/>
        <pt x="400" y="1236" on="0"/>
        <pt x="321" y="1284" on="1"/>
        <pt x="266" y="1171" on="1"/>
        <pt x="400" y="1112" on="0"/>
        <pt x="400" y="976" on="1"/>
      </contour>
    </TTGlyph>
    <TTGlyph name="glyph189" xMin="-1045" yMin="-1200" xMax="550" yMax="1500">
      <contour>
        <pt x="-848" y="-1030" on="1"/>
        <pt x="-848" y="-1017" on="0"/>
        <pt x="-875" y="-1017" on="1"/>
        <pt x="-895" y="-1017" on="1"/>
        <pt x="-895" y="-1072" on="1"/>
        <pt x="-870" y="-1065" on="0"/>
        <pt x="-848" y="-1045" on="0"/>
      </contour>
      <contour>
        <pt x="250" y="976" on="1"/>
        <pt x="250" y="1082" on="0"/>
        <pt x="50" y="1102" on="1"/>
        <pt x="202" y="1306" on="0"/>
        <pt x="256" y="1500" on="1"/>
        <pt x="363" y="1428" on="1"/>
        <pt x="434" y="1380" on="0"/>
        <pt x="493" y="1380" on="1"/>
        <pt x="523" y="1380" on="0"/>
        <pt x="550" y="1393" on="1"/>
        <pt x="550" y="1260" on="0"/>
        <pt x="488" y="1241" on="1"/>
        <pt x="473" y="1236" on="0"/>
        <pt x="455" y="1236" on="1"/>
        <pt x="400" y="1236" on="0"/>
        <pt x="321" y="1284" on="1"/>
        <pt x="266" y="1171" on="1"/>
        <pt x="400" y="1112" on="0"/>
        <pt x="400" y="976" on="1"/>
        <pt x="400" y="-972" on="1"/>
        <pt x="400" y="-1200" on="0"/>
        <pt x="150" y="-1200" on="1"/>
        <pt x="44" y="-1200" on="0"/>
        <pt x="-97" y="-1097" on="1"/>
        <pt x="-145" y="-1063" on="0"/>
        <pt x="-245" y="-1063" on="1"/>
        <pt x="-245" y="-1200" on="1"/>
        <pt x="-395" y="-1200" on="1"/>
        <pt x="-495" y="-1081" on="0"/>
        <pt x="-495" y="-1026" on="1"/>
        <pt x="-495" y="-935" on="0"/>
        <pt x="-395" y="-935" on="1"/>
        <pt x="-395" y="-892" on="1"/>
        <pt x="-450" y="-852" on="1"/>
        <pt x="-645" y="-952" on="1"/>
        <pt x="-837" y="-852" on="1"/>
        <pt x="-895" y="-893" on="1"/>
        <pt x="-895" y="-926" on="1"/>
        <pt x="-845" y="-926" on="1"/>
        <pt x="-796" y="-926" on="0"/>
        <pt x="-770" y="-972" on="1"/>
        <pt x="-757" y="-995" on="0"/>
        <pt x="-757" y="-1024" on="1"/>
        <pt x="-757" y="-1049" on="0"/>
        <pt x="-795" y="-1108" on="0"/>
        <pt x="-895" y="-1200" on="1"/>
        <pt x="-1045" y="-1200" on="1"/>
        <pt x="-1045" y="-835" on="1"/>
        <pt x="-845" y="-699" on="1"/>
        <pt x="-645" y="-801" on="1"/>
        <pt x="-445" y="-699" on="1"/>
        <pt x="-245" y="-835" on="1"/>
        <pt x="-245" y="-926" on="1"/>
        <pt x="-134" y="-926" on="0"/>
        <pt x="-41" y="-995" on="1"/>
        <pt x="51" y="-1063" on="0"/>
        <pt x="150" y="-1063" on="1"/>
        <pt x="250" y="-1063" on="0"/>
        <pt x="250" y="-972" on="1"/>
      </contour>
    </TTGlyph>
    <TTGlyph name="glyph190" xMin="-400" yMin="-1200" xMax="550" yMax="1500">
      <contour>
        <pt x="250" y="976" on="1"/>
        <pt x="250" y="1082" on="0"/>
        <pt x="50" y="1102" on="1"/>
        <pt x="202" y="1306" on="0"/>
        <pt x="256" y="1500" on="1"/>
        <pt x="363" y="1428" on="1"/>
        <pt x="434" y="1380" on="0"/>
        <pt x="493" y="1380" on="1"/>
        <pt x="523" y="1380" on="0"/>
        <pt x="550" y="1393" on="1"/>
        <pt x="550" y="1260" on="0"/>
        <pt x="488" y="1241" on="1"/>
        <pt x="473" y="1236" on="0"/>
        <pt x="455" y="1236" on="1"/>
        <pt x="400" y="1236" on="0"/>
        <pt x="321" y="1284" on="1"/>
        <pt x="266" y="1171" on="1"/>
        <pt x="400" y="1112" on="0"/>
        <pt x="400" y="976" on="1"/>
        <pt x="400" y="-1200" on="1"/>
        <pt x="250" y="-1200" on="1"/>
        <pt x="0" y="-976" on="1"/>
        <pt x="-250" y="-1200" on="1"/>
        <pt x="-400" y="-1200" on="1"/>
        <pt x="-400" y="-790" on="1"/>
        <pt x="-400" y="-699" on="0"/>
        <pt x="-285" y="-699" on="1"/>
        <pt x="-150" y="-699" on="0"/>
        <pt x="-150" y="-758" on="1"/>
        <pt x="-150" y="-853" on="0"/>
        <pt x="-250" y="-881" on="1"/>
        <pt x="-250" y="-1013" on="1"/>
        <pt x="0" y="-790" on="1"/>
        <pt x="250" y="-1013" on="1"/>
      </contour>
    </TTGlyph>
    <TTGlyph name="glyph191" xMin="-400" yMin="-1200" xMax="550" yMax="1500">
      <contour>
        <pt x="400" y="-900" on="1"/>
        <pt x="400" y="-1200" on="0"/>
        <pt x="0" y="-1200" on="1"/>
        <pt x="-400" y="-1200" on="0"/>
        <pt x="-400" y="-900" on="1"/>
        <pt x="-400" y="-840" on="1"/>
        <pt x="-400" y="-700" on="0"/>
        <pt x="-265" y="-700" on="1"/>
        <pt x="-150" y="-700" on="0"/>
        <pt x="-150" y="-800" on="1"/>
        <pt x="-150" y="-900" on="0"/>
        <pt x="-250" y="-900" on="1"/>
        <pt x="-250" y="-1050" on="0"/>
        <pt x="0" y="-1050" on="1"/>
        <pt x="250" y="-1050" on="0"/>
        <pt x="250" y="-900" on="1"/>
        <pt x="250" y="976" on="1"/>
        <pt x="250" y="1082" on="0"/>
        <pt x="50" y="1102" on="1"/>
        <pt x="202" y="1306" on="0"/>
        <pt x="256" y="1500" on="1"/>
        <pt x="363" y="1428" on="1"/>
        <pt x="434" y="1380" on="0"/>
        <pt x="493" y="1380" on="1"/>
        <pt x="523" y="1380" on="0"/>
        <pt x="550" y="1393" on="1"/>
        <pt x="550" y="1260" on="0"/>
        <pt x="488" y="1241" on="1"/>
        <pt x="473" y="1236" on="0"/>
        <pt x="455" y="1236" on="1"/>
        <pt x="400" y="1236" on="0"/>
        <pt x="321" y="1284" on="1"/>
        <pt x="266" y="1171" on="1"/>
        <pt x="400" y="1112" on="0"/>
        <pt x="400" y="976" on="1"/>
      </contour>
    </TTGlyph>
    <TTGlyph name="glyph192" xMin="50" yMin="-1150" xMax="1050" yMax="1500">
      <contour>
        <pt x="250" y="976" on="1"/>
        <pt x="250" y="1082" on="0"/>
        <pt x="50" y="1102" on="1"/>
        <pt x="202" y="1306" on="0"/>
        <pt x="256" y="1500" on="1"/>
        <pt x="363" y="1428" on="1"/>
        <pt x="434" y="1380" on="0"/>
        <pt x="493" y="1380" on="1"/>
        <pt x="523" y="1380" on="0"/>
        <pt x="550" y="1393" on="1"/>
        <pt x="550" y="1260" on="0"/>
        <pt x="488" y="1241" on="1"/>
        <pt x="473" y="1236" on="0"/>
        <pt x="455" y="1236" on="1"/>
        <pt x="400" y="1236" on="0"/>
        <pt x="321" y="1284" on="1"/>
        <pt x="266" y="1171" on="1"/>
        <pt x="400" y="1112" on="0"/>
        <pt x="400" y="976" on="1"/>
        <pt x="400" y="-800" on="1"/>
        <pt x="400" y="-1000" on="0"/>
        <pt x="650" y="-1000" on="1"/>
        <pt x="900" y="-1000" on="0"/>
        <pt x="900" y="-800" on="1"/>
        <pt x="900" y="-700" on="1"/>
        <pt x="1050" y="-700" on="1"/>
        <pt x="1050" y="-800" on="1"/>
        <pt x="1050" y="-1150" on="0"/>
        <pt x="650" y="-1150" on="1"/>
        <pt x="250" y="-1150" on="0"/>
        <pt x="250" y="-800" on="1"/>
      </contour>
    </TTGlyph>
    <TTGlyph name="glyph193" xMin="-500" yMin="-1200" xMax="550" yMax="1500">
      <contour>
        <pt x="400" y="-900" on="1"/>
        <pt x="400" y="-1200" on="0"/>
        <pt x="0" y="-1200" on="1"/>
        <pt x="-400" y="-1200" on="0"/>
        <pt x="-400" y="-900" on="1"/>
        <pt x="-500" y="-900" on="0"/>
        <pt x="-500" y="-800" on="1"/>
        <pt x="-500" y="-700" on="0"/>
        <pt x="-385" y="-700" on="1"/>
        <pt x="-250" y="-700" on="0"/>
        <pt x="-250" y="-840" on="1"/>
        <pt x="-250" y="-900" on="1"/>
        <pt x="-250" y="-1050" on="0"/>
        <pt x="0" y="-1050" on="1"/>
        <pt x="250" y="-1050" on="0"/>
        <pt x="250" y="-900" on="1"/>
        <pt x="250" y="0" on="1"/>
        <pt x="100" y="0" on="1"/>
        <pt x="100" y="150" on="1"/>
        <pt x="250" y="150" on="1"/>
        <pt x="250" y="976" on="1"/>
        <pt x="250" y="1082" on="0"/>
        <pt x="50" y="1102" on="1"/>
        <pt x="202" y="1306" on="0"/>
        <pt x="256" y="1500" on="1"/>
        <pt x="363" y="1428" on="1"/>
        <pt x="434" y="1380" on="0"/>
        <pt x="493" y="1380" on="1"/>
        <pt x="523" y="1380" on="0"/>
        <pt x="550" y="1393" on="1"/>
        <pt x="550" y="1260" on="0"/>
        <pt x="488" y="1241" on="1"/>
        <pt x="473" y="1236" on="0"/>
        <pt x="455" y="1236" on="1"/>
        <pt x="400" y="1236" on="0"/>
        <pt x="321" y="1284" on="1"/>
        <pt x="266" y="1171" on="1"/>
        <pt x="400" y="1112" on="0"/>
        <pt x="400" y="976" on="1"/>
        <pt x="400" y="153" on="1"/>
        <pt x="472" y="162" on="0"/>
        <pt x="550" y="195" on="1"/>
        <pt x="508" y="35" on="0"/>
        <pt x="400" y="6" on="1"/>
      </contour>
    </TTGlyph>
    <TTGlyph name="glyph194" xMin="-870" yMin="1800" xMax="0" yMax="2250">
      <contour>
        <pt x="-870" y="2000" on="1"/>
        <pt x="-870" y="2250" on="0"/>
        <pt x="-550" y="2250" on="1"/>
        <pt x="-350" y="2250" on="0"/>
        <pt x="-175" y="2100" on="1"/>
        <pt x="0" y="1950" on="1"/>
        <pt x="0" y="1800" on="1"/>
        <pt x="-620" y="1800" on="1"/>
        <pt x="-870" y="1800" on="0"/>
      </contour>
      <contour>
        <pt x="-700" y="1950" on="0"/>
        <pt x="-620" y="1950" on="1"/>
        <pt x="-230" y="1950" on="1"/>
        <pt x="-349" y="2080" on="0"/>
        <pt x="-550" y="2080" on="1"/>
        <pt x="-700" y="2080" on="0"/>
        <pt x="-700" y="2000" on="1"/>
      </contour>
    </TTGlyph>
    <TTGlyph name="glyph195" xMin="-870" yMin="1800" xMax="0" yMax="2350">
      <contour>
        <pt x="-620" y="1950" on="1"/>
        <pt x="-230" y="1950" on="1"/>
        <pt x="-349" y="2080" on="0"/>
        <pt x="-550" y="2080" on="1"/>
        <pt x="-700" y="2080" on="0"/>
        <pt x="-700" y="2000" on="1"/>
        <pt x="-700" y="1950" on="0"/>
      </contour>
      <contour>
        <pt x="-620" y="1800" on="1"/>
        <pt x="-870" y="1800" on="0"/>
        <pt x="-870" y="2000" on="1"/>
        <pt x="-870" y="2250" on="0"/>
        <pt x="-550" y="2250" on="1"/>
        <pt x="-350" y="2250" on="0"/>
        <pt x="-175" y="2100" on="1"/>
        <pt x="-162" y="2089" on="0"/>
        <pt x="-150" y="2078" on="1"/>
        <pt x="-150" y="2350" on="1"/>
        <pt x="0" y="2350" on="1"/>
        <pt x="0" y="1800" on="1"/>
      </contour>
    </TTGlyph>
    <TTGlyph name="glyph196" xMin="-870" yMin="1800" xMax="0" yMax="2352">
      <contour>
        <pt x="-620" y="1950" on="1"/>
        <pt x="-230" y="1950" on="1"/>
        <pt x="-349" y="2080" on="0"/>
        <pt x="-550" y="2080" on="1"/>
        <pt x="-700" y="2080" on="0"/>
        <pt x="-700" y="2000" on="1"/>
        <pt x="-700" y="1950" on="0"/>
      </contour>
      <contour>
        <pt x="-230" y="2177" on="1"/>
        <pt x="-230" y="2150" on="0"/>
        <pt x="-216" y="2136" on="1"/>
        <pt x="-202" y="2122" on="0"/>
        <pt x="-175" y="2122" on="1"/>
        <pt x="-147" y="2122" on="0"/>
        <pt x="-133" y="2136" on="1"/>
        <pt x="-120" y="2150" on="0"/>
        <pt x="-120" y="2177" on="1"/>
        <pt x="-120" y="2205" on="0"/>
        <pt x="-133" y="2218" on="1"/>
        <pt x="-147" y="2232" on="0"/>
        <pt x="-175" y="2232" on="1"/>
        <pt x="-202" y="2232" on="0"/>
        <pt x="-216" y="2218" on="1"/>
        <pt x="-230" y="2205" on="0"/>
      </contour>
      <contour>
        <pt x="-81" y="2020" on="1"/>
        <pt x="0" y="1950" on="1"/>
        <pt x="0" y="1800" on="1"/>
        <pt x="-620" y="1800" on="1"/>
        <pt x="-870" y="1800" on="0"/>
        <pt x="-870" y="2000" on="1"/>
        <pt x="-870" y="2250" on="0"/>
        <pt x="-550" y="2250" on="1"/>
        <pt x="-445" y="2250" on="0"/>
        <pt x="-348" y="2209" on="1"/>
        <pt x="-341" y="2273" on="0"/>
        <pt x="-306" y="2308" on="1"/>
        <pt x="-262" y="2352" on="0"/>
        <pt x="-175" y="2352" on="1"/>
        <pt x="-87" y="2352" on="0"/>
        <pt x="-43" y="2308" on="1"/>
        <pt x="0" y="2265" on="0"/>
        <pt x="0" y="2177" on="1"/>
        <pt x="0" y="2089" on="0"/>
        <pt x="-43" y="2046" on="1"/>
        <pt x="-59" y="2030" on="0"/>
      </contour>
    </TTGlyph>
    <TTGlyph name="glyph197" xMin="-870" yMin="1800" xMax="0" yMax="2350">
      <contour>
        <pt x="-620" y="1950" on="1"/>
        <pt x="-230" y="1950" on="1"/>
        <pt x="-349" y="2080" on="0"/>
        <pt x="-550" y="2080" on="1"/>
        <pt x="-700" y="2080" on="0"/>
        <pt x="-700" y="2000" on="1"/>
        <pt x="-700" y="1950" on="0"/>
      </contour>
      <contour>
        <pt x="-400" y="2228" on="1"/>
        <pt x="-400" y="2350" on="1"/>
        <pt x="-250" y="2350" on="1"/>
        <pt x="-249" y="2157" on="1"/>
        <pt x="-211" y="2132" on="0"/>
        <pt x="-175" y="2100" on="1"/>
        <pt x="-162" y="2089" on="0"/>
        <pt x="-150" y="2078" on="1"/>
        <pt x="-150" y="2350" on="1"/>
        <pt x="0" y="2350" on="1"/>
        <pt x="0" y="1800" on="1"/>
        <pt x="-620" y="1800" on="1"/>
        <pt x="-870" y="1800" on="0"/>
        <pt x="-870" y="2000" on="1"/>
        <pt x="-870" y="2250" on="0"/>
        <pt x="-550" y="2250" on="1"/>
        <pt x="-473" y="2250" on="0"/>
      </contour>
    </TTGlyph>
    <TTGlyph name="glyph198" xMin="-645" yMin="1800" xMax="-195" yMax="2250">
      <contour>
        <pt x="-495" y="2025" on="1"/>
        <pt x="-495" y="1988" on="0"/>
        <pt x="-476" y="1969" on="1"/>
        <pt x="-457" y="1950" on="0"/>
        <pt x="-420" y="1950" on="1"/>
        <pt x="-382" y="1950" on="0"/>
        <pt x="-363" y="1969" on="1"/>
        <pt x="-345" y="1988" on="0"/>
        <pt x="-345" y="2025" on="1"/>
        <pt x="-345" y="2063" on="0"/>
        <pt x="-363" y="2081" on="1"/>
        <pt x="-382" y="2100" on="0"/>
        <pt x="-420" y="2100" on="1"/>
        <pt x="-457" y="2100" on="0"/>
        <pt x="-476" y="2081" on="1"/>
        <pt x="-495" y="2063" on="0"/>
      </contour>
      <contour>
        <pt x="-195" y="2025" on="1"/>
        <pt x="-195" y="1912" on="0"/>
        <pt x="-251" y="1856" on="1"/>
        <pt x="-307" y="1800" on="0"/>
        <pt x="-420" y="1800" on="1"/>
        <pt x="-533" y="1800" on="0"/>
        <pt x="-589" y="1856" on="1"/>
        <pt x="-645" y="1912" on="0"/>
        <pt x="-645" y="2025" on="1"/>
        <pt x="-645" y="2138" on="0"/>
        <pt x="-589" y="2194" on="1"/>
        <pt x="-533" y="2250" on="0"/>
        <pt x="-420" y="2250" on="1"/>
        <pt x="-307" y="2250" on="0"/>
        <pt x="-251" y="2194" on="1"/>
        <pt x="-195" y="2138" on="0"/>
      </contour>
    </TTGlyph>
    <TTGlyph name="glyph199" xMin="-645" yMin="1800" xMax="-195" yMax="2200">
      <contour>
        <pt x="-520" y="2200" on="1"/>
        <pt x="-520" y="1900" on="1"/>
        <pt x="-520" y="1820" on="0"/>
        <pt x="-582" y="1800" on="1"/>
        <pt x="-645" y="1820" on="0"/>
        <pt x="-645" y="1900" on="1"/>
        <pt x="-645" y="2200" on="1"/>
      </contour>
      <contour>
        <pt x="-195" y="2200" on="1"/>
        <pt x="-195" y="1900" on="1"/>
        <pt x="-195" y="1820" on="0"/>
        <pt x="-257" y="1800" on="1"/>
        <pt x="-320" y="1820" on="0"/>
        <pt x="-320" y="1900" on="1"/>
        <pt x="-320" y="2200" on="1"/>
      </contour>
    </TTGlyph>
    <TTGlyph name="glyph200" xMin="-650" yMin="1800" xMax="60" yMax="2347">
      <contour>
        <pt x="-500" y="1986" on="1"/>
        <pt x="-500" y="1958" on="0"/>
        <pt x="-488" y="1940" on="1"/>
        <pt x="-475" y="1921" on="0"/>
        <pt x="-440" y="1921" on="1"/>
        <pt x="-390" y="1921" on="0"/>
        <pt x="-390" y="1939" on="1"/>
        <pt x="-390" y="1950" on="0"/>
        <pt x="-320" y="1950" on="1"/>
        <pt x="-250" y="1950" on="0"/>
        <pt x="-250" y="1919" on="1"/>
        <pt x="-250" y="1860" on="0"/>
        <pt x="-294" y="1830" on="1"/>
        <pt x="-338" y="1800" on="0"/>
        <pt x="-435" y="1800" on="1"/>
        <pt x="-562" y="1800" on="0"/>
        <pt x="-606" y="1844" on="1"/>
        <pt x="-650" y="1888" on="0"/>
        <pt x="-650" y="1985" on="1"/>
        <pt x="-650" y="2092" on="0"/>
        <pt x="-530" y="2220" on="0"/>
        <pt x="-430" y="2220" on="1"/>
        <pt x="-303" y="2220" on="0"/>
        <pt x="-255" y="2161" on="1"/>
        <pt x="-179" y="2186" on="0"/>
        <pt x="-114" y="2230" on="1"/>
        <pt x="-50" y="2273" on="0"/>
        <pt x="-8" y="2345" on="1"/>
        <pt x="3" y="2347" on="1"/>
        <pt x="22" y="2347" on="0"/>
        <pt x="60" y="2248" on="0"/>
        <pt x="60" y="2234" on="1"/>
        <pt x="60" y="2220" on="0"/>
        <pt x="48" y="2210" on="1"/>
        <pt x="3" y="2147" on="0"/>
        <pt x="-57" y="2097" on="1"/>
        <pt x="-118" y="2048" on="0"/>
        <pt x="-193" y="2011" on="1"/>
        <pt x="-229" y="2000" on="0"/>
        <pt x="-263" y="2000" on="1"/>
        <pt x="-337" y="2070" on="0"/>
        <pt x="-400" y="2070" on="1"/>
        <pt x="-445" y="2070" on="0"/>
        <pt x="-472" y="2042" on="1"/>
        <pt x="-500" y="2013" on="0"/>
      </contour>
    </TTGlyph>
    <TTGlyph name="glyph201" xMin="-870" yMin="1800" xMax="360" yMax="2477">
      <contour>
        <pt x="-620" y="1950" on="1"/>
        <pt x="-230" y="1950" on="1"/>
        <pt x="-349" y="2080" on="0"/>
        <pt x="-550" y="2080" on="1"/>
        <pt x="-700" y="2080" on="0"/>
        <pt x="-700" y="2000" on="1"/>
        <pt x="-700" y="1950" on="0"/>
      </contour>
      <contour>
        <pt x="-57" y="1986" on="1"/>
        <pt x="0" y="1918" on="1"/>
        <pt x="0" y="1800" on="1"/>
        <pt x="-620" y="1800" on="1"/>
        <pt x="-870" y="1800" on="0"/>
        <pt x="-870" y="2000" on="1"/>
        <pt x="-870" y="2250" on="0"/>
        <pt x="-550" y="2250" on="1"/>
        <pt x="-443" y="2250" on="0"/>
        <pt x="-344" y="2208" on="1"/>
        <pt x="-333" y="2253" on="0"/>
        <pt x="-305" y="2291" on="1"/>
        <pt x="-260" y="2350" on="0"/>
        <pt x="-130" y="2350" on="1"/>
        <pt x="-3" y="2350" on="0"/>
        <pt x="45" y="2291" on="1"/>
        <pt x="121" y="2316" on="0"/>
        <pt x="186" y="2360" on="1"/>
        <pt x="250" y="2403" on="0"/>
        <pt x="292" y="2475" on="1"/>
        <pt x="303" y="2477" on="1"/>
        <pt x="322" y="2477" on="0"/>
        <pt x="345" y="2448" on="1"/>
        <pt x="360" y="2428" on="0"/>
        <pt x="360" y="2414" on="1"/>
        <pt x="360" y="2400" on="0"/>
        <pt x="348" y="2390" on="1"/>
        <pt x="303" y="2327" on="0"/>
        <pt x="243" y="2277" on="1"/>
        <pt x="182" y="2228" on="0"/>
        <pt x="107" y="2191" on="1"/>
        <pt x="71" y="2180" on="0"/>
        <pt x="37" y="2180" on="1"/>
        <pt x="-37" y="2250" on="0"/>
        <pt x="-100" y="2250" on="1"/>
        <pt x="-145" y="2250" on="0"/>
        <pt x="-172" y="2222" on="1"/>
        <pt x="-200" y="2193" on="0"/>
        <pt x="-200" y="2156" on="1"/>
        <pt x="-200" y="2133" on="0"/>
        <pt x="-195" y="2117" on="1"/>
        <pt x="-185" y="2109" on="0"/>
        <pt x="-175" y="2100" on="1"/>
        <pt x="-164" y="2091" on="0"/>
        <pt x="-154" y="2082" on="1"/>
        <pt x="-147" y="2081" on="0"/>
        <pt x="-140" y="2081" on="1"/>
        <pt x="-90" y="2081" on="0"/>
        <pt x="-90" y="2099" on="1"/>
        <pt x="-90" y="2130" on="0"/>
        <pt x="-20" y="2130" on="1"/>
        <pt x="50" y="2130" on="0"/>
        <pt x="50" y="2099" on="1"/>
        <pt x="50" y="2040" on="0"/>
        <pt x="6" y="2010" on="1"/>
        <pt x="-18" y="1994" on="0"/>
      </contour>
    </TTGlyph>
    <TTGlyph name="glyph202" xMin="-800" yMin="-650" xMax="0" yMax="-100">
      <contour>
        <pt x="-650" y="-400" on="1"/>
        <pt x="-650" y="-650" on="1"/>
        <pt x="-800" y="-650" on="1"/>
        <pt x="-800" y="-400" on="1"/>
        <pt x="-800" y="-100" on="0"/>
        <pt x="-400" y="-100" on="1"/>
        <pt x="0" y="-100" on="0"/>
        <pt x="0" y="-400" on="1"/>
        <pt x="0" y="-650" on="1"/>
        <pt x="-150" y="-650" on="1"/>
        <pt x="-150" y="-400" on="1"/>
        <pt x="-150" y="-250" on="0"/>
        <pt x="-400" y="-250" on="1"/>
        <pt x="-650" y="-250" on="0"/>
      </contour>
    </TTGlyph>
    <TTGlyph name="glyph203" xMin="-800" yMin="-650" xMax="0" yMax="-51">
      <contour>
        <pt x="-400" y="-650" on="1"/>
        <pt x="-600" y="-650" on="0"/>
        <pt x="-700" y="-602" on="1"/>
        <pt x="-800" y="-556" on="0"/>
        <pt x="-800" y="-464" on="1"/>
        <pt x="-800" y="-386" on="0"/>
        <pt x="-733" y="-377" on="1"/>
        <pt x="-418" y="-333" on="1"/>
        <pt x="-282" y="-315" on="0"/>
        <pt x="-153" y="-263" on="0"/>
        <pt x="-153" y="-226" on="1"/>
        <pt x="-153" y="-198" on="0"/>
        <pt x="-276" y="-150" on="0"/>
        <pt x="-400" y="-150" on="1"/>
        <pt x="-566" y="-150" on="0"/>
        <pt x="-650" y="-222" on="0"/>
        <pt x="-650" y="-300" on="1"/>
        <pt x="-800" y="-300" on="0"/>
        <pt x="-800" y="-208" on="1"/>
        <pt x="-800" y="-139" on="0"/>
        <pt x="-550" y="-51" on="0"/>
        <pt x="-400" y="-51" on="1"/>
        <pt x="-240" y="-51" on="0"/>
        <pt x="0" y="-156" on="0"/>
        <pt x="0" y="-221" on="1"/>
        <pt x="0" y="-297" on="0"/>
        <pt x="-87" y="-347" on="1"/>
        <pt x="-174" y="-397" on="0"/>
        <pt x="-348" y="-420" on="1"/>
        <pt x="-651" y="-462" on="1"/>
        <pt x="-651" y="-509" on="0"/>
        <pt x="-526" y="-550" on="0"/>
        <pt x="-400" y="-550" on="1"/>
        <pt x="-275" y="-550" on="0"/>
        <pt x="-150" y="-500" on="0"/>
        <pt x="-150" y="-445" on="1"/>
        <pt x="0" y="-408" on="1"/>
        <pt x="0" y="-528" on="0"/>
        <pt x="-100" y="-588" on="1"/>
        <pt x="-200" y="-650" on="0"/>
      </contour>
    </TTGlyph>
    <TTGlyph name="glyph204" xMin="-800" yMin="-650" xMax="0" yMax="-100">
      <contour>
        <pt x="-650" y="-550" on="1"/>
        <pt x="-550" y="-455" on="1"/>
        <pt x="-449" y="-360" on="0"/>
        <pt x="-400" y="-360" on="1"/>
        <pt x="-300" y="-360" on="0"/>
        <pt x="-300" y="-435" on="1"/>
        <pt x="-300" y="-510" on="0"/>
        <pt x="-400" y="-510" on="1"/>
        <pt x="-450" y="-510" on="0"/>
        <pt x="-513" y="-550" on="1"/>
        <pt x="-608" y="-650" on="1"/>
        <pt x="-800" y="-650" on="1"/>
        <pt x="-800" y="-400" on="1"/>
        <pt x="-800" y="-100" on="0"/>
        <pt x="-400" y="-100" on="1"/>
        <pt x="0" y="-100" on="0"/>
        <pt x="0" y="-400" on="1"/>
        <pt x="0" y="-650" on="1"/>
        <pt x="-150" y="-650" on="1"/>
        <pt x="-150" y="-400" on="1"/>
        <pt x="-150" y="-250" on="0"/>
        <pt x="-400" y="-250" on="1"/>
        <pt x="-650" y="-250" on="0"/>
        <pt x="-650" y="-400" on="1"/>
      </contour>
    </TTGlyph>
    <TTGlyph name="glyph205" xMin="-800" yMin="-650" xMax="0" yMax="-100">
      <contour>
        <pt x="-500" y="-650" on="1"/>
        <pt x="-650" y="-650" on="0"/>
        <pt x="-725" y="-588" on="1"/>
        <pt x="-800" y="-525" on="0"/>
        <pt x="-800" y="-400" on="1"/>
        <pt x="-800" y="-300" on="0"/>
        <pt x="-763" y="-250" on="1"/>
        <pt x="-725" y="-200" on="0"/>
        <pt x="-650" y="-200" on="1"/>
        <pt x="-600" y="-200" on="0"/>
        <pt x="-575" y="-225" on="1"/>
        <pt x="-550" y="-250" on="0"/>
        <pt x="-550" y="-300" on="1"/>
        <pt x="-600" y="-300" on="0"/>
        <pt x="-625" y="-325" on="1"/>
        <pt x="-650" y="-350" on="0"/>
        <pt x="-650" y="-400" on="1"/>
        <pt x="-650" y="-500" on="0"/>
        <pt x="-500" y="-500" on="1"/>
        <pt x="-343" y="-500" on="0"/>
        <pt x="-156" y="-302" on="0"/>
        <pt x="-98" y="-150" on="1"/>
        <pt x="-95" y="-125" on="0"/>
        <pt x="-83" y="-112" on="1"/>
        <pt x="-71" y="-100" on="0"/>
        <pt x="-50" y="-100" on="1"/>
        <pt x="0" y="-100" on="0"/>
        <pt x="0" y="-150" on="1"/>
        <pt x="-13" y="-200" on="0"/>
        <pt x="-50" y="-312" on="1"/>
        <pt x="-87" y="-425" on="0"/>
        <pt x="-150" y="-500" on="1"/>
        <pt x="-213" y="-575" on="0"/>
        <pt x="-300" y="-612" on="1"/>
        <pt x="-387" y="-650" on="0"/>
      </contour>
    </TTGlyph>
    <TTGlyph name="glyph206" xMin="-780" yMin="-650" xMax="120" yMax="-100">
      <contour>
        <pt x="-400" y="-100" on="1"/>
        <pt x="-343" y="-100" on="0"/>
        <pt x="-343" y="-156" on="1"/>
        <pt x="-343" y="-175" on="0"/>
        <pt x="-350" y="-200" on="1"/>
        <pt x="-376" y="-300" on="0"/>
        <pt x="-452" y="-368" on="1"/>
        <pt x="-528" y="-436" on="0"/>
        <pt x="-630" y="-465" on="1"/>
        <pt x="-630" y="-500" on="0"/>
        <pt x="-480" y="-500" on="1"/>
        <pt x="-301" y="-492" on="0"/>
        <pt x="-192" y="-386" on="1"/>
        <pt x="-280" y="-352" on="0"/>
        <pt x="-280" y="-270" on="1"/>
        <pt x="-280" y="-200" on="0"/>
        <pt x="-243" y="-166" on="1"/>
        <pt x="-205" y="-131" on="0"/>
        <pt x="-130" y="-131" on="1"/>
        <pt x="-65" y="-131" on="0"/>
        <pt x="-33" y="-166" on="1"/>
        <pt x="0" y="-200" on="0"/>
        <pt x="0" y="-270" on="1"/>
        <pt x="0" y="-288" on="0"/>
        <pt x="-16" y="-316" on="1"/>
        <pt x="20" y="-316" on="1"/>
        <pt x="47" y="-316" on="0"/>
        <pt x="120" y="-279" on="1"/>
        <pt x="120" y="-372" on="0"/>
        <pt x="18" y="-409" on="1"/>
        <pt x="-30" y="-409" on="1"/>
        <pt x="-43" y="-409" on="0"/>
        <pt x="-68" y="-408" on="0"/>
        <pt x="-79" y="-407" on="1"/>
        <pt x="-92" y="-424" on="0"/>
        <pt x="-123" y="-462" on="0"/>
        <pt x="-140" y="-483" on="1"/>
        <pt x="-210" y="-566" on="0"/>
        <pt x="-295" y="-608" on="1"/>
        <pt x="-380" y="-650" on="0"/>
        <pt x="-480" y="-650" on="1"/>
        <pt x="-630" y="-650" on="0"/>
        <pt x="-705" y="-604" on="1"/>
        <pt x="-780" y="-558" on="0"/>
        <pt x="-780" y="-465" on="1"/>
        <pt x="-780" y="-370" on="0"/>
        <pt x="-730" y="-364" on="1"/>
        <pt x="-665" y="-350" on="0"/>
        <pt x="-601" y="-314" on="1"/>
        <pt x="-537" y="-278" on="0"/>
        <pt x="-515" y="-220" on="1"/>
        <pt x="-486" y="-148" on="1"/>
        <pt x="-476" y="-100" on="0"/>
      </contour>
      <contour>
        <pt x="-100" y="-270" on="1"/>
        <pt x="-94" y="-258" on="0"/>
        <pt x="-94" y="-249" on="1"/>
        <pt x="-94" y="-227" on="0"/>
        <pt x="-130" y="-227" on="1"/>
        <pt x="-180" y="-227" on="0"/>
        <pt x="-180" y="-270" on="1"/>
        <pt x="-180" y="-298" on="0"/>
        <pt x="-125" y="-308" on="1"/>
        <pt x="-107" y="-286" on="0"/>
      </contour>
    </TTGlyph>
    <TTGlyph name="glyph207" xMin="-800" yMin="-650" xMax="0" yMax="-100">
      <contour>
        <pt x="-650" y="-100" on="1"/>
        <pt x="-650" y="-263" on="1"/>
        <pt x="-616" y="-250" on="0"/>
        <pt x="-575" y="-250" on="1"/>
        <pt x="-360" y="-250" on="0"/>
        <pt x="-360" y="-450" on="1"/>
        <pt x="-360" y="-500" on="0"/>
        <pt x="-255" y="-500" on="1"/>
        <pt x="-150" y="-500" on="0"/>
        <pt x="-150" y="-450" on="1"/>
        <pt x="-150" y="-356" on="1"/>
        <pt x="-162" y="-356" on="1"/>
        <pt x="-280" y="-356" on="0"/>
        <pt x="-290" y="-277" on="1"/>
        <pt x="-293" y="-256" on="0"/>
        <pt x="-293" y="-237" on="1"/>
        <pt x="-293" y="-183" on="0"/>
        <pt x="-271" y="-147" on="1"/>
        <pt x="-242" y="-100" on="0"/>
        <pt x="-150" y="-100" on="1"/>
        <pt x="0" y="-100" on="0"/>
        <pt x="0" y="-200" on="1"/>
        <pt x="0" y="-450" on="1"/>
        <pt x="0" y="-650" on="0"/>
        <pt x="-255" y="-650" on="1"/>
        <pt x="-510" y="-650" on="0"/>
        <pt x="-510" y="-450" on="1"/>
        <pt x="-510" y="-400" on="0"/>
        <pt x="-575" y="-400" on="1"/>
        <pt x="-650" y="-400" on="0"/>
        <pt x="-650" y="-550" on="1"/>
        <pt x="-650" y="-650" on="1"/>
        <pt x="-800" y="-650" on="1"/>
        <pt x="-800" y="-100" on="1"/>
      </contour>
    </TTGlyph>
    <TTGlyph name="glyph208" xMin="-907" yMin="-650" xMax="90" yMax="-100">
      <contour>
        <pt x="-207" y="-200" on="1"/>
        <pt x="-232" y="-200" on="0"/>
        <pt x="-244" y="-212" on="1"/>
        <pt x="-257" y="-225" on="0"/>
        <pt x="-257" y="-250" on="1"/>
        <pt x="-257" y="-300" on="0"/>
        <pt x="-209" y="-300" on="1"/>
        <pt x="-172" y="-300" on="1"/>
        <pt x="-161" y="-300" on="0"/>
        <pt x="-160" y="-299" on="1"/>
        <pt x="-171" y="-200" on="0"/>
      </contour>
      <contour>
        <pt x="65" y="-258" on="1"/>
        <pt x="90" y="-258" on="0"/>
        <pt x="90" y="-291" on="1"/>
        <pt x="90" y="-336" on="0"/>
        <pt x="40" y="-356" on="1"/>
        <pt x="29" y="-360" on="0"/>
        <pt x="6" y="-368" on="0"/>
        <pt x="-7" y="-372" on="1"/>
        <pt x="-7" y="-380" on="1"/>
        <pt x="-7" y="-465" on="0"/>
        <pt x="-58" y="-558" on="1"/>
        <pt x="-108" y="-650" on="0"/>
        <pt x="-209" y="-650" on="1"/>
        <pt x="-260" y="-650" on="0"/>
        <pt x="-313" y="-624" on="1"/>
        <pt x="-366" y="-597" on="0"/>
        <pt x="-420" y="-544" on="1"/>
        <pt x="-457" y="-509" on="1"/>
        <pt x="-496" y="-544" on="1"/>
        <pt x="-556" y="-598" on="0"/>
        <pt x="-606" y="-624" on="1"/>
        <pt x="-656" y="-650" on="0"/>
        <pt x="-707" y="-650" on="1"/>
        <pt x="-807" y="-650" on="0"/>
        <pt x="-857" y="-557" on="1"/>
        <pt x="-907" y="-464" on="0"/>
        <pt x="-907" y="-379" on="1"/>
        <pt x="-907" y="-240" on="0"/>
        <pt x="-857" y="-170" on="1"/>
        <pt x="-807" y="-100" on="0"/>
        <pt x="-707" y="-100" on="1"/>
        <pt x="-657" y="-100" on="0"/>
        <pt x="-657" y="-150" on="1"/>
        <pt x="-657" y="-200" on="0"/>
        <pt x="-707" y="-200" on="1"/>
        <pt x="-732" y="-200" on="0"/>
        <pt x="-744" y="-245" on="1"/>
        <pt x="-757" y="-290" on="0"/>
        <pt x="-757" y="-379" on="1"/>
        <pt x="-757" y="-414" on="0"/>
        <pt x="-732" y="-500" on="0"/>
        <pt x="-707" y="-500" on="1"/>
        <pt x="-682" y="-500" on="0"/>
        <pt x="-558" y="-435" on="0"/>
        <pt x="-457" y="-322" on="1"/>
        <pt x="-359" y="-435" on="0"/>
        <pt x="-259" y="-500" on="0"/>
        <pt x="-207" y="-500" on="1"/>
        <pt x="-183" y="-500" on="0"/>
        <pt x="-158" y="-424" on="0"/>
        <pt x="-157" y="-398" on="1"/>
        <pt x="-169" y="-399" on="0"/>
        <pt x="-194" y="-400" on="0"/>
        <pt x="-207" y="-400" on="1"/>
        <pt x="-282" y="-400" on="0"/>
        <pt x="-320" y="-362" on="1"/>
        <pt x="-357" y="-325" on="0"/>
        <pt x="-357" y="-250" on="1"/>
        <pt x="-357" y="-175" on="0"/>
        <pt x="-320" y="-138" on="1"/>
        <pt x="-282" y="-100" on="0"/>
        <pt x="-207" y="-100" on="1"/>
        <pt x="-127" y="-100" on="0"/>
        <pt x="-79" y="-145" on="1"/>
        <pt x="-31" y="-190" on="0"/>
        <pt x="-15" y="-279" on="1"/>
        <pt x="-1" y="-275" on="0"/>
        <pt x="27" y="-268" on="0"/>
        <pt x="40" y="-263" on="1"/>
        <pt x="46" y="-262" on="0"/>
        <pt x="55" y="-260" on="0"/>
        <pt x="58" y="-259" on="1"/>
        <pt x="62" y="-258" on="0"/>
      </contour>
    </TTGlyph>
    <TTGlyph name="glyph209" xMin="-1000" yMin="-600" xMax="0" yMax="-100">
      <contour>
        <pt x="0" y="-300" on="1"/>
        <pt x="0" y="-450" on="0"/>
        <pt x="-67" y="-525" on="1"/>
        <pt x="-135" y="-600" on="0"/>
        <pt x="-270" y="-600" on="1"/>
        <pt x="-383" y="-600" on="0"/>
        <pt x="-467" y="-564" on="1"/>
        <pt x="-551" y="-528" on="0"/>
        <pt x="-606" y="-455" on="1"/>
        <pt x="-685" y="-352" on="0"/>
        <pt x="-745" y="-301" on="1"/>
        <pt x="-807" y="-250" on="0"/>
        <pt x="-850" y="-250" on="1"/>
        <pt x="-903" y="-250" on="0"/>
        <pt x="-940" y="-272" on="1"/>
        <pt x="-977" y="-295" on="0"/>
        <pt x="-1000" y="-340" on="1"/>
        <pt x="-1000" y="-290" on="1"/>
        <pt x="-1000" y="-240" on="0"/>
        <pt x="-962" y="-195" on="1"/>
        <pt x="-925" y="-150" on="0"/>
        <pt x="-850" y="-150" on="1"/>
        <pt x="-751" y="-150" on="0"/>
        <pt x="-659" y="-205" on="1"/>
        <pt x="-567" y="-260" on="0"/>
        <pt x="-482" y="-371" on="1"/>
        <pt x="-423" y="-450" on="0"/>
        <pt x="-270" y="-450" on="1"/>
        <pt x="-150" y="-450" on="0"/>
        <pt x="-150" y="-300" on="1"/>
        <pt x="-150" y="-250" on="0"/>
        <pt x="-175" y="-225" on="1"/>
        <pt x="-200" y="-200" on="0"/>
        <pt x="-250" y="-200" on="1"/>
        <pt x="-250" y="-150" on="0"/>
        <pt x="-225" y="-125" on="1"/>
        <pt x="-200" y="-100" on="0"/>
        <pt x="-150" y="-100" on="1"/>
        <pt x="-75" y="-100" on="0"/>
        <pt x="-37" y="-150" on="1"/>
        <pt x="0" y="-200" on="0"/>
      </contour>
    </TTGlyph>
    <TTGlyph name="glyph210" xMin="-800" yMin="-650" xMax="0" yMax="-100">
      <contour>
        <pt x="-650" y="-370" on="1"/>
        <pt x="-620" y="-370" on="1"/>
        <pt x="-480" y="-370" on="0"/>
        <pt x="-480" y="-500" on="1"/>
        <pt x="-480" y="-650" on="0"/>
        <pt x="-650" y="-650" on="1"/>
        <pt x="-800" y="-650" on="1"/>
        <pt x="-800" y="-370" on="1"/>
        <pt x="-800" y="-100" on="0"/>
        <pt x="-400" y="-100" on="1"/>
        <pt x="0" y="-100" on="0"/>
        <pt x="0" y="-370" on="1"/>
        <pt x="0" y="-650" on="1"/>
        <pt x="-150" y="-650" on="1"/>
        <pt x="-150" y="-370" on="1"/>
        <pt x="-150" y="-250" on="0"/>
        <pt x="-400" y="-250" on="1"/>
        <pt x="-650" y="-250" on="0"/>
      </contour>
      <contour>
        <pt x="-650" y="-470" on="1"/>
        <pt x="-650" y="-550" on="1"/>
        <pt x="-580" y="-550" on="0"/>
        <pt x="-580" y="-501" on="1"/>
        <pt x="-580" y="-470" on="0"/>
        <pt x="-620" y="-470" on="1"/>
      </contour>
    </TTGlyph>
    <TTGlyph name="glyph211" xMin="-799" yMin="-650" xMax="0" yMax="-70">
      <contour>
        <pt x="-200" y="-145" on="1"/>
        <pt x="-200" y="-108" on="0"/>
        <pt x="-175" y="-89" on="1"/>
        <pt x="-150" y="-70" on="0"/>
        <pt x="-100" y="-70" on="1"/>
        <pt x="-50" y="-70" on="0"/>
        <pt x="-25" y="-108" on="1"/>
        <pt x="0" y="-145" on="0"/>
        <pt x="0" y="-220" on="1"/>
        <pt x="0" y="-557" on="1"/>
        <pt x="0" y="-604" on="0"/>
        <pt x="-27" y="-627" on="1"/>
        <pt x="-53" y="-650" on="0"/>
        <pt x="-107" y="-650" on="1"/>
        <pt x="-393" y="-512" on="1"/>
        <pt x="-496" y="-611" on="1"/>
        <pt x="-534" y="-650" on="0"/>
        <pt x="-555" y="-650" on="1"/>
        <pt x="-576" y="-650" on="0"/>
        <pt x="-604" y="-607" on="1"/>
        <pt x="-774" y="-402" on="1"/>
        <pt x="-799" y="-365" on="0"/>
        <pt x="-799" y="-321" on="1"/>
        <pt x="-799" y="-259" on="0"/>
        <pt x="-711" y="-246" on="1"/>
        <pt x="-620" y="-233" on="0"/>
        <pt x="-547" y="-227" on="1"/>
        <pt x="-473" y="-221" on="0"/>
        <pt x="-410" y="-221" on="1"/>
        <pt x="-149" y="-221" on="1"/>
        <pt x="-175" y="-220" on="0"/>
        <pt x="-187" y="-201" on="1"/>
        <pt x="-200" y="-182" on="0"/>
      </contour>
      <contour>
        <pt x="-150" y="-341" on="1"/>
        <pt x="-423" y="-341" on="1"/>
        <pt x="-463" y="-341" on="0"/>
        <pt x="-519" y="-346" on="1"/>
        <pt x="-574" y="-352" on="0"/>
        <pt x="-629" y="-364" on="1"/>
        <pt x="-539" y="-480" on="1"/>
        <pt x="-399" y="-373" on="1"/>
        <pt x="-150" y="-470" on="1"/>
      </contour>
    </TTGlyph>
    <TTGlyph name="glyph212" xMin="-800" yMin="-675" xMax="0" yMax="-50">
      <contour>
        <pt x="-650" y="-221" on="1"/>
        <pt x="-580" y="-221" on="0"/>
        <pt x="-580" y="-252" on="1"/>
        <pt x="-580" y="-287" on="0"/>
        <pt x="-650" y="-349" on="0"/>
        <pt x="-725" y="-349" on="1"/>
        <pt x="-800" y="-349" on="0"/>
        <pt x="-800" y="-284" on="1"/>
        <pt x="-800" y="-231" on="1"/>
        <pt x="-800" y="-178" on="0"/>
        <pt x="-715" y="-114" on="1"/>
        <pt x="-630" y="-50" on="0"/>
        <pt x="-580" y="-50" on="1"/>
        <pt x="-530" y="-50" on="0"/>
        <pt x="-400" y="-146" on="1"/>
        <pt x="-270" y="-50" on="0"/>
        <pt x="-220" y="-50" on="1"/>
        <pt x="-170" y="-50" on="0"/>
        <pt x="-85" y="-114" on="1"/>
        <pt x="0" y="-178" on="0"/>
        <pt x="0" y="-239" on="1"/>
        <pt x="0" y="-295" on="0"/>
        <pt x="-65" y="-335" on="1"/>
        <pt x="-129" y="-374" on="0"/>
        <pt x="-261" y="-409" on="1"/>
        <pt x="-650" y="-512" on="1"/>
        <pt x="-600" y="-533" on="0"/>
        <pt x="-525" y="-533" on="1"/>
        <pt x="-451" y="-533" on="0"/>
        <pt x="-339" y="-514" on="1"/>
        <pt x="-227" y="-495" on="0"/>
        <pt x="-150" y="-416" on="1"/>
        <pt x="0" y="-392" on="1"/>
        <pt x="0" y="-589" on="1"/>
        <pt x="0" y="-632" on="0"/>
        <pt x="-25" y="-653" on="1"/>
        <pt x="-50" y="-675" on="0"/>
        <pt x="-200" y="-675" on="1"/>
        <pt x="-150" y="-632" on="0"/>
        <pt x="-150" y="-589" on="1"/>
        <pt x="-150" y="-547" on="1"/>
        <pt x="-239" y="-597" on="0"/>
        <pt x="-465" y="-650" on="0"/>
        <pt x="-600" y="-650" on="1"/>
        <pt x="-700" y="-650" on="0"/>
        <pt x="-800" y="-580" on="0"/>
        <pt x="-800" y="-511" on="1"/>
        <pt x="-800" y="-436" on="0"/>
        <pt x="-733" y="-420" on="1"/>
        <pt x="-284" y="-307" on="1"/>
        <pt x="-217" y="-287" on="0"/>
        <pt x="-183" y="-265" on="1"/>
        <pt x="-150" y="-244" on="0"/>
        <pt x="-150" y="-219" on="1"/>
        <pt x="-150" y="-188" on="0"/>
        <pt x="-177" y="-174" on="1"/>
        <pt x="-205" y="-161" on="0"/>
        <pt x="-228" y="-161" on="1"/>
        <pt x="-252" y="-161" on="0"/>
        <pt x="-400" y="-275" on="1"/>
        <pt x="-556" y="-161" on="0"/>
        <pt x="-579" y="-161" on="1"/>
        <pt x="-602" y="-161" on="0"/>
        <pt x="-626" y="-175" on="1"/>
        <pt x="-650" y="-189" on="0"/>
      </contour>
    </TTGlyph>
    <TTGlyph name="glyph213" xMin="-800" yMin="-650" xMax="0" yMax="-100">
      <contour>
        <pt x="-650" y="-370" on="1"/>
        <pt x="-620" y="-370" on="1"/>
        <pt x="-480" y="-370" on="0"/>
        <pt x="-480" y="-500" on="1"/>
        <pt x="-480" y="-650" on="0"/>
        <pt x="-650" y="-650" on="1"/>
        <pt x="-800" y="-650" on="1"/>
        <pt x="-800" y="-370" on="1"/>
        <pt x="-800" y="-100" on="0"/>
        <pt x="-400" y="-100" on="1"/>
        <pt x="0" y="-100" on="0"/>
        <pt x="0" y="-370" on="1"/>
        <pt x="0" y="-650" on="1"/>
        <pt x="-150" y="-650" on="1"/>
        <pt x="-150" y="-370" on="1"/>
        <pt x="-150" y="-250" on="0"/>
        <pt x="-400" y="-250" on="1"/>
        <pt x="-650" y="-250" on="0"/>
      </contour>
      <contour>
        <pt x="-650" y="-470" on="1"/>
        <pt x="-650" y="-550" on="1"/>
        <pt x="-580" y="-550" on="0"/>
        <pt x="-580" y="-501" on="1"/>
        <pt x="-580" y="-470" on="0"/>
        <pt x="-620" y="-470" on="1"/>
      </contour>
    </TTGlyph>
    <TTGlyph name="glyph214" xMin="-1000" yMin="-650" xMax="0" yMax="-100">
      <contour>
        <pt x="-1000" y="-400" on="1"/>
        <pt x="-1000" y="-275" on="0"/>
        <pt x="-912" y="-188" on="1"/>
        <pt x="-825" y="-100" on="0"/>
        <pt x="-650" y="-100" on="1"/>
        <pt x="-486" y="-100" on="0"/>
        <pt x="-368" y="-184" on="1"/>
        <pt x="-252" y="-267" on="0"/>
        <pt x="-199" y="-367" on="1"/>
        <pt x="-147" y="-467" on="0"/>
        <pt x="-102" y="-508" on="1"/>
        <pt x="-56" y="-550" on="0"/>
        <pt x="0" y="-550" on="1"/>
        <pt x="0" y="-650" on="0"/>
        <pt x="-50" y="-650" on="1"/>
        <pt x="-150" y="-650" on="0"/>
        <pt x="-216" y="-604" on="1"/>
        <pt x="-282" y="-558" on="0"/>
        <pt x="-325" y="-458" on="1"/>
        <pt x="-368" y="-358" on="0"/>
        <pt x="-536" y="-250" on="0"/>
        <pt x="-650" y="-250" on="1"/>
        <pt x="-750" y="-250" on="0"/>
        <pt x="-850" y="-335" on="0"/>
        <pt x="-850" y="-400" on="1"/>
        <pt x="-850" y="-475" on="0"/>
        <pt x="-812" y="-512" on="1"/>
        <pt x="-775" y="-550" on="0"/>
        <pt x="-700" y="-550" on="1"/>
        <pt x="-700" y="-600" on="0"/>
        <pt x="-725" y="-625" on="1"/>
        <pt x="-750" y="-650" on="0"/>
        <pt x="-800" y="-650" on="1"/>
        <pt x="-900" y="-650" on="0"/>
        <pt x="-950" y="-588" on="1"/>
        <pt x="-1000" y="-525" on="0"/>
      </contour>
    </TTGlyph>
    <TTGlyph name="glyph215" xMin="-800" yMin="-650" xMax="0" yMax="-100">
      <contour>
        <pt x="-400" y="-196" on="1"/>
        <pt x="-400" y="-184" on="0"/>
        <pt x="-450" y="-184" on="1"/>
        <pt x="-450" y="-142" on="0"/>
        <pt x="-425" y="-121" on="1"/>
        <pt x="-400" y="-100" on="0"/>
        <pt x="-350" y="-100" on="1"/>
        <pt x="-300" y="-100" on="0"/>
        <pt x="-275" y="-121" on="1"/>
        <pt x="-250" y="-142" on="0"/>
        <pt x="-250" y="-184" on="1"/>
        <pt x="-250" y="-225" on="0"/>
        <pt x="-296" y="-297" on="1"/>
        <pt x="-342" y="-370" on="0"/>
        <pt x="-425" y="-417" on="1"/>
        <pt x="-509" y="-464" on="0"/>
        <pt x="-630" y="-491" on="1"/>
        <pt x="-630" y="-521" on="0"/>
        <pt x="-565" y="-521" on="1"/>
        <pt x="-549" y="-521" on="0"/>
        <pt x="-529" y="-519" on="1"/>
        <pt x="-429" y="-510" on="0"/>
        <pt x="-313" y="-435" on="1"/>
        <pt x="-197" y="-360" on="0"/>
        <pt x="-169" y="-289" on="1"/>
        <pt x="-141" y="-219" on="0"/>
        <pt x="-119" y="-202" on="1"/>
        <pt x="-97" y="-184" on="0"/>
        <pt x="-65" y="-184" on="1"/>
        <pt x="0" y="-184" on="0"/>
        <pt x="0" y="-226" on="1"/>
        <pt x="0" y="-564" on="1"/>
        <pt x="0" y="-606" on="0"/>
        <pt x="-49" y="-627" on="1"/>
        <pt x="-97" y="-649" on="0"/>
        <pt x="-195" y="-649" on="1"/>
        <pt x="-150" y="-606" on="0"/>
        <pt x="-150" y="-564" on="1"/>
        <pt x="-150" y="-468" on="1"/>
        <pt x="-211" y="-553" on="0"/>
        <pt x="-412" y="-650" on="0"/>
        <pt x="-501" y="-650" on="1"/>
        <pt x="-625" y="-650" on="0"/>
        <pt x="-800" y="-568" on="0"/>
        <pt x="-800" y="-488" on="1"/>
        <pt x="-800" y="-420" on="0"/>
        <pt x="-750" y="-407" on="1"/>
        <pt x="-550" y="-352" on="0"/>
        <pt x="-400" y="-222" on="0"/>
      </contour>
    </TTGlyph>
    <TTGlyph name="glyph216" xMin="-829" yMin="-650" xMax="0" yMax="-102">
      <contour>
        <pt x="-190" y="-175" on="1"/>
        <pt x="-198" y="-240" on="0"/>
        <pt x="-308" y="-324" on="1"/>
        <pt x="-357" y="-360" on="0"/>
        <pt x="-387" y="-374" on="1"/>
        <pt x="-282" y="-409" on="0"/>
        <pt x="-230" y="-409" on="1"/>
        <pt x="-197" y="-409" on="0"/>
        <pt x="-186" y="-394" on="1"/>
        <pt x="-161" y="-357" on="0"/>
        <pt x="-152" y="-277" on="1"/>
        <pt x="-150" y="-257" on="0"/>
        <pt x="-150" y="-242" on="1"/>
        <pt x="-150" y="-201" on="0"/>
        <pt x="-168" y="-200" on="1"/>
        <pt x="-188" y="-198" on="0"/>
        <pt x="-188" y="-168" on="1"/>
        <pt x="-188" y="-162" on="0"/>
        <pt x="-187" y="-153" on="1"/>
        <pt x="-183" y="-114" on="0"/>
        <pt x="-139" y="-114" on="1"/>
        <pt x="-134" y="-114" on="0"/>
        <pt x="-128" y="-115" on="1"/>
        <pt x="-70" y="-120" on="0"/>
        <pt x="-32" y="-164" on="1"/>
        <pt x="0" y="-201" on="0"/>
        <pt x="0" y="-261" on="1"/>
        <pt x="0" y="-275" on="0"/>
        <pt x="-2" y="-291" on="1"/>
        <pt x="-17" y="-418" on="0"/>
        <pt x="-72" y="-477" on="1"/>
        <pt x="-120" y="-529" on="0"/>
        <pt x="-198" y="-529" on="1"/>
        <pt x="-210" y="-529" on="0"/>
        <pt x="-222" y="-528" on="1"/>
        <pt x="-241" y="-526" on="0"/>
        <pt x="-286" y="-514" on="0"/>
        <pt x="-311" y="-508" on="1"/>
        <pt x="-377" y="-489" on="1"/>
        <pt x="-388" y="-577" on="0"/>
        <pt x="-440" y="-617" on="1"/>
        <pt x="-483" y="-650" on="0"/>
        <pt x="-556" y="-650" on="1"/>
        <pt x="-571" y="-650" on="0"/>
        <pt x="-587" y="-649" on="1"/>
        <pt x="-716" y="-636" on="0"/>
        <pt x="-777" y="-594" on="1"/>
        <pt x="-829" y="-555" on="0"/>
        <pt x="-829" y="-495" on="1"/>
        <pt x="-829" y="-479" on="1"/>
        <pt x="-821" y="-414" on="0"/>
        <pt x="-769" y="-395" on="1"/>
        <pt x="-619" y="-365" on="0"/>
        <pt x="-510" y="-313" on="1"/>
        <pt x="-402" y="-262" on="0"/>
        <pt x="-317" y="-189" on="1"/>
        <pt x="-316" y="-182" on="0"/>
        <pt x="-316" y="-175" on="1"/>
        <pt x="-316" y="-144" on="0"/>
        <pt x="-337" y="-140" on="1"/>
        <pt x="-332" y="-102" on="0"/>
        <pt x="-272" y="-102" on="1"/>
        <pt x="-263" y="-102" on="0"/>
        <pt x="-252" y="-103" on="1"/>
        <pt x="-190" y="-109" on="0"/>
        <pt x="-190" y="-169" on="1"/>
      </contour>
      <contour>
        <pt x="-679" y="-492" on="1"/>
        <pt x="-679" y="-496" on="1"/>
        <pt x="-679" y="-522" on="0"/>
        <pt x="-628" y="-534" on="1"/>
        <pt x="-599" y="-541" on="0"/>
        <pt x="-573" y="-541" on="1"/>
        <pt x="-549" y="-541" on="0"/>
        <pt x="-527" y="-535" on="1"/>
        <pt x="-482" y="-523" on="0"/>
        <pt x="-477" y="-478" on="1"/>
        <pt x="-469" y="-414" on="1"/>
        <pt x="-517" y="-434" on="0"/>
        <pt x="-568" y="-453" on="1"/>
        <pt x="-620" y="-473" on="0"/>
      </contour>
    </TTGlyph>
    <TTGlyph name="glyph217" xMin="-810" yMin="-650" xMax="240" yMax="-50">
      <contour>
        <pt x="-560" y="-550" on="1"/>
        <pt x="-810" y="-550" on="0"/>
        <pt x="-810" y="-355" on="1"/>
        <pt x="-810" y="-150" on="0"/>
        <pt x="-560" y="-150" on="1"/>
        <pt x="-250" y="-150" on="1"/>
        <pt x="-250" y="-50" on="1"/>
        <pt x="-100" y="-50" on="1"/>
        <pt x="-100" y="-150" on="1"/>
        <pt x="240" y="-150" on="1"/>
        <pt x="240" y="-300" on="1"/>
        <pt x="-100" y="-300" on="1"/>
        <pt x="-100" y="-400" on="1"/>
        <pt x="-50" y="-400" on="0"/>
        <pt x="-25" y="-431" on="1"/>
        <pt x="0" y="-462" on="0"/>
        <pt x="0" y="-525" on="1"/>
        <pt x="0" y="-588" on="0"/>
        <pt x="-31" y="-619" on="1"/>
        <pt x="-63" y="-650" on="0"/>
        <pt x="-125" y="-650" on="1"/>
        <pt x="-187" y="-650" on="0"/>
        <pt x="-219" y="-612" on="1"/>
        <pt x="-250" y="-575" on="0"/>
        <pt x="-250" y="-530" on="1"/>
        <pt x="-370" y="-550" on="0"/>
      </contour>
      <contour>
        <pt x="-660" y="-355" on="1"/>
        <pt x="-660" y="-400" on="0"/>
        <pt x="-560" y="-400" on="1"/>
        <pt x="-250" y="-400" on="1"/>
        <pt x="-250" y="-300" on="1"/>
        <pt x="-560" y="-300" on="1"/>
        <pt x="-660" y="-300" on="0"/>
      </contour>
    </TTGlyph>
    <TTGlyph name="glyph218" xMin="-800" yMin="-650" xMax="0" yMax="-100">
      <contour>
        <pt x="-250" y="-215" on="1"/>
        <pt x="-250" y="-140" on="0"/>
        <pt x="-150" y="-100" on="1"/>
        <pt x="0" y="-100" on="1"/>
        <pt x="0" y="-650" on="1"/>
        <pt x="-150" y="-650" on="1"/>
        <pt x="-400" y="-483" on="1"/>
        <pt x="-650" y="-650" on="1"/>
        <pt x="-800" y="-650" on="1"/>
        <pt x="-800" y="-100" on="1"/>
        <pt x="-650" y="-100" on="1"/>
        <pt x="-650" y="-480" on="1"/>
        <pt x="-400" y="-313" on="1"/>
        <pt x="-150" y="-480" on="1"/>
        <pt x="-150" y="-350" on="1"/>
        <pt x="-250" y="-290" on="0"/>
      </contour>
    </TTGlyph>
    <TTGlyph name="glyph219" xMin="-800" yMin="-650" xMax="0" yMax="-100">
      <contour>
        <pt x="0" y="-650" on="1"/>
        <pt x="-150" y="-650" on="1"/>
        <pt x="-150" y="-312" on="1"/>
        <pt x="-205" y="-269" on="1"/>
        <pt x="-400" y="-378" on="1"/>
        <pt x="-592" y="-269" on="1"/>
        <pt x="-650" y="-313" on="1"/>
        <pt x="-650" y="-410" on="1"/>
        <pt x="-620" y="-410" on="1"/>
        <pt x="-581" y="-410" on="0"/>
        <pt x="-542" y="-465" on="0"/>
        <pt x="-542" y="-505" on="1"/>
        <pt x="-542" y="-545" on="0"/>
        <pt x="-590" y="-620" on="0"/>
        <pt x="-650" y="-650" on="1"/>
        <pt x="-800" y="-650" on="1"/>
        <pt x="-800" y="-250" on="1"/>
        <pt x="-600" y="-100" on="1"/>
        <pt x="-400" y="-213" on="1"/>
        <pt x="-200" y="-100" on="1"/>
        <pt x="0" y="-250" on="1"/>
      </contour>
    </TTGlyph>
    <TTGlyph name="glyph220" xMin="-930" yMin="-650" xMax="0" yMax="-100">
      <contour>
        <pt x="-800" y="-650" on="1"/>
        <pt x="-875" y="-625" on="0"/>
        <pt x="-930" y="-550" on="0"/>
        <pt x="-930" y="-500" on="1"/>
        <pt x="-930" y="-455" on="0"/>
        <pt x="-893" y="-422" on="1"/>
        <pt x="-855" y="-390" on="0"/>
        <pt x="-800" y="-390" on="1"/>
        <pt x="-800" y="-370" on="1"/>
        <pt x="-800" y="-100" on="0"/>
        <pt x="-400" y="-100" on="1"/>
        <pt x="0" y="-100" on="0"/>
        <pt x="0" y="-370" on="1"/>
        <pt x="0" y="-650" on="1"/>
        <pt x="-150" y="-650" on="1"/>
        <pt x="-150" y="-370" on="1"/>
        <pt x="-150" y="-250" on="0"/>
        <pt x="-400" y="-250" on="1"/>
        <pt x="-650" y="-250" on="0"/>
        <pt x="-650" y="-370" on="1"/>
        <pt x="-650" y="-650" on="1"/>
      </contour>
    </TTGlyph>
    <TTGlyph name="glyph221" xMin="-850" yMin="-650" xMax="200" yMax="-100">
      <contour>
        <pt x="-649" y="-494" on="1"/>
        <pt x="-749" y="-494" on="0"/>
        <pt x="-800" y="-446" on="1"/>
        <pt x="-850" y="-397" on="0"/>
        <pt x="-850" y="-300" on="1"/>
        <pt x="-850" y="-250" on="0"/>
        <pt x="-813" y="-225" on="1"/>
        <pt x="-775" y="-200" on="0"/>
        <pt x="-700" y="-200" on="1"/>
        <pt x="-700" y="-300" on="1"/>
        <pt x="-700" y="-341" on="0"/>
        <pt x="-646" y="-341" on="1"/>
        <pt x="-639" y="-341" on="0"/>
        <pt x="-631" y="-340" on="1"/>
        <pt x="-150" y="-300" on="1"/>
        <pt x="-150" y="-100" on="1"/>
        <pt x="0" y="-100" on="1"/>
        <pt x="0" y="-300" on="1"/>
        <pt x="100" y="-300" on="0"/>
        <pt x="200" y="-425" on="0"/>
        <pt x="200" y="-500" on="1"/>
        <pt x="200" y="-575" on="0"/>
        <pt x="156" y="-612" on="1"/>
        <pt x="113" y="-650" on="0"/>
        <pt x="25" y="-650" on="1"/>
        <pt x="-63" y="-650" on="0"/>
        <pt x="-106" y="-600" on="1"/>
        <pt x="-150" y="-550" on="0"/>
        <pt x="-150" y="-450" on="1"/>
        <pt x="-590" y="-490" on="1"/>
        <pt x="-593" y="-490" on="1"/>
        <pt x="-608" y="-491" on="0"/>
        <pt x="-636" y="-494" on="0"/>
      </contour>
      <contour>
        <pt x="75" y="-500" on="1"/>
        <pt x="75" y="-450" on="0"/>
        <pt x="-5" y="-450" on="1"/>
        <pt x="-5" y="-530" on="0"/>
        <pt x="34" y="-530" on="1"/>
        <pt x="35" y="-530" on="1"/>
        <pt x="75" y="-530" on="0"/>
      </contour>
    </TTGlyph>
    <TTGlyph name="glyph222" xMin="-1000" yMin="-650" xMax="105" yMax="-100">
      <contour>
        <pt x="-1000" y="-450" on="1"/>
        <pt x="-1000" y="-300" on="0"/>
        <pt x="-925" y="-200" on="1"/>
        <pt x="-850" y="-100" on="0"/>
        <pt x="-700" y="-100" on="1"/>
        <pt x="-580" y="-100" on="0"/>
        <pt x="-498" y="-171" on="1"/>
        <pt x="-416" y="-242" on="0"/>
        <pt x="-373" y="-342" on="1"/>
        <pt x="-330" y="-442" on="0"/>
        <pt x="-289" y="-471" on="1"/>
        <pt x="-249" y="-500" on="0"/>
        <pt x="-210" y="-500" on="1"/>
        <pt x="-171" y="-500" on="0"/>
        <pt x="-130" y="-400" on="1"/>
        <pt x="-90" y="-300" on="0"/>
        <pt x="-68" y="-200" on="1"/>
        <pt x="-47" y="-100" on="1"/>
        <pt x="105" y="-100" on="1"/>
        <pt x="36" y="-350" on="0"/>
        <pt x="-40" y="-500" on="1"/>
        <pt x="-117" y="-650" on="0"/>
        <pt x="-202" y="-650" on="1"/>
        <pt x="-312" y="-650" on="0"/>
        <pt x="-385" y="-591" on="1"/>
        <pt x="-458" y="-532" on="0"/>
        <pt x="-532" y="-332" on="0"/>
        <pt x="-635" y="-250" on="0"/>
        <pt x="-700" y="-250" on="1"/>
        <pt x="-775" y="-250" on="0"/>
        <pt x="-850" y="-350" on="0"/>
        <pt x="-850" y="-450" on="1"/>
        <pt x="-850" y="-510" on="0"/>
        <pt x="-800" y="-510" on="1"/>
        <pt x="-750" y="-510" on="0"/>
        <pt x="-750" y="-450" on="1"/>
        <pt x="-700" y="-450" on="0"/>
        <pt x="-675" y="-475" on="1"/>
        <pt x="-650" y="-500" on="0"/>
        <pt x="-650" y="-550" on="1"/>
        <pt x="-650" y="-600" on="0"/>
        <pt x="-688" y="-625" on="1"/>
        <pt x="-725" y="-650" on="0"/>
        <pt x="-800" y="-650" on="1"/>
        <pt x="-900" y="-650" on="0"/>
        <pt x="-950" y="-600" on="1"/>
        <pt x="-1000" y="-550" on="0"/>
      </contour>
    </TTGlyph>
    <TTGlyph name="glyph223" xMin="-800" yMin="-650" xMax="0" yMax="-100">
      <contour>
        <pt x="-309" y="-650" on="0"/>
        <pt x="-500" y="-650" on="1"/>
        <pt x="-650" y="-650" on="0"/>
        <pt x="-800" y="-563" on="0"/>
        <pt x="-800" y="-466" on="1"/>
        <pt x="-800" y="-375" on="1"/>
        <pt x="-620" y="-354" on="0"/>
        <pt x="-295" y="-252" on="0"/>
        <pt x="-150" y="-100" on="1"/>
        <pt x="0" y="-100" on="0"/>
        <pt x="0" y="-200" on="1"/>
        <pt x="0" y="-419" on="0"/>
      </contour>
      <contour>
        <pt x="-332" y="-400" on="0"/>
        <pt x="-535" y="-462" on="0"/>
        <pt x="-640" y="-476" on="1"/>
        <pt x="-640" y="-516" on="0"/>
        <pt x="-500" y="-520" on="1"/>
        <pt x="-350" y="-520" on="0"/>
        <pt x="-154" y="-383" on="0"/>
        <pt x="-152" y="-275" on="1"/>
        <pt x="-157" y="-279" on="1"/>
        <pt x="-170" y="-290" on="0"/>
        <pt x="-196" y="-311" on="0"/>
      </contour>
    </TTGlyph>
    <TTGlyph name="glyph224" xMin="-850" yMin="-650" xMax="0" yMax="-100">
      <contour>
        <pt x="-700" y="-450" on="1"/>
        <pt x="-700" y="-500" on="0"/>
        <pt x="-600" y="-500" on="1"/>
        <pt x="-500" y="-500" on="0"/>
        <pt x="-500" y="-450" on="1"/>
        <pt x="-500" y="-300" on="1"/>
        <pt x="-500" y="-200" on="0"/>
        <pt x="-438" y="-150" on="1"/>
        <pt x="-375" y="-100" on="0"/>
        <pt x="-250" y="-100" on="1"/>
        <pt x="-125" y="-100" on="0"/>
        <pt x="-62" y="-150" on="1"/>
        <pt x="0" y="-200" on="0"/>
        <pt x="0" y="-300" on="1"/>
        <pt x="0" y="-650" on="1"/>
        <pt x="-150" y="-650" on="1"/>
        <pt x="-150" y="-300" on="1"/>
        <pt x="-150" y="-250" on="0"/>
        <pt x="-250" y="-250" on="1"/>
        <pt x="-350" y="-250" on="0"/>
        <pt x="-350" y="-300" on="1"/>
        <pt x="-350" y="-450" on="1"/>
        <pt x="-350" y="-550" on="0"/>
        <pt x="-412" y="-600" on="1"/>
        <pt x="-475" y="-650" on="0"/>
        <pt x="-600" y="-650" on="1"/>
        <pt x="-725" y="-650" on="0"/>
        <pt x="-788" y="-600" on="1"/>
        <pt x="-850" y="-550" on="0"/>
        <pt x="-850" y="-450" on="1"/>
        <pt x="-850" y="-100" on="1"/>
        <pt x="-700" y="-100" on="1"/>
      </contour>
    </TTGlyph>
    <TTGlyph name="glyph225" xMin="-880" yMin="-650" xMax="0" yMax="-100">
      <contour>
        <pt x="-880" y="-525" on="1"/>
        <pt x="-880" y="-450" on="0"/>
        <pt x="-800" y="-450" on="1"/>
        <pt x="-800" y="-230" on="1"/>
        <pt x="-800" y="-200" on="0"/>
        <pt x="-830" y="-200" on="1"/>
        <pt x="-880" y="-200" on="1"/>
        <pt x="-880" y="-100" on="1"/>
        <pt x="-825" y="-100" on="1"/>
        <pt x="-650" y="-100" on="0"/>
        <pt x="-650" y="-230" on="1"/>
        <pt x="-650" y="-290" on="1"/>
        <pt x="-150" y="-290" on="1"/>
        <pt x="-150" y="-230" on="1"/>
        <pt x="-150" y="-200" on="0"/>
        <pt x="-180" y="-200" on="1"/>
        <pt x="-230" y="-200" on="1"/>
        <pt x="-230" y="-100" on="1"/>
        <pt x="-175" y="-100" on="1"/>
        <pt x="0" y="-100" on="0"/>
        <pt x="0" y="-230" on="1"/>
        <pt x="0" y="-650" on="1"/>
        <pt x="-150" y="-650" on="1"/>
        <pt x="-230" y="-571" on="0"/>
        <pt x="-230" y="-525" on="1"/>
        <pt x="-230" y="-450" on="0"/>
        <pt x="-150" y="-450" on="1"/>
        <pt x="-150" y="-390" on="1"/>
        <pt x="-650" y="-390" on="1"/>
        <pt x="-650" y="-650" on="1"/>
        <pt x="-800" y="-650" on="1"/>
        <pt x="-880" y="-571" on="0"/>
      </contour>
    </TTGlyph>
    <TTGlyph name="glyph226" xMin="-1750" yMin="-650" xMax="-950" yMax="-100">
      <contour>
        <pt x="-1600" y="-400" on="1"/>
        <pt x="-1600" y="-650" on="1"/>
        <pt x="-1750" y="-650" on="1"/>
        <pt x="-1750" y="-400" on="1"/>
        <pt x="-1750" y="-100" on="0"/>
        <pt x="-1350" y="-100" on="1"/>
        <pt x="-950" y="-100" on="0"/>
        <pt x="-950" y="-400" on="1"/>
        <pt x="-950" y="-650" on="1"/>
        <pt x="-1100" y="-650" on="1"/>
        <pt x="-1100" y="-400" on="1"/>
        <pt x="-1100" y="-250" on="0"/>
        <pt x="-1350" y="-250" on="1"/>
        <pt x="-1600" y="-250" on="0"/>
      </contour>
    </TTGlyph>
    <TTGlyph name="glyph227" xMin="-1750" yMin="-650" xMax="-950" yMax="-51">
      <contour>
        <pt x="-1350" y="-650" on="1"/>
        <pt x="-1550" y="-650" on="0"/>
        <pt x="-1650" y="-602" on="1"/>
        <pt x="-1750" y="-556" on="0"/>
        <pt x="-1750" y="-464" on="1"/>
        <pt x="-1750" y="-386" on="0"/>
        <pt x="-1683" y="-377" on="1"/>
        <pt x="-1368" y="-333" on="1"/>
        <pt x="-1232" y="-315" on="0"/>
        <pt x="-1103" y="-263" on="0"/>
        <pt x="-1103" y="-226" on="1"/>
        <pt x="-1103" y="-198" on="0"/>
        <pt x="-1226" y="-150" on="0"/>
        <pt x="-1350" y="-150" on="1"/>
        <pt x="-1516" y="-150" on="0"/>
        <pt x="-1600" y="-222" on="0"/>
        <pt x="-1600" y="-300" on="1"/>
        <pt x="-1750" y="-300" on="0"/>
        <pt x="-1750" y="-208" on="1"/>
        <pt x="-1750" y="-139" on="0"/>
        <pt x="-1500" y="-51" on="0"/>
        <pt x="-1350" y="-51" on="1"/>
        <pt x="-1190" y="-51" on="0"/>
        <pt x="-950" y="-156" on="0"/>
        <pt x="-950" y="-221" on="1"/>
        <pt x="-950" y="-297" on="0"/>
        <pt x="-1037" y="-347" on="1"/>
        <pt x="-1124" y="-397" on="0"/>
        <pt x="-1298" y="-420" on="1"/>
        <pt x="-1601" y="-462" on="1"/>
        <pt x="-1601" y="-509" on="0"/>
        <pt x="-1476" y="-550" on="0"/>
        <pt x="-1350" y="-550" on="1"/>
        <pt x="-1225" y="-550" on="0"/>
        <pt x="-1100" y="-500" on="0"/>
        <pt x="-1100" y="-445" on="1"/>
        <pt x="-950" y="-408" on="1"/>
        <pt x="-950" y="-528" on="0"/>
        <pt x="-1050" y="-588" on="1"/>
        <pt x="-1150" y="-650" on="0"/>
      </contour>
    </TTGlyph>
    <TTGlyph name="glyph228" xMin="-1750" yMin="-650" xMax="-950" yMax="-100">
      <contour>
        <pt x="-1600" y="-550" on="1"/>
        <pt x="-1500" y="-455" on="1"/>
        <pt x="-1399" y="-360" on="0"/>
        <pt x="-1350" y="-360" on="1"/>
        <pt x="-1250" y="-360" on="0"/>
        <pt x="-1250" y="-435" on="1"/>
        <pt x="-1250" y="-510" on="0"/>
        <pt x="-1350" y="-510" on="1"/>
        <pt x="-1400" y="-510" on="0"/>
        <pt x="-1463" y="-550" on="1"/>
        <pt x="-1558" y="-650" on="1"/>
        <pt x="-1750" y="-650" on="1"/>
        <pt x="-1750" y="-400" on="1"/>
        <pt x="-1750" y="-100" on="0"/>
        <pt x="-1350" y="-100" on="1"/>
        <pt x="-950" y="-100" on="0"/>
        <pt x="-950" y="-400" on="1"/>
        <pt x="-950" y="-650" on="1"/>
        <pt x="-1100" y="-650" on="1"/>
        <pt x="-1100" y="-400" on="1"/>
        <pt x="-1100" y="-250" on="0"/>
        <pt x="-1350" y="-250" on="1"/>
        <pt x="-1600" y="-250" on="0"/>
        <pt x="-1600" y="-400" on="1"/>
      </contour>
    </TTGlyph>
    <TTGlyph name="glyph229" xMin="-1750" yMin="-650" xMax="-950" yMax="-100">
      <contour>
        <pt x="-1450" y="-650" on="1"/>
        <pt x="-1600" y="-650" on="0"/>
        <pt x="-1675" y="-588" on="1"/>
        <pt x="-1750" y="-525" on="0"/>
        <pt x="-1750" y="-400" on="1"/>
        <pt x="-1750" y="-300" on="0"/>
        <pt x="-1713" y="-250" on="1"/>
        <pt x="-1675" y="-200" on="0"/>
        <pt x="-1600" y="-200" on="1"/>
        <pt x="-1550" y="-200" on="0"/>
        <pt x="-1525" y="-225" on="1"/>
        <pt x="-1500" y="-250" on="0"/>
        <pt x="-1500" y="-300" on="1"/>
        <pt x="-1550" y="-300" on="0"/>
        <pt x="-1575" y="-325" on="1"/>
        <pt x="-1600" y="-350" on="0"/>
        <pt x="-1600" y="-400" on="1"/>
        <pt x="-1600" y="-500" on="0"/>
        <pt x="-1450" y="-500" on="1"/>
        <pt x="-1293" y="-500" on="0"/>
        <pt x="-1106" y="-302" on="0"/>
        <pt x="-1048" y="-150" on="1"/>
        <pt x="-1045" y="-125" on="0"/>
        <pt x="-1033" y="-112" on="1"/>
        <pt x="-1021" y="-100" on="0"/>
        <pt x="-1000" y="-100" on="1"/>
        <pt x="-950" y="-100" on="0"/>
        <pt x="-950" y="-150" on="1"/>
        <pt x="-963" y="-200" on="0"/>
        <pt x="-1000" y="-312" on="1"/>
        <pt x="-1037" y="-425" on="0"/>
        <pt x="-1100" y="-500" on="1"/>
        <pt x="-1163" y="-575" on="0"/>
        <pt x="-1250" y="-612" on="1"/>
        <pt x="-1337" y="-650" on="0"/>
      </contour>
    </TTGlyph>
    <TTGlyph name="glyph230" xMin="-1800" yMin="-650" xMax="-900" yMax="-100">
      <contour>
        <pt x="-1420" y="-100" on="1"/>
        <pt x="-1363" y="-100" on="0"/>
        <pt x="-1363" y="-156" on="1"/>
        <pt x="-1363" y="-175" on="0"/>
        <pt x="-1370" y="-200" on="1"/>
        <pt x="-1396" y="-300" on="0"/>
        <pt x="-1472" y="-368" on="1"/>
        <pt x="-1548" y="-436" on="0"/>
        <pt x="-1650" y="-465" on="1"/>
        <pt x="-1650" y="-500" on="0"/>
        <pt x="-1500" y="-500" on="1"/>
        <pt x="-1321" y="-492" on="0"/>
        <pt x="-1212" y="-386" on="1"/>
        <pt x="-1300" y="-352" on="0"/>
        <pt x="-1300" y="-270" on="1"/>
        <pt x="-1300" y="-200" on="0"/>
        <pt x="-1263" y="-166" on="1"/>
        <pt x="-1225" y="-131" on="0"/>
        <pt x="-1150" y="-131" on="1"/>
        <pt x="-1085" y="-131" on="0"/>
        <pt x="-1053" y="-166" on="1"/>
        <pt x="-1020" y="-200" on="0"/>
        <pt x="-1020" y="-270" on="1"/>
        <pt x="-1020" y="-288" on="0"/>
        <pt x="-1036" y="-316" on="1"/>
        <pt x="-1000" y="-316" on="1"/>
        <pt x="-973" y="-316" on="0"/>
        <pt x="-900" y="-279" on="1"/>
        <pt x="-900" y="-372" on="0"/>
        <pt x="-1002" y="-409" on="1"/>
        <pt x="-1050" y="-409" on="1"/>
        <pt x="-1063" y="-409" on="0"/>
        <pt x="-1088" y="-408" on="0"/>
        <pt x="-1099" y="-407" on="1"/>
        <pt x="-1112" y="-424" on="0"/>
        <pt x="-1143" y="-462" on="0"/>
        <pt x="-1160" y="-483" on="1"/>
        <pt x="-1230" y="-566" on="0"/>
        <pt x="-1315" y="-608" on="1"/>
        <pt x="-1400" y="-650" on="0"/>
        <pt x="-1500" y="-650" on="1"/>
        <pt x="-1650" y="-650" on="0"/>
        <pt x="-1725" y="-604" on="1"/>
        <pt x="-1800" y="-558" on="0"/>
        <pt x="-1800" y="-465" on="1"/>
        <pt x="-1800" y="-370" on="0"/>
        <pt x="-1750" y="-364" on="1"/>
        <pt x="-1685" y="-350" on="0"/>
        <pt x="-1621" y="-314" on="1"/>
        <pt x="-1557" y="-278" on="0"/>
        <pt x="-1535" y="-220" on="1"/>
        <pt x="-1506" y="-148" on="1"/>
        <pt x="-1496" y="-100" on="0"/>
      </contour>
      <contour>
        <pt x="-1120" y="-270" on="1"/>
        <pt x="-1114" y="-258" on="0"/>
        <pt x="-1114" y="-249" on="1"/>
        <pt x="-1114" y="-227" on="0"/>
        <pt x="-1150" y="-227" on="1"/>
        <pt x="-1200" y="-227" on="0"/>
        <pt x="-1200" y="-270" on="1"/>
        <pt x="-1200" y="-298" on="0"/>
        <pt x="-1145" y="-308" on="1"/>
        <pt x="-1127" y="-286" on="0"/>
      </contour>
    </TTGlyph>
    <TTGlyph name="glyph231" xMin="-1750" yMin="-650" xMax="-950" yMax="-100">
      <contour>
        <pt x="-1600" y="-100" on="1"/>
        <pt x="-1600" y="-263" on="1"/>
        <pt x="-1566" y="-250" on="0"/>
        <pt x="-1525" y="-250" on="1"/>
        <pt x="-1310" y="-250" on="0"/>
        <pt x="-1310" y="-450" on="1"/>
        <pt x="-1310" y="-500" on="0"/>
        <pt x="-1205" y="-500" on="1"/>
        <pt x="-1100" y="-500" on="0"/>
        <pt x="-1100" y="-450" on="1"/>
        <pt x="-1100" y="-356" on="1"/>
        <pt x="-1112" y="-356" on="1"/>
        <pt x="-1230" y="-356" on="0"/>
        <pt x="-1240" y="-277" on="1"/>
        <pt x="-1243" y="-256" on="0"/>
        <pt x="-1243" y="-237" on="1"/>
        <pt x="-1243" y="-183" on="0"/>
        <pt x="-1221" y="-147" on="1"/>
        <pt x="-1192" y="-100" on="0"/>
        <pt x="-1100" y="-100" on="1"/>
        <pt x="-950" y="-100" on="0"/>
        <pt x="-950" y="-200" on="1"/>
        <pt x="-950" y="-450" on="1"/>
        <pt x="-950" y="-650" on="0"/>
        <pt x="-1205" y="-650" on="1"/>
        <pt x="-1460" y="-650" on="0"/>
        <pt x="-1460" y="-450" on="1"/>
        <pt x="-1460" y="-400" on="0"/>
        <pt x="-1525" y="-400" on="1"/>
        <pt x="-1600" y="-400" on="0"/>
        <pt x="-1600" y="-550" on="1"/>
        <pt x="-1600" y="-650" on="1"/>
        <pt x="-1750" y="-650" on="1"/>
        <pt x="-1750" y="-100" on="1"/>
      </contour>
    </TTGlyph>
    <TTGlyph name="glyph232" xMin="-1848" yMin="-650" xMax="-851" yMax="-100">
      <contour>
        <pt x="-1148" y="-200" on="1"/>
        <pt x="-1173" y="-200" on="0"/>
        <pt x="-1185" y="-212" on="1"/>
        <pt x="-1198" y="-225" on="0"/>
        <pt x="-1198" y="-250" on="1"/>
        <pt x="-1198" y="-300" on="0"/>
        <pt x="-1150" y="-300" on="1"/>
        <pt x="-1113" y="-300" on="1"/>
        <pt x="-1102" y="-300" on="0"/>
        <pt x="-1101" y="-299" on="1"/>
        <pt x="-1112" y="-200" on="0"/>
      </contour>
      <contour>
        <pt x="-876" y="-258" on="1"/>
        <pt x="-851" y="-258" on="0"/>
        <pt x="-851" y="-291" on="1"/>
        <pt x="-851" y="-336" on="0"/>
        <pt x="-901" y="-356" on="1"/>
        <pt x="-912" y="-360" on="0"/>
        <pt x="-935" y="-368" on="0"/>
        <pt x="-948" y="-372" on="1"/>
        <pt x="-948" y="-380" on="1"/>
        <pt x="-948" y="-465" on="0"/>
        <pt x="-999" y="-558" on="1"/>
        <pt x="-1049" y="-650" on="0"/>
        <pt x="-1150" y="-650" on="1"/>
        <pt x="-1201" y="-650" on="0"/>
        <pt x="-1254" y="-624" on="1"/>
        <pt x="-1307" y="-597" on="0"/>
        <pt x="-1361" y="-544" on="1"/>
        <pt x="-1398" y="-509" on="1"/>
        <pt x="-1437" y="-544" on="1"/>
        <pt x="-1497" y="-598" on="0"/>
        <pt x="-1547" y="-624" on="1"/>
        <pt x="-1597" y="-650" on="0"/>
        <pt x="-1648" y="-650" on="1"/>
        <pt x="-1748" y="-650" on="0"/>
        <pt x="-1798" y="-557" on="1"/>
        <pt x="-1848" y="-464" on="0"/>
        <pt x="-1848" y="-379" on="1"/>
        <pt x="-1848" y="-240" on="0"/>
        <pt x="-1798" y="-170" on="1"/>
        <pt x="-1748" y="-100" on="0"/>
        <pt x="-1648" y="-100" on="1"/>
        <pt x="-1598" y="-100" on="0"/>
        <pt x="-1598" y="-150" on="1"/>
        <pt x="-1598" y="-200" on="0"/>
        <pt x="-1648" y="-200" on="1"/>
        <pt x="-1673" y="-200" on="0"/>
        <pt x="-1685" y="-245" on="1"/>
        <pt x="-1698" y="-290" on="0"/>
        <pt x="-1698" y="-379" on="1"/>
        <pt x="-1698" y="-414" on="0"/>
        <pt x="-1673" y="-500" on="0"/>
        <pt x="-1648" y="-500" on="1"/>
        <pt x="-1623" y="-500" on="0"/>
        <pt x="-1499" y="-435" on="0"/>
        <pt x="-1398" y="-322" on="1"/>
        <pt x="-1300" y="-435" on="0"/>
        <pt x="-1200" y="-500" on="0"/>
        <pt x="-1148" y="-500" on="1"/>
        <pt x="-1124" y="-500" on="0"/>
        <pt x="-1099" y="-424" on="0"/>
        <pt x="-1098" y="-398" on="1"/>
        <pt x="-1110" y="-399" on="0"/>
        <pt x="-1135" y="-400" on="0"/>
        <pt x="-1148" y="-400" on="1"/>
        <pt x="-1223" y="-400" on="0"/>
        <pt x="-1261" y="-362" on="1"/>
        <pt x="-1298" y="-325" on="0"/>
        <pt x="-1298" y="-250" on="1"/>
        <pt x="-1298" y="-175" on="0"/>
        <pt x="-1261" y="-138" on="1"/>
        <pt x="-1223" y="-100" on="0"/>
        <pt x="-1148" y="-100" on="1"/>
        <pt x="-1068" y="-100" on="0"/>
        <pt x="-1020" y="-145" on="1"/>
        <pt x="-972" y="-190" on="0"/>
        <pt x="-956" y="-279" on="1"/>
        <pt x="-942" y="-275" on="0"/>
        <pt x="-914" y="-268" on="0"/>
        <pt x="-901" y="-263" on="1"/>
        <pt x="-895" y="-262" on="0"/>
        <pt x="-886" y="-260" on="0"/>
        <pt x="-883" y="-259" on="1"/>
        <pt x="-879" y="-258" on="0"/>
      </contour>
    </TTGlyph>
    <TTGlyph name="glyph233" xMin="-1850" yMin="-600" xMax="-850" yMax="-100">
      <contour>
        <pt x="-850" y="-300" on="1"/>
        <pt x="-850" y="-450" on="0"/>
        <pt x="-917" y="-525" on="1"/>
        <pt x="-985" y="-600" on="0"/>
        <pt x="-1120" y="-600" on="1"/>
        <pt x="-1233" y="-600" on="0"/>
        <pt x="-1317" y="-564" on="1"/>
        <pt x="-1401" y="-528" on="0"/>
        <pt x="-1456" y="-455" on="1"/>
        <pt x="-1535" y="-352" on="0"/>
        <pt x="-1595" y="-301" on="1"/>
        <pt x="-1657" y="-250" on="0"/>
        <pt x="-1700" y="-250" on="1"/>
        <pt x="-1753" y="-250" on="0"/>
        <pt x="-1790" y="-272" on="1"/>
        <pt x="-1827" y="-295" on="0"/>
        <pt x="-1850" y="-340" on="1"/>
        <pt x="-1850" y="-290" on="1"/>
        <pt x="-1850" y="-240" on="0"/>
        <pt x="-1812" y="-195" on="1"/>
        <pt x="-1775" y="-150" on="0"/>
        <pt x="-1700" y="-150" on="1"/>
        <pt x="-1601" y="-150" on="0"/>
        <pt x="-1509" y="-205" on="1"/>
        <pt x="-1417" y="-260" on="0"/>
        <pt x="-1332" y="-371" on="1"/>
        <pt x="-1273" y="-450" on="0"/>
        <pt x="-1120" y="-450" on="1"/>
        <pt x="-1000" y="-450" on="0"/>
        <pt x="-1000" y="-300" on="1"/>
        <pt x="-1000" y="-250" on="0"/>
        <pt x="-1025" y="-225" on="1"/>
        <pt x="-1050" y="-200" on="0"/>
        <pt x="-1100" y="-200" on="1"/>
        <pt x="-1100" y="-150" on="0"/>
        <pt x="-1075" y="-125" on="1"/>
        <pt x="-1050" y="-100" on="0"/>
        <pt x="-1000" y="-100" on="1"/>
        <pt x="-925" y="-100" on="0"/>
        <pt x="-887" y="-150" on="1"/>
        <pt x="-850" y="-200" on="0"/>
      </contour>
    </TTGlyph>
    <TTGlyph name="glyph234" xMin="-1750" yMin="-650" xMax="-950" yMax="-100">
      <contour>
        <pt x="-1600" y="-370" on="1"/>
        <pt x="-1570" y="-370" on="1"/>
        <pt x="-1430" y="-370" on="0"/>
        <pt x="-1430" y="-500" on="1"/>
        <pt x="-1430" y="-650" on="0"/>
        <pt x="-1600" y="-650" on="1"/>
        <pt x="-1750" y="-650" on="1"/>
        <pt x="-1750" y="-370" on="1"/>
        <pt x="-1750" y="-100" on="0"/>
        <pt x="-1350" y="-100" on="1"/>
        <pt x="-950" y="-100" on="0"/>
        <pt x="-950" y="-370" on="1"/>
        <pt x="-950" y="-650" on="1"/>
        <pt x="-1100" y="-650" on="1"/>
        <pt x="-1100" y="-370" on="1"/>
        <pt x="-1100" y="-250" on="0"/>
        <pt x="-1350" y="-250" on="1"/>
        <pt x="-1600" y="-250" on="0"/>
      </contour>
      <contour>
        <pt x="-1600" y="-470" on="1"/>
        <pt x="-1600" y="-550" on="1"/>
        <pt x="-1530" y="-550" on="0"/>
        <pt x="-1530" y="-501" on="1"/>
        <pt x="-1530" y="-470" on="0"/>
        <pt x="-1570" y="-470" on="1"/>
      </contour>
    </TTGlyph>
    <TTGlyph name="glyph235" xMin="-1749" yMin="-650" xMax="-950" yMax="-70">
      <contour>
        <pt x="-1150" y="-145" on="1"/>
        <pt x="-1150" y="-108" on="0"/>
        <pt x="-1125" y="-89" on="1"/>
        <pt x="-1100" y="-70" on="0"/>
        <pt x="-1050" y="-70" on="1"/>
        <pt x="-1000" y="-70" on="0"/>
        <pt x="-975" y="-108" on="1"/>
        <pt x="-950" y="-145" on="0"/>
        <pt x="-950" y="-220" on="1"/>
        <pt x="-950" y="-557" on="1"/>
        <pt x="-950" y="-604" on="0"/>
        <pt x="-977" y="-627" on="1"/>
        <pt x="-1003" y="-650" on="0"/>
        <pt x="-1057" y="-650" on="1"/>
        <pt x="-1343" y="-512" on="1"/>
        <pt x="-1446" y="-611" on="1"/>
        <pt x="-1484" y="-650" on="0"/>
        <pt x="-1505" y="-650" on="1"/>
        <pt x="-1526" y="-650" on="0"/>
        <pt x="-1554" y="-607" on="1"/>
        <pt x="-1724" y="-402" on="1"/>
        <pt x="-1749" y="-365" on="0"/>
        <pt x="-1749" y="-321" on="1"/>
        <pt x="-1749" y="-259" on="0"/>
        <pt x="-1661" y="-246" on="1"/>
        <pt x="-1570" y="-233" on="0"/>
        <pt x="-1497" y="-227" on="1"/>
        <pt x="-1423" y="-221" on="0"/>
        <pt x="-1360" y="-221" on="1"/>
        <pt x="-1099" y="-221" on="1"/>
        <pt x="-1125" y="-220" on="0"/>
        <pt x="-1137" y="-201" on="1"/>
        <pt x="-1150" y="-182" on="0"/>
      </contour>
      <contour>
        <pt x="-1100" y="-341" on="1"/>
        <pt x="-1373" y="-341" on="1"/>
        <pt x="-1413" y="-341" on="0"/>
        <pt x="-1469" y="-346" on="1"/>
        <pt x="-1524" y="-352" on="0"/>
        <pt x="-1579" y="-364" on="1"/>
        <pt x="-1489" y="-480" on="1"/>
        <pt x="-1349" y="-373" on="1"/>
        <pt x="-1100" y="-470" on="1"/>
      </contour>
    </TTGlyph>
    <TTGlyph name="glyph236" xMin="-1750" yMin="-675" xMax="-950" yMax="-50">
      <contour>
        <pt x="-1600" y="-221" on="1"/>
        <pt x="-1530" y="-221" on="0"/>
        <pt x="-1530" y="-252" on="1"/>
        <pt x="-1530" y="-287" on="0"/>
        <pt x="-1600" y="-349" on="0"/>
        <pt x="-1675" y="-349" on="1"/>
        <pt x="-1750" y="-349" on="0"/>
        <pt x="-1750" y="-284" on="1"/>
        <pt x="-1750" y="-231" on="1"/>
        <pt x="-1750" y="-178" on="0"/>
        <pt x="-1665" y="-114" on="1"/>
        <pt x="-1580" y="-50" on="0"/>
        <pt x="-1530" y="-50" on="1"/>
        <pt x="-1480" y="-50" on="0"/>
        <pt x="-1350" y="-146" on="1"/>
        <pt x="-1220" y="-50" on="0"/>
        <pt x="-1170" y="-50" on="1"/>
        <pt x="-1120" y="-50" on="0"/>
        <pt x="-1035" y="-114" on="1"/>
        <pt x="-950" y="-178" on="0"/>
        <pt x="-950" y="-239" on="1"/>
        <pt x="-950" y="-295" on="0"/>
        <pt x="-1015" y="-335" on="1"/>
        <pt x="-1079" y="-374" on="0"/>
        <pt x="-1211" y="-409" on="1"/>
        <pt x="-1600" y="-512" on="1"/>
        <pt x="-1550" y="-533" on="0"/>
        <pt x="-1475" y="-533" on="1"/>
        <pt x="-1401" y="-533" on="0"/>
        <pt x="-1289" y="-514" on="1"/>
        <pt x="-1177" y="-495" on="0"/>
        <pt x="-1100" y="-416" on="1"/>
        <pt x="-950" y="-392" on="1"/>
        <pt x="-950" y="-589" on="1"/>
        <pt x="-950" y="-632" on="0"/>
        <pt x="-975" y="-653" on="1"/>
        <pt x="-1000" y="-675" on="0"/>
        <pt x="-1150" y="-675" on="1"/>
        <pt x="-1100" y="-632" on="0"/>
        <pt x="-1100" y="-589" on="1"/>
        <pt x="-1100" y="-547" on="1"/>
        <pt x="-1189" y="-597" on="0"/>
        <pt x="-1415" y="-650" on="0"/>
        <pt x="-1550" y="-650" on="1"/>
        <pt x="-1650" y="-650" on="0"/>
        <pt x="-1750" y="-580" on="0"/>
        <pt x="-1750" y="-511" on="1"/>
        <pt x="-1750" y="-436" on="0"/>
        <pt x="-1683" y="-420" on="1"/>
        <pt x="-1234" y="-307" on="1"/>
        <pt x="-1167" y="-287" on="0"/>
        <pt x="-1133" y="-265" on="1"/>
        <pt x="-1100" y="-244" on="0"/>
        <pt x="-1100" y="-219" on="1"/>
        <pt x="-1100" y="-188" on="0"/>
        <pt x="-1127" y="-174" on="1"/>
        <pt x="-1155" y="-161" on="0"/>
        <pt x="-1178" y="-161" on="1"/>
        <pt x="-1202" y="-161" on="0"/>
        <pt x="-1350" y="-275" on="1"/>
        <pt x="-1506" y="-161" on="0"/>
        <pt x="-1529" y="-161" on="1"/>
        <pt x="-1552" y="-161" on="0"/>
        <pt x="-1576" y="-175" on="1"/>
        <pt x="-1600" y="-189" on="0"/>
      </contour>
    </TTGlyph>
    <TTGlyph name="glyph237" xMin="-1750" yMin="-650" xMax="-950" yMax="-100">
      <contour>
        <pt x="-1600" y="-370" on="1"/>
        <pt x="-1570" y="-370" on="1"/>
        <pt x="-1430" y="-370" on="0"/>
        <pt x="-1430" y="-500" on="1"/>
        <pt x="-1430" y="-650" on="0"/>
        <pt x="-1600" y="-650" on="1"/>
        <pt x="-1750" y="-650" on="1"/>
        <pt x="-1750" y="-370" on="1"/>
        <pt x="-1750" y="-100" on="0"/>
        <pt x="-1350" y="-100" on="1"/>
        <pt x="-950" y="-100" on="0"/>
        <pt x="-950" y="-370" on="1"/>
        <pt x="-950" y="-650" on="1"/>
        <pt x="-1100" y="-650" on="1"/>
        <pt x="-1100" y="-370" on="1"/>
        <pt x="-1100" y="-250" on="0"/>
        <pt x="-1350" y="-250" on="1"/>
        <pt x="-1600" y="-250" on="0"/>
      </contour>
      <contour>
        <pt x="-1600" y="-470" on="1"/>
        <pt x="-1600" y="-550" on="1"/>
        <pt x="-1530" y="-550" on="0"/>
        <pt x="-1530" y="-501" on="1"/>
        <pt x="-1530" y="-470" on="0"/>
        <pt x="-1570" y="-470" on="1"/>
      </contour>
    </TTGlyph>
    <TTGlyph name="glyph238" xMin="-1850" yMin="-650" xMax="-850" yMax="-100">
      <contour>
        <pt x="-1850" y="-400" on="1"/>
        <pt x="-1850" y="-275" on="0"/>
        <pt x="-1762" y="-188" on="1"/>
        <pt x="-1675" y="-100" on="0"/>
        <pt x="-1500" y="-100" on="1"/>
        <pt x="-1336" y="-100" on="0"/>
        <pt x="-1218" y="-184" on="1"/>
        <pt x="-1102" y="-267" on="0"/>
        <pt x="-1049" y="-367" on="1"/>
        <pt x="-997" y="-467" on="0"/>
        <pt x="-952" y="-508" on="1"/>
        <pt x="-906" y="-550" on="0"/>
        <pt x="-850" y="-550" on="1"/>
        <pt x="-850" y="-650" on="0"/>
        <pt x="-900" y="-650" on="1"/>
        <pt x="-1000" y="-650" on="0"/>
        <pt x="-1066" y="-604" on="1"/>
        <pt x="-1132" y="-558" on="0"/>
        <pt x="-1175" y="-458" on="1"/>
        <pt x="-1218" y="-358" on="0"/>
        <pt x="-1386" y="-250" on="0"/>
        <pt x="-1500" y="-250" on="1"/>
        <pt x="-1600" y="-250" on="0"/>
        <pt x="-1700" y="-335" on="0"/>
        <pt x="-1700" y="-400" on="1"/>
        <pt x="-1700" y="-475" on="0"/>
        <pt x="-1662" y="-512" on="1"/>
        <pt x="-1625" y="-550" on="0"/>
        <pt x="-1550" y="-550" on="1"/>
        <pt x="-1550" y="-600" on="0"/>
        <pt x="-1575" y="-625" on="1"/>
        <pt x="-1600" y="-650" on="0"/>
        <pt x="-1650" y="-650" on="1"/>
        <pt x="-1750" y="-650" on="0"/>
        <pt x="-1800" y="-588" on="1"/>
        <pt x="-1850" y="-525" on="0"/>
      </contour>
    </TTGlyph>
    <TTGlyph name="glyph239" xMin="-1750" yMin="-650" xMax="-950" yMax="-100">
      <contour>
        <pt x="-1350" y="-196" on="1"/>
        <pt x="-1350" y="-184" on="0"/>
        <pt x="-1400" y="-184" on="1"/>
        <pt x="-1400" y="-142" on="0"/>
        <pt x="-1375" y="-121" on="1"/>
        <pt x="-1350" y="-100" on="0"/>
        <pt x="-1300" y="-100" on="1"/>
        <pt x="-1250" y="-100" on="0"/>
        <pt x="-1225" y="-121" on="1"/>
        <pt x="-1200" y="-142" on="0"/>
        <pt x="-1200" y="-184" on="1"/>
        <pt x="-1200" y="-225" on="0"/>
        <pt x="-1246" y="-297" on="1"/>
        <pt x="-1292" y="-370" on="0"/>
        <pt x="-1375" y="-417" on="1"/>
        <pt x="-1459" y="-464" on="0"/>
        <pt x="-1580" y="-491" on="1"/>
        <pt x="-1580" y="-521" on="0"/>
        <pt x="-1515" y="-521" on="1"/>
        <pt x="-1499" y="-521" on="0"/>
        <pt x="-1479" y="-519" on="1"/>
        <pt x="-1379" y="-510" on="0"/>
        <pt x="-1263" y="-435" on="1"/>
        <pt x="-1147" y="-360" on="0"/>
        <pt x="-1119" y="-289" on="1"/>
        <pt x="-1091" y="-219" on="0"/>
        <pt x="-1069" y="-202" on="1"/>
        <pt x="-1047" y="-184" on="0"/>
        <pt x="-1015" y="-184" on="1"/>
        <pt x="-950" y="-184" on="0"/>
        <pt x="-950" y="-226" on="1"/>
        <pt x="-950" y="-564" on="1"/>
        <pt x="-950" y="-606" on="0"/>
        <pt x="-999" y="-627" on="1"/>
        <pt x="-1047" y="-649" on="0"/>
        <pt x="-1145" y="-649" on="1"/>
        <pt x="-1100" y="-606" on="0"/>
        <pt x="-1100" y="-564" on="1"/>
        <pt x="-1100" y="-468" on="1"/>
        <pt x="-1161" y="-553" on="0"/>
        <pt x="-1362" y="-650" on="0"/>
        <pt x="-1451" y="-650" on="1"/>
        <pt x="-1575" y="-650" on="0"/>
        <pt x="-1750" y="-568" on="0"/>
        <pt x="-1750" y="-488" on="1"/>
        <pt x="-1750" y="-420" on="0"/>
        <pt x="-1700" y="-407" on="1"/>
        <pt x="-1500" y="-352" on="0"/>
        <pt x="-1350" y="-222" on="0"/>
      </contour>
    </TTGlyph>
    <TTGlyph name="glyph240" xMin="-1764" yMin="-650" xMax="-935" yMax="-102">
      <contour>
        <pt x="-1125" y="-175" on="1"/>
        <pt x="-1133" y="-240" on="0"/>
        <pt x="-1243" y="-324" on="1"/>
        <pt x="-1292" y="-360" on="0"/>
        <pt x="-1322" y="-374" on="1"/>
        <pt x="-1217" y="-409" on="0"/>
        <pt x="-1165" y="-409" on="1"/>
        <pt x="-1132" y="-409" on="0"/>
        <pt x="-1121" y="-394" on="1"/>
        <pt x="-1096" y="-357" on="0"/>
        <pt x="-1087" y="-277" on="1"/>
        <pt x="-1085" y="-257" on="0"/>
        <pt x="-1085" y="-242" on="1"/>
        <pt x="-1085" y="-201" on="0"/>
        <pt x="-1103" y="-200" on="1"/>
        <pt x="-1123" y="-198" on="0"/>
        <pt x="-1123" y="-168" on="1"/>
        <pt x="-1123" y="-162" on="0"/>
        <pt x="-1122" y="-153" on="1"/>
        <pt x="-1118" y="-114" on="0"/>
        <pt x="-1074" y="-114" on="1"/>
        <pt x="-1069" y="-114" on="0"/>
        <pt x="-1063" y="-115" on="1"/>
        <pt x="-1005" y="-120" on="0"/>
        <pt x="-967" y="-164" on="1"/>
        <pt x="-935" y="-201" on="0"/>
        <pt x="-935" y="-261" on="1"/>
        <pt x="-935" y="-275" on="0"/>
        <pt x="-937" y="-291" on="1"/>
        <pt x="-952" y="-418" on="0"/>
        <pt x="-1007" y="-477" on="1"/>
        <pt x="-1055" y="-529" on="0"/>
        <pt x="-1133" y="-529" on="1"/>
        <pt x="-1145" y="-529" on="0"/>
        <pt x="-1157" y="-528" on="1"/>
        <pt x="-1176" y="-526" on="0"/>
        <pt x="-1221" y="-514" on="0"/>
        <pt x="-1246" y="-508" on="1"/>
        <pt x="-1312" y="-489" on="1"/>
        <pt x="-1323" y="-577" on="0"/>
        <pt x="-1375" y="-617" on="1"/>
        <pt x="-1418" y="-650" on="0"/>
        <pt x="-1491" y="-650" on="1"/>
        <pt x="-1506" y="-650" on="0"/>
        <pt x="-1522" y="-649" on="1"/>
        <pt x="-1651" y="-636" on="0"/>
        <pt x="-1712" y="-594" on="1"/>
        <pt x="-1764" y="-555" on="0"/>
        <pt x="-1764" y="-495" on="1"/>
        <pt x="-1764" y="-479" on="1"/>
        <pt x="-1756" y="-414" on="0"/>
        <pt x="-1704" y="-395" on="1"/>
        <pt x="-1554" y="-365" on="0"/>
        <pt x="-1445" y="-313" on="1"/>
        <pt x="-1337" y="-262" on="0"/>
        <pt x="-1252" y="-189" on="1"/>
        <pt x="-1251" y="-182" on="0"/>
        <pt x="-1251" y="-175" on="1"/>
        <pt x="-1251" y="-144" on="0"/>
        <pt x="-1272" y="-140" on="1"/>
        <pt x="-1267" y="-102" on="0"/>
        <pt x="-1207" y="-102" on="1"/>
        <pt x="-1198" y="-102" on="0"/>
        <pt x="-1187" y="-103" on="1"/>
        <pt x="-1125" y="-109" on="0"/>
        <pt x="-1125" y="-169" on="1"/>
      </contour>
      <contour>
        <pt x="-1614" y="-492" on="1"/>
        <pt x="-1614" y="-496" on="1"/>
        <pt x="-1614" y="-522" on="0"/>
        <pt x="-1563" y="-534" on="1"/>
        <pt x="-1534" y="-541" on="0"/>
        <pt x="-1508" y="-541" on="1"/>
        <pt x="-1484" y="-541" on="0"/>
        <pt x="-1462" y="-535" on="1"/>
        <pt x="-1417" y="-523" on="0"/>
        <pt x="-1412" y="-478" on="1"/>
        <pt x="-1404" y="-414" on="1"/>
        <pt x="-1452" y="-434" on="0"/>
        <pt x="-1503" y="-453" on="1"/>
        <pt x="-1555" y="-473" on="0"/>
      </contour>
    </TTGlyph>
    <TTGlyph name="glyph241" xMin="-1805" yMin="-650" xMax="-755" yMax="-50">
      <contour>
        <pt x="-1555" y="-550" on="1"/>
        <pt x="-1805" y="-550" on="0"/>
        <pt x="-1805" y="-355" on="1"/>
        <pt x="-1805" y="-150" on="0"/>
        <pt x="-1555" y="-150" on="1"/>
        <pt x="-1245" y="-150" on="1"/>
        <pt x="-1245" y="-50" on="1"/>
        <pt x="-1095" y="-50" on="1"/>
        <pt x="-1095" y="-150" on="1"/>
        <pt x="-755" y="-150" on="1"/>
        <pt x="-755" y="-300" on="1"/>
        <pt x="-1095" y="-300" on="1"/>
        <pt x="-1095" y="-400" on="1"/>
        <pt x="-1045" y="-400" on="0"/>
        <pt x="-1020" y="-431" on="1"/>
        <pt x="-995" y="-462" on="0"/>
        <pt x="-995" y="-525" on="1"/>
        <pt x="-995" y="-588" on="0"/>
        <pt x="-1026" y="-619" on="1"/>
        <pt x="-1058" y="-650" on="0"/>
        <pt x="-1120" y="-650" on="1"/>
        <pt x="-1182" y="-650" on="0"/>
        <pt x="-1214" y="-612" on="1"/>
        <pt x="-1245" y="-575" on="0"/>
        <pt x="-1245" y="-530" on="1"/>
        <pt x="-1365" y="-550" on="0"/>
      </contour>
      <contour>
        <pt x="-1655" y="-355" on="1"/>
        <pt x="-1655" y="-400" on="0"/>
        <pt x="-1555" y="-400" on="1"/>
        <pt x="-1245" y="-400" on="1"/>
        <pt x="-1245" y="-300" on="1"/>
        <pt x="-1555" y="-300" on="1"/>
        <pt x="-1655" y="-300" on="0"/>
      </contour>
    </TTGlyph>
    <TTGlyph name="glyph242" xMin="-1750" yMin="-650" xMax="-950" yMax="-100">
      <contour>
        <pt x="-1200" y="-215" on="1"/>
        <pt x="-1200" y="-140" on="0"/>
        <pt x="-1100" y="-100" on="1"/>
        <pt x="-950" y="-100" on="1"/>
        <pt x="-950" y="-650" on="1"/>
        <pt x="-1100" y="-650" on="1"/>
        <pt x="-1350" y="-483" on="1"/>
        <pt x="-1600" y="-650" on="1"/>
        <pt x="-1750" y="-650" on="1"/>
        <pt x="-1750" y="-100" on="1"/>
        <pt x="-1600" y="-100" on="1"/>
        <pt x="-1600" y="-480" on="1"/>
        <pt x="-1350" y="-313" on="1"/>
        <pt x="-1100" y="-480" on="1"/>
        <pt x="-1100" y="-350" on="1"/>
        <pt x="-1200" y="-290" on="0"/>
      </contour>
    </TTGlyph>
    <TTGlyph name="glyph243" xMin="-1750" yMin="-650" xMax="-950" yMax="-100">
      <contour>
        <pt x="-950" y="-650" on="1"/>
        <pt x="-1100" y="-650" on="1"/>
        <pt x="-1100" y="-312" on="1"/>
        <pt x="-1155" y="-269" on="1"/>
        <pt x="-1350" y="-378" on="1"/>
        <pt x="-1542" y="-269" on="1"/>
        <pt x="-1600" y="-313" on="1"/>
        <pt x="-1600" y="-410" on="1"/>
        <pt x="-1570" y="-410" on="1"/>
        <pt x="-1531" y="-410" on="0"/>
        <pt x="-1492" y="-465" on="0"/>
        <pt x="-1492" y="-505" on="1"/>
        <pt x="-1492" y="-545" on="0"/>
        <pt x="-1540" y="-620" on="0"/>
        <pt x="-1600" y="-650" on="1"/>
        <pt x="-1750" y="-650" on="1"/>
        <pt x="-1750" y="-250" on="1"/>
        <pt x="-1550" y="-100" on="1"/>
        <pt x="-1350" y="-213" on="1"/>
        <pt x="-1150" y="-100" on="1"/>
        <pt x="-950" y="-250" on="1"/>
      </contour>
    </TTGlyph>
    <TTGlyph name="glyph244" xMin="-1815" yMin="-650" xMax="-885" yMax="-100">
      <contour>
        <pt x="-1685" y="-650" on="1"/>
        <pt x="-1760" y="-625" on="0"/>
        <pt x="-1815" y="-550" on="0"/>
        <pt x="-1815" y="-500" on="1"/>
        <pt x="-1815" y="-455" on="0"/>
        <pt x="-1778" y="-422" on="1"/>
        <pt x="-1740" y="-390" on="0"/>
        <pt x="-1685" y="-390" on="1"/>
        <pt x="-1685" y="-370" on="1"/>
        <pt x="-1685" y="-100" on="0"/>
        <pt x="-1285" y="-100" on="1"/>
        <pt x="-885" y="-100" on="0"/>
        <pt x="-885" y="-370" on="1"/>
        <pt x="-885" y="-650" on="1"/>
        <pt x="-1035" y="-650" on="1"/>
        <pt x="-1035" y="-370" on="1"/>
        <pt x="-1035" y="-250" on="0"/>
        <pt x="-1285" y="-250" on="1"/>
        <pt x="-1535" y="-250" on="0"/>
        <pt x="-1535" y="-370" on="1"/>
        <pt x="-1535" y="-650" on="1"/>
      </contour>
    </TTGlyph>
    <TTGlyph name="glyph245" xMin="-1875" yMin="-650" xMax="-825" yMax="-100">
      <contour>
        <pt x="-1674" y="-494" on="1"/>
        <pt x="-1774" y="-494" on="0"/>
        <pt x="-1825" y="-446" on="1"/>
        <pt x="-1875" y="-397" on="0"/>
        <pt x="-1875" y="-300" on="1"/>
        <pt x="-1875" y="-250" on="0"/>
        <pt x="-1838" y="-225" on="1"/>
        <pt x="-1800" y="-200" on="0"/>
        <pt x="-1725" y="-200" on="1"/>
        <pt x="-1725" y="-300" on="1"/>
        <pt x="-1725" y="-341" on="0"/>
        <pt x="-1671" y="-341" on="1"/>
        <pt x="-1664" y="-341" on="0"/>
        <pt x="-1656" y="-340" on="1"/>
        <pt x="-1175" y="-300" on="1"/>
        <pt x="-1175" y="-100" on="1"/>
        <pt x="-1025" y="-100" on="1"/>
        <pt x="-1025" y="-300" on="1"/>
        <pt x="-925" y="-300" on="0"/>
        <pt x="-825" y="-425" on="0"/>
        <pt x="-825" y="-500" on="1"/>
        <pt x="-825" y="-575" on="0"/>
        <pt x="-869" y="-612" on="1"/>
        <pt x="-912" y="-650" on="0"/>
        <pt x="-1000" y="-650" on="1"/>
        <pt x="-1088" y="-650" on="0"/>
        <pt x="-1131" y="-600" on="1"/>
        <pt x="-1175" y="-550" on="0"/>
        <pt x="-1175" y="-450" on="1"/>
        <pt x="-1615" y="-490" on="1"/>
        <pt x="-1618" y="-490" on="1"/>
        <pt x="-1633" y="-491" on="0"/>
        <pt x="-1661" y="-494" on="0"/>
      </contour>
      <contour>
        <pt x="-950" y="-500" on="1"/>
        <pt x="-950" y="-450" on="0"/>
        <pt x="-1030" y="-450" on="1"/>
        <pt x="-1030" y="-530" on="0"/>
        <pt x="-991" y="-530" on="1"/>
        <pt x="-990" y="-530" on="1"/>
        <pt x="-950" y="-530" on="0"/>
      </contour>
    </TTGlyph>
    <TTGlyph name="glyph246" xMin="-1902" yMin="-650" xMax="-797" yMax="-100">
      <contour>
        <pt x="-1902" y="-450" on="1"/>
        <pt x="-1902" y="-300" on="0"/>
        <pt x="-1827" y="-200" on="1"/>
        <pt x="-1752" y="-100" on="0"/>
        <pt x="-1602" y="-100" on="1"/>
        <pt x="-1482" y="-100" on="0"/>
        <pt x="-1400" y="-171" on="1"/>
        <pt x="-1318" y="-242" on="0"/>
        <pt x="-1275" y="-342" on="1"/>
        <pt x="-1232" y="-442" on="0"/>
        <pt x="-1191" y="-471" on="1"/>
        <pt x="-1151" y="-500" on="0"/>
        <pt x="-1112" y="-500" on="1"/>
        <pt x="-1073" y="-500" on="0"/>
        <pt x="-1032" y="-400" on="1"/>
        <pt x="-992" y="-300" on="0"/>
        <pt x="-970" y="-200" on="1"/>
        <pt x="-949" y="-100" on="1"/>
        <pt x="-797" y="-100" on="1"/>
        <pt x="-866" y="-350" on="0"/>
        <pt x="-942" y="-500" on="1"/>
        <pt x="-1019" y="-650" on="0"/>
        <pt x="-1104" y="-650" on="1"/>
        <pt x="-1214" y="-650" on="0"/>
        <pt x="-1287" y="-591" on="1"/>
        <pt x="-1360" y="-532" on="0"/>
        <pt x="-1434" y="-332" on="0"/>
        <pt x="-1537" y="-250" on="0"/>
        <pt x="-1602" y="-250" on="1"/>
        <pt x="-1677" y="-250" on="0"/>
        <pt x="-1752" y="-350" on="0"/>
        <pt x="-1752" y="-450" on="1"/>
        <pt x="-1752" y="-510" on="0"/>
        <pt x="-1702" y="-510" on="1"/>
        <pt x="-1652" y="-510" on="0"/>
        <pt x="-1652" y="-450" on="1"/>
        <pt x="-1602" y="-450" on="0"/>
        <pt x="-1577" y="-475" on="1"/>
        <pt x="-1552" y="-500" on="0"/>
        <pt x="-1552" y="-550" on="1"/>
        <pt x="-1552" y="-600" on="0"/>
        <pt x="-1590" y="-625" on="1"/>
        <pt x="-1627" y="-650" on="0"/>
        <pt x="-1702" y="-650" on="1"/>
        <pt x="-1802" y="-650" on="0"/>
        <pt x="-1852" y="-600" on="1"/>
        <pt x="-1902" y="-550" on="0"/>
      </contour>
    </TTGlyph>
    <TTGlyph name="glyph247" xMin="-1750" yMin="-650" xMax="-950" yMax="-100">
      <contour>
        <pt x="-1259" y="-650" on="0"/>
        <pt x="-1450" y="-650" on="1"/>
        <pt x="-1600" y="-650" on="0"/>
        <pt x="-1750" y="-563" on="0"/>
        <pt x="-1750" y="-466" on="1"/>
        <pt x="-1750" y="-375" on="1"/>
        <pt x="-1570" y="-354" on="0"/>
        <pt x="-1245" y="-252" on="0"/>
        <pt x="-1100" y="-100" on="1"/>
        <pt x="-950" y="-100" on="0"/>
        <pt x="-950" y="-200" on="1"/>
        <pt x="-950" y="-419" on="0"/>
      </contour>
      <contour>
        <pt x="-1282" y="-400" on="0"/>
        <pt x="-1485" y="-462" on="0"/>
        <pt x="-1590" y="-476" on="1"/>
        <pt x="-1590" y="-516" on="0"/>
        <pt x="-1450" y="-520" on="1"/>
        <pt x="-1300" y="-520" on="0"/>
        <pt x="-1104" y="-383" on="0"/>
        <pt x="-1102" y="-275" on="1"/>
        <pt x="-1107" y="-279" on="1"/>
        <pt x="-1120" y="-290" on="0"/>
        <pt x="-1146" y="-311" on="0"/>
      </contour>
    </TTGlyph>
    <TTGlyph name="glyph248" xMin="-1775" yMin="-650" xMax="-925" yMax="-100">
      <contour>
        <pt x="-1625" y="-450" on="1"/>
        <pt x="-1625" y="-500" on="0"/>
        <pt x="-1525" y="-500" on="1"/>
        <pt x="-1425" y="-500" on="0"/>
        <pt x="-1425" y="-450" on="1"/>
        <pt x="-1425" y="-300" on="1"/>
        <pt x="-1425" y="-200" on="0"/>
        <pt x="-1363" y="-150" on="1"/>
        <pt x="-1300" y="-100" on="0"/>
        <pt x="-1175" y="-100" on="1"/>
        <pt x="-1050" y="-100" on="0"/>
        <pt x="-987" y="-150" on="1"/>
        <pt x="-925" y="-200" on="0"/>
        <pt x="-925" y="-300" on="1"/>
        <pt x="-925" y="-650" on="1"/>
        <pt x="-1075" y="-650" on="1"/>
        <pt x="-1075" y="-300" on="1"/>
        <pt x="-1075" y="-250" on="0"/>
        <pt x="-1175" y="-250" on="1"/>
        <pt x="-1275" y="-250" on="0"/>
        <pt x="-1275" y="-300" on="1"/>
        <pt x="-1275" y="-450" on="1"/>
        <pt x="-1275" y="-550" on="0"/>
        <pt x="-1337" y="-600" on="1"/>
        <pt x="-1400" y="-650" on="0"/>
        <pt x="-1525" y="-650" on="1"/>
        <pt x="-1650" y="-650" on="0"/>
        <pt x="-1713" y="-600" on="1"/>
        <pt x="-1775" y="-550" on="0"/>
        <pt x="-1775" y="-450" on="1"/>
        <pt x="-1775" y="-100" on="1"/>
        <pt x="-1625" y="-100" on="1"/>
      </contour>
    </TTGlyph>
    <TTGlyph name="glyph249" xMin="-1790" yMin="-650" xMax="-910" yMax="-100">
      <contour>
        <pt x="-1790" y="-525" on="1"/>
        <pt x="-1790" y="-450" on="0"/>
        <pt x="-1710" y="-450" on="1"/>
        <pt x="-1710" y="-230" on="1"/>
        <pt x="-1710" y="-200" on="0"/>
        <pt x="-1740" y="-200" on="1"/>
        <pt x="-1790" y="-200" on="1"/>
        <pt x="-1790" y="-100" on="1"/>
        <pt x="-1735" y="-100" on="1"/>
        <pt x="-1560" y="-100" on="0"/>
        <pt x="-1560" y="-230" on="1"/>
        <pt x="-1560" y="-290" on="1"/>
        <pt x="-1060" y="-290" on="1"/>
        <pt x="-1060" y="-230" on="1"/>
        <pt x="-1060" y="-200" on="0"/>
        <pt x="-1090" y="-200" on="1"/>
        <pt x="-1140" y="-200" on="1"/>
        <pt x="-1140" y="-100" on="1"/>
        <pt x="-1085" y="-100" on="1"/>
        <pt x="-910" y="-100" on="0"/>
        <pt x="-910" y="-230" on="1"/>
        <pt x="-910" y="-650" on="1"/>
        <pt x="-1060" y="-650" on="1"/>
        <pt x="-1140" y="-571" on="0"/>
        <pt x="-1140" y="-525" on="1"/>
        <pt x="-1140" y="-450" on="0"/>
        <pt x="-1060" y="-450" on="1"/>
        <pt x="-1060" y="-390" on="1"/>
        <pt x="-1560" y="-390" on="1"/>
        <pt x="-1560" y="-650" on="1"/>
        <pt x="-1710" y="-650" on="1"/>
        <pt x="-1790" y="-571" on="0"/>
      </contour>
    </TTGlyph>
    <TTGlyph name="glyph250" xMin="-1575" yMin="1800" xMax="-1125" yMax="2200">
      <contour>
        <pt x="-1450" y="2200" on="1"/>
        <pt x="-1450" y="1900" on="1"/>
        <pt x="-1450" y="1820" on="0"/>
        <pt x="-1512" y="1800" on="1"/>
        <pt x="-1575" y="1820" on="0"/>
        <pt x="-1575" y="1900" on="1"/>
        <pt x="-1575" y="2200" on="1"/>
      </contour>
      <contour>
        <pt x="-1125" y="2200" on="1"/>
        <pt x="-1125" y="1900" on="1"/>
        <pt x="-1125" y="1820" on="0"/>
        <pt x="-1187" y="1800" on="1"/>
        <pt x="-1250" y="1820" on="0"/>
        <pt x="-1250" y="1900" on="1"/>
        <pt x="-1250" y="2200" on="1"/>
      </contour>
    </TTGlyph>
    <TTGlyph name="glyph251" xMin="-1905" yMin="1600" xMax="-794" yMax="1872">
      <contour>
        <pt x="-1905" y="1670" on="1"/>
        <pt x="-1773" y="1771" on="1"/>
        <pt x="-1707" y="1821" on="1"/>
        <pt x="-1640" y="1872" on="0"/>
        <pt x="-1611" y="1872" on="1"/>
        <pt x="-1582" y="1872" on="0"/>
        <pt x="-1524" y="1843" on="1"/>
        <pt x="-1467" y="1815" on="1"/>
        <pt x="-1352" y="1758" on="1"/>
        <pt x="-1257" y="1815" on="1"/>
        <pt x="-1210" y="1843" on="1"/>
        <pt x="-1163" y="1872" on="0"/>
        <pt x="-1133" y="1872" on="1"/>
        <pt x="-1104" y="1872" on="0"/>
        <pt x="-1062" y="1842" on="1"/>
        <pt x="-1019" y="1813" on="1"/>
        <pt x="-934" y="1753" on="0"/>
        <pt x="-794" y="1703" on="1"/>
        <pt x="-863" y="1622" on="0"/>
        <pt x="-922" y="1622" on="1"/>
        <pt x="-937" y="1622" on="0"/>
        <pt x="-951" y="1627" on="1"/>
        <pt x="-1023" y="1653" on="0"/>
        <pt x="-1141" y="1715" on="1"/>
        <pt x="-1352" y="1612" on="1"/>
        <pt x="-1596" y="1717" on="1"/>
        <pt x="-1757" y="1613" on="1"/>
        <pt x="-1773" y="1600" on="0"/>
        <pt x="-1793" y="1600" on="1"/>
        <pt x="-1839" y="1600" on="0"/>
      </contour>
    </TTGlyph>
    <TTGlyph name="glyph252" xMin="-1694" yMin="1800" xMax="-1006" yMax="2500">
      <contour>
        <pt x="-1530" y="1851" on="1"/>
        <pt x="-1591" y="1800" on="0"/>
        <pt x="-1629" y="1800" on="1"/>
        <pt x="-1661" y="1800" on="0"/>
        <pt x="-1681" y="1826" on="1"/>
        <pt x="-1694" y="1844" on="0"/>
        <pt x="-1694" y="1862" on="1"/>
        <pt x="-1694" y="1901" on="0"/>
        <pt x="-1630" y="1944" on="1"/>
        <pt x="-1536" y="2005" on="1"/>
        <pt x="-1394" y="2097" on="0"/>
        <pt x="-1337" y="2230" on="1"/>
        <pt x="-1281" y="2364" on="0"/>
        <pt x="-1281" y="2405" on="1"/>
        <pt x="-1281" y="2500" on="0"/>
        <pt x="-1206" y="2500" on="1"/>
        <pt x="-1132" y="2500" on="0"/>
        <pt x="-1132" y="2405" on="1"/>
        <pt x="-1133" y="2335" on="0"/>
        <pt x="-1195" y="2228" on="1"/>
        <pt x="-1257" y="2120" on="0"/>
        <pt x="-1365" y="2015" on="1"/>
        <pt x="-1303" y="2031" on="0"/>
        <pt x="-1246" y="2031" on="1"/>
        <pt x="-1209" y="2031" on="0"/>
        <pt x="-1174" y="2024" on="1"/>
        <pt x="-1087" y="2006" on="0"/>
        <pt x="-1026" y="1928" on="1"/>
        <pt x="-1006" y="1894" on="0"/>
        <pt x="-1006" y="1869" on="1"/>
        <pt x="-1006" y="1832" on="0"/>
        <pt x="-1044" y="1812" on="1"/>
        <pt x="-1065" y="1800" on="0"/>
        <pt x="-1085" y="1800" on="1"/>
        <pt x="-1123" y="1800" on="0"/>
        <pt x="-1153" y="1848" on="1"/>
        <pt x="-1197" y="1919" on="0"/>
        <pt x="-1265" y="1929" on="1"/>
        <pt x="-1304" y="1932" on="0"/>
        <pt x="-1335" y="1932" on="1"/>
        <pt x="-1397" y="1932" on="0"/>
        <pt x="-1426" y="1920" on="1"/>
        <pt x="-1469" y="1902" on="0"/>
      </contour>
    </TTGlyph>
    <TTGlyph name="glyph253" xMin="-1560" yMin="1800" xMax="-1140" yMax="2219">
      <contour>
        <pt x="-1410" y="1949" on="1"/>
        <pt x="-1560" y="1949" on="1"/>
        <pt x="-1560" y="2070" on="1"/>
        <pt x="-1410" y="2070" on="1"/>
        <pt x="-1410" y="2219" on="1"/>
        <pt x="-1290" y="2219" on="1"/>
        <pt x="-1290" y="2070" on="1"/>
        <pt x="-1140" y="2070" on="1"/>
        <pt x="-1140" y="1949" on="1"/>
        <pt x="-1290" y="1949" on="1"/>
        <pt x="-1290" y="1800" on="1"/>
        <pt x="-1410" y="1800" on="1"/>
      </contour>
    </TTGlyph>
    <TTGlyph name="glyph254" xMin="50" yMin="0" xMax="1908" yMax="1500">
      <contour>
        <pt x="797" y="1280" on="1"/>
        <pt x="929" y="1380" on="0"/>
        <pt x="995" y="1440" on="1"/>
        <pt x="1062" y="1500" on="0"/>
        <pt x="1091" y="1500" on="1"/>
        <pt x="1120" y="1500" on="0"/>
        <pt x="1178" y="1466" on="1"/>
        <pt x="1235" y="1432" on="1"/>
        <pt x="1350" y="1364" on="1"/>
        <pt x="1445" y="1432" on="1"/>
        <pt x="1492" y="1466" on="1"/>
        <pt x="1539" y="1500" on="0"/>
        <pt x="1569" y="1500" on="1"/>
        <pt x="1598" y="1500" on="0"/>
        <pt x="1640" y="1465" on="1"/>
        <pt x="1683" y="1430" on="1"/>
        <pt x="1768" y="1359" on="0"/>
        <pt x="1908" y="1300" on="1"/>
        <pt x="1839" y="1203" on="0"/>
        <pt x="1780" y="1203" on="1"/>
        <pt x="1765" y="1203" on="0"/>
        <pt x="1751" y="1209" on="1"/>
        <pt x="1679" y="1239" on="0"/>
        <pt x="1561" y="1337" on="1"/>
        <pt x="1350" y="1191" on="1"/>
        <pt x="1106" y="1340" on="1"/>
        <pt x="985" y="1249" on="1"/>
        <pt x="1025" y="1169" on="1"/>
        <pt x="934" y="1111" on="1"/>
        <pt x="797" y="1225" on="1"/>
      </contour>
      <contour>
        <pt x="1800" y="0" on="1"/>
        <pt x="1650" y="0" on="1"/>
        <pt x="1650" y="700" on="1"/>
        <pt x="1650" y="950" on="0"/>
        <pt x="1350" y="950" on="1"/>
        <pt x="1050" y="950" on="0"/>
        <pt x="1050" y="700" on="1"/>
        <pt x="1050" y="0" on="1"/>
        <pt x="900" y="0" on="1"/>
        <pt x="900" y="700" on="1"/>
        <pt x="900" y="1100" on="0"/>
        <pt x="1350" y="1100" on="1"/>
        <pt x="1800" y="1100" on="0"/>
        <pt x="1800" y="700" on="1"/>
      </contour>
      <contour>
        <pt x="250" y="976" on="1"/>
        <pt x="250" y="1082" on="0"/>
        <pt x="50" y="1102" on="1"/>
        <pt x="202" y="1306" on="0"/>
        <pt x="256" y="1500" on="1"/>
        <pt x="363" y="1428" on="1"/>
        <pt x="434" y="1380" on="0"/>
        <pt x="493" y="1380" on="1"/>
        <pt x="523" y="1380" on="0"/>
        <pt x="550" y="1393" on="1"/>
        <pt x="550" y="1260" on="0"/>
        <pt x="488" y="1241" on="1"/>
        <pt x="473" y="1236" on="0"/>
        <pt x="455" y="1236" on="1"/>
        <pt x="400" y="1236" on="0"/>
        <pt x="321" y="1284" on="1"/>
        <pt x="266" y="1171" on="1"/>
        <pt x="400" y="1112" on="0"/>
        <pt x="400" y="976" on="1"/>
        <pt x="400" y="480" on="1"/>
        <pt x="450" y="480" on="1"/>
        <pt x="550" y="480" on="0"/>
        <pt x="550" y="340" on="1"/>
        <pt x="550" y="230" on="0"/>
        <pt x="420" y="0" on="1"/>
        <pt x="250" y="0" on="1"/>
      </contour>
    </TTGlyph>
    <TTGlyph name="glyph255" xMin="50" yMin="0" xMax="1800" yMax="1500">
      <contour>
        <pt x="900" y="555" on="1"/>
        <pt x="1275" y="743" on="1"/>
        <pt x="1650" y="930" on="0"/>
        <pt x="1650" y="1100" on="1"/>
        <pt x="1650" y="1350" on="0"/>
        <pt x="1350" y="1350" on="1"/>
        <pt x="1094" y="1350" on="0"/>
        <pt x="1057" y="1168" on="1"/>
        <pt x="1079" y="1164" on="0"/>
        <pt x="1101" y="1153" on="1"/>
        <pt x="1133" y="1135" on="0"/>
        <pt x="1170" y="1070" on="0"/>
        <pt x="1170" y="1035" on="1"/>
        <pt x="1170" y="1000" on="0"/>
        <pt x="1134" y="936" on="0"/>
        <pt x="1070" y="900" on="0"/>
        <pt x="1035" y="900" on="1"/>
        <pt x="1000" y="900" on="0"/>
        <pt x="936" y="936" on="0"/>
        <pt x="900" y="1000" on="0"/>
        <pt x="900" y="1035" on="1"/>
        <pt x="900" y="1100" on="1"/>
        <pt x="900" y="1500" on="0"/>
        <pt x="1350" y="1500" on="1"/>
        <pt x="1800" y="1500" on="0"/>
        <pt x="1800" y="1100" on="1"/>
        <pt x="1800" y="838" on="0"/>
        <pt x="1347" y="611" on="1"/>
        <pt x="1050" y="463" on="1"/>
        <pt x="1050" y="400" on="1"/>
        <pt x="1050" y="150" on="0"/>
        <pt x="1350" y="150" on="1"/>
        <pt x="1650" y="150" on="0"/>
        <pt x="1650" y="400" on="1"/>
        <pt x="1650" y="600" on="1"/>
        <pt x="1800" y="600" on="1"/>
        <pt x="1800" y="400" on="1"/>
        <pt x="1800" y="0" on="0"/>
        <pt x="1350" y="0" on="1"/>
        <pt x="900" y="0" on="0"/>
        <pt x="900" y="400" on="1"/>
      </contour>
      <contour>
        <pt x="250" y="976" on="1"/>
        <pt x="250" y="1082" on="0"/>
        <pt x="50" y="1102" on="1"/>
        <pt x="202" y="1306" on="0"/>
        <pt x="256" y="1500" on="1"/>
        <pt x="363" y="1428" on="1"/>
        <pt x="434" y="1380" on="0"/>
        <pt x="493" y="1380" on="1"/>
        <pt x="523" y="1380" on="0"/>
        <pt x="550" y="1393" on="1"/>
        <pt x="550" y="1260" on="0"/>
        <pt x="488" y="1241" on="1"/>
        <pt x="473" y="1236" on="0"/>
        <pt x="455" y="1236" on="1"/>
        <pt x="400" y="1236" on="0"/>
        <pt x="321" y="1284" on="1"/>
        <pt x="266" y="1171" on="1"/>
        <pt x="400" y="1112" on="0"/>
        <pt x="400" y="976" on="1"/>
        <pt x="400" y="480" on="1"/>
        <pt x="450" y="480" on="1"/>
        <pt x="550" y="480" on="0"/>
        <pt x="550" y="340" on="1"/>
        <pt x="550" y="230" on="0"/>
        <pt x="420" y="0" on="1"/>
        <pt x="250" y="0" on="1"/>
      </contour>
    </TTGlyph>
    <TTGlyph name="glyph256" xMin="50" yMin="0" xMax="1908" yMax="1500">
      <contour>
        <pt x="797" y="1280" on="1"/>
        <pt x="929" y="1380" on="0"/>
        <pt x="995" y="1440" on="1"/>
        <pt x="1062" y="1500" on="0"/>
        <pt x="1091" y="1500" on="1"/>
        <pt x="1120" y="1500" on="0"/>
        <pt x="1178" y="1466" on="1"/>
        <pt x="1235" y="1432" on="1"/>
        <pt x="1350" y="1364" on="1"/>
        <pt x="1445" y="1432" on="1"/>
        <pt x="1492" y="1466" on="1"/>
        <pt x="1539" y="1500" on="0"/>
        <pt x="1569" y="1500" on="1"/>
        <pt x="1598" y="1500" on="0"/>
        <pt x="1640" y="1465" on="1"/>
        <pt x="1683" y="1430" on="1"/>
        <pt x="1768" y="1359" on="0"/>
        <pt x="1908" y="1300" on="1"/>
        <pt x="1839" y="1203" on="0"/>
        <pt x="1780" y="1203" on="1"/>
        <pt x="1765" y="1203" on="0"/>
        <pt x="1751" y="1209" on="1"/>
        <pt x="1679" y="1239" on="0"/>
        <pt x="1561" y="1337" on="1"/>
        <pt x="1350" y="1191" on="1"/>
        <pt x="1106" y="1340" on="1"/>
        <pt x="985" y="1249" on="1"/>
        <pt x="1025" y="1169" on="1"/>
        <pt x="934" y="1111" on="1"/>
        <pt x="797" y="1225" on="1"/>
      </contour>
      <contour>
        <pt x="1050" y="378" on="1"/>
        <pt x="1146" y="500" on="0"/>
        <pt x="1270" y="500" on="1"/>
        <pt x="1400" y="500" on="0"/>
        <pt x="1400" y="375" on="1"/>
        <pt x="1400" y="250" on="0"/>
        <pt x="1290" y="250" on="1"/>
        <pt x="1290" y="350" on="0"/>
        <pt x="1220" y="350" on="1"/>
        <pt x="1149" y="350" on="0"/>
        <pt x="1100" y="225" on="1"/>
        <pt x="1050" y="100" on="1"/>
        <pt x="1050" y="0" on="1"/>
        <pt x="900" y="0" on="1"/>
        <pt x="900" y="700" on="1"/>
        <pt x="900" y="1100" on="0"/>
        <pt x="1350" y="1100" on="1"/>
        <pt x="1800" y="1100" on="0"/>
        <pt x="1800" y="700" on="1"/>
        <pt x="1800" y="0" on="1"/>
        <pt x="1650" y="0" on="1"/>
        <pt x="1650" y="700" on="1"/>
        <pt x="1650" y="950" on="0"/>
        <pt x="1350" y="950" on="1"/>
        <pt x="1050" y="950" on="0"/>
        <pt x="1050" y="700" on="1"/>
      </contour>
      <contour>
        <pt x="250" y="976" on="1"/>
        <pt x="250" y="1082" on="0"/>
        <pt x="50" y="1102" on="1"/>
        <pt x="202" y="1306" on="0"/>
        <pt x="256" y="1500" on="1"/>
        <pt x="363" y="1428" on="1"/>
        <pt x="434" y="1380" on="0"/>
        <pt x="493" y="1380" on="1"/>
        <pt x="523" y="1380" on="0"/>
        <pt x="550" y="1393" on="1"/>
        <pt x="550" y="1260" on="0"/>
        <pt x="488" y="1241" on="1"/>
        <pt x="473" y="1236" on="0"/>
        <pt x="455" y="1236" on="1"/>
        <pt x="400" y="1236" on="0"/>
        <pt x="321" y="1284" on="1"/>
        <pt x="266" y="1171" on="1"/>
        <pt x="400" y="1112" on="0"/>
        <pt x="400" y="976" on="1"/>
        <pt x="400" y="480" on="1"/>
        <pt x="450" y="480" on="1"/>
        <pt x="550" y="480" on="0"/>
        <pt x="550" y="340" on="1"/>
        <pt x="550" y="230" on="0"/>
        <pt x="420" y="0" on="1"/>
        <pt x="250" y="0" on="1"/>
      </contour>
    </TTGlyph>
    <TTGlyph name="glyph257" xMin="50" yMin="0" xMax="2600" yMax="1500">
      <contour>
        <pt x="900" y="1020" on="1"/>
        <pt x="850" y="1020" on="1"/>
        <pt x="750" y="1020" on="0"/>
        <pt x="750" y="1180" on="1"/>
        <pt x="750" y="1500" on="0"/>
        <pt x="950" y="1500" on="1"/>
        <pt x="1050" y="1500" on="0"/>
        <pt x="1050" y="1400" on="1"/>
        <pt x="1050" y="400" on="1"/>
        <pt x="1050" y="150" on="0"/>
        <pt x="1325" y="150" on="1"/>
        <pt x="1600" y="150" on="0"/>
        <pt x="1600" y="400" on="1"/>
        <pt x="1600" y="976" on="1"/>
        <pt x="1600" y="1082" on="0"/>
        <pt x="1400" y="1102" on="1"/>
        <pt x="1552" y="1306" on="0"/>
        <pt x="1606" y="1500" on="1"/>
        <pt x="1713" y="1428" on="1"/>
        <pt x="1784" y="1380" on="0"/>
        <pt x="1843" y="1380" on="1"/>
        <pt x="1873" y="1380" on="0"/>
        <pt x="1900" y="1393" on="1"/>
        <pt x="1900" y="1260" on="0"/>
        <pt x="1838" y="1241" on="1"/>
        <pt x="1823" y="1236" on="0"/>
        <pt x="1805" y="1236" on="1"/>
        <pt x="1750" y="1236" on="0"/>
        <pt x="1671" y="1284" on="1"/>
        <pt x="1616" y="1171" on="1"/>
        <pt x="1750" y="1112" on="0"/>
        <pt x="1750" y="976" on="1"/>
        <pt x="1750" y="400" on="1"/>
        <pt x="1750" y="150" on="0"/>
        <pt x="2025" y="150" on="1"/>
        <pt x="2300" y="150" on="0"/>
        <pt x="2300" y="400" on="1"/>
        <pt x="2300" y="976" on="1"/>
        <pt x="2300" y="1082" on="0"/>
        <pt x="2100" y="1102" on="1"/>
        <pt x="2252" y="1306" on="0"/>
        <pt x="2306" y="1500" on="1"/>
        <pt x="2413" y="1428" on="1"/>
        <pt x="2484" y="1380" on="0"/>
        <pt x="2543" y="1380" on="1"/>
        <pt x="2573" y="1380" on="0"/>
        <pt x="2600" y="1393" on="1"/>
        <pt x="2600" y="1260" on="0"/>
        <pt x="2538" y="1241" on="1"/>
        <pt x="2523" y="1236" on="0"/>
        <pt x="2505" y="1236" on="1"/>
        <pt x="2450" y="1236" on="0"/>
        <pt x="2371" y="1284" on="1"/>
        <pt x="2316" y="1171" on="1"/>
        <pt x="2450" y="1112" on="0"/>
        <pt x="2450" y="976" on="1"/>
        <pt x="2450" y="400" on="1"/>
        <pt x="2450" y="0" on="0"/>
        <pt x="2025" y="0" on="1"/>
        <pt x="1779" y="0" on="0"/>
        <pt x="1675" y="135" on="1"/>
        <pt x="1571" y="0" on="0"/>
        <pt x="1325" y="0" on="1"/>
        <pt x="900" y="0" on="0"/>
        <pt x="900" y="400" on="1"/>
      </contour>
      <contour>
        <pt x="250" y="976" on="1"/>
        <pt x="250" y="1082" on="0"/>
        <pt x="50" y="1102" on="1"/>
        <pt x="202" y="1306" on="0"/>
        <pt x="256" y="1500" on="1"/>
        <pt x="363" y="1428" on="1"/>
        <pt x="434" y="1380" on="0"/>
        <pt x="493" y="1380" on="1"/>
        <pt x="523" y="1380" on="0"/>
        <pt x="550" y="1393" on="1"/>
        <pt x="550" y="1260" on="0"/>
        <pt x="488" y="1241" on="1"/>
        <pt x="473" y="1236" on="0"/>
        <pt x="455" y="1236" on="1"/>
        <pt x="400" y="1236" on="0"/>
        <pt x="321" y="1284" on="1"/>
        <pt x="266" y="1171" on="1"/>
        <pt x="400" y="1112" on="0"/>
        <pt x="400" y="976" on="1"/>
        <pt x="400" y="480" on="1"/>
        <pt x="450" y="480" on="1"/>
        <pt x="550" y="480" on="0"/>
        <pt x="550" y="340" on="1"/>
        <pt x="550" y="230" on="0"/>
        <pt x="420" y="0" on="1"/>
        <pt x="250" y="0" on="1"/>
      </contour>
    </TTGlyph>
    <TTGlyph name="glyph258" xMin="50" yMin="0" xMax="1800" yMax="1800">
      <contour>
        <pt x="1570" y="1320" on="1"/>
        <pt x="1570" y="1380" on="0"/>
        <pt x="1520" y="1380" on="1"/>
        <pt x="1450" y="1380" on="0"/>
        <pt x="1450" y="1320" on="1"/>
        <pt x="1450" y="1286" on="0"/>
        <pt x="1510" y="1242" on="1"/>
        <pt x="1570" y="1273" on="0"/>
      </contour>
      <contour>
        <pt x="1650" y="900" on="1"/>
        <pt x="1650" y="1008" on="0"/>
        <pt x="1608" y="1041" on="1"/>
        <pt x="1564" y="1065" on="0"/>
        <pt x="1528" y="1089" on="1"/>
        <pt x="1386" y="1000" on="0"/>
        <pt x="1250" y="1000" on="1"/>
        <pt x="1072" y="1000" on="0"/>
        <pt x="989" y="1069" on="1"/>
        <pt x="900" y="1144" on="0"/>
        <pt x="900" y="1280" on="1"/>
        <pt x="900" y="1365" on="0"/>
        <pt x="1000" y="1540" on="0"/>
        <pt x="1000" y="1600" on="1"/>
        <pt x="1000" y="1700" on="0"/>
        <pt x="850" y="1700" on="1"/>
        <pt x="850" y="1800" on="0"/>
        <pt x="950" y="1800" on="1"/>
        <pt x="1150" y="1800" on="0"/>
        <pt x="1150" y="1600" on="1"/>
        <pt x="1150" y="1535" on="0"/>
        <pt x="1050" y="1350" on="0"/>
        <pt x="1050" y="1280" on="1"/>
        <pt x="1050" y="1221" on="0"/>
        <pt x="1160" y="1150" on="0"/>
        <pt x="1250" y="1150" on="1"/>
        <pt x="1354" y="1150" on="0"/>
        <pt x="1410" y="1183" on="1"/>
        <pt x="1330" y="1244" on="0"/>
        <pt x="1330" y="1320" on="1"/>
        <pt x="1330" y="1500" on="0"/>
        <pt x="1520" y="1500" on="1"/>
        <pt x="1700" y="1500" on="0"/>
        <pt x="1700" y="1320" on="1"/>
        <pt x="1700" y="1243" on="0"/>
        <pt x="1632" y="1172" on="1"/>
        <pt x="1653" y="1161" on="0"/>
        <pt x="1675" y="1150" on="1"/>
        <pt x="1800" y="1083" on="0"/>
        <pt x="1800" y="900" on="1"/>
        <pt x="1800" y="0" on="1"/>
        <pt x="1650" y="0" on="1"/>
        <pt x="1350" y="293" on="1"/>
        <pt x="1050" y="0" on="1"/>
        <pt x="900" y="0" on="1"/>
        <pt x="900" y="600" on="1"/>
        <pt x="800" y="600" on="0"/>
        <pt x="800" y="740" on="1"/>
        <pt x="800" y="900" on="0"/>
        <pt x="950" y="900" on="1"/>
        <pt x="1050" y="900" on="1"/>
        <pt x="1050" y="205" on="1"/>
        <pt x="1350" y="498" on="1"/>
        <pt x="1650" y="205" on="1"/>
      </contour>
      <contour>
        <pt x="250" y="976" on="1"/>
        <pt x="250" y="1082" on="0"/>
        <pt x="50" y="1102" on="1"/>
        <pt x="202" y="1306" on="0"/>
        <pt x="256" y="1500" on="1"/>
        <pt x="363" y="1428" on="1"/>
        <pt x="434" y="1380" on="0"/>
        <pt x="493" y="1380" on="1"/>
        <pt x="523" y="1380" on="0"/>
        <pt x="550" y="1393" on="1"/>
        <pt x="550" y="1260" on="0"/>
        <pt x="488" y="1241" on="1"/>
        <pt x="473" y="1236" on="0"/>
        <pt x="455" y="1236" on="1"/>
        <pt x="400" y="1236" on="0"/>
        <pt x="321" y="1284" on="1"/>
        <pt x="266" y="1171" on="1"/>
        <pt x="400" y="1112" on="0"/>
        <pt x="400" y="976" on="1"/>
        <pt x="400" y="480" on="1"/>
        <pt x="450" y="480" on="1"/>
        <pt x="550" y="480" on="0"/>
        <pt x="550" y="340" on="1"/>
        <pt x="550" y="230" on="0"/>
        <pt x="420" y="0" on="1"/>
        <pt x="250" y="0" on="1"/>
      </contour>
    </TTGlyph>
    <TTGlyph name="glyph259" xMin="50" yMin="0" xMax="1908" yMax="1500">
      <contour>
        <pt x="797" y="1280" on="1"/>
        <pt x="929" y="1380" on="0"/>
        <pt x="995" y="1440" on="1"/>
        <pt x="1062" y="1500" on="0"/>
        <pt x="1091" y="1500" on="1"/>
        <pt x="1120" y="1500" on="0"/>
        <pt x="1178" y="1466" on="1"/>
        <pt x="1235" y="1432" on="1"/>
        <pt x="1350" y="1364" on="1"/>
        <pt x="1445" y="1432" on="1"/>
        <pt x="1492" y="1466" on="1"/>
        <pt x="1539" y="1500" on="0"/>
        <pt x="1569" y="1500" on="1"/>
        <pt x="1598" y="1500" on="0"/>
        <pt x="1640" y="1465" on="1"/>
        <pt x="1683" y="1430" on="1"/>
        <pt x="1768" y="1359" on="0"/>
        <pt x="1908" y="1300" on="1"/>
        <pt x="1839" y="1203" on="0"/>
        <pt x="1780" y="1203" on="1"/>
        <pt x="1765" y="1203" on="0"/>
        <pt x="1751" y="1209" on="1"/>
        <pt x="1679" y="1239" on="0"/>
        <pt x="1561" y="1337" on="1"/>
        <pt x="1350" y="1191" on="1"/>
        <pt x="1106" y="1340" on="1"/>
        <pt x="985" y="1249" on="1"/>
        <pt x="1025" y="1169" on="1"/>
        <pt x="934" y="1111" on="1"/>
        <pt x="797" y="1225" on="1"/>
      </contour>
      <contour>
        <pt x="1800" y="400" on="1"/>
        <pt x="1800" y="0" on="0"/>
        <pt x="1350" y="0" on="1"/>
        <pt x="900" y="0" on="0"/>
        <pt x="900" y="400" on="1"/>
        <pt x="900" y="790" on="1"/>
        <pt x="830" y="790" on="0"/>
        <pt x="830" y="900" on="1"/>
        <pt x="830" y="1090" on="0"/>
        <pt x="990" y="1090" on="1"/>
        <pt x="1050" y="1090" on="0"/>
        <pt x="1050" y="990" on="1"/>
        <pt x="1050" y="400" on="1"/>
        <pt x="1050" y="150" on="0"/>
        <pt x="1350" y="150" on="1"/>
        <pt x="1650" y="150" on="0"/>
        <pt x="1650" y="400" on="1"/>
        <pt x="1650" y="750" on="1"/>
        <pt x="1550" y="750" on="0"/>
        <pt x="1550" y="890" on="1"/>
        <pt x="1550" y="1050" on="0"/>
        <pt x="1700" y="1050" on="1"/>
        <pt x="1800" y="1050" on="0"/>
        <pt x="1800" y="950" on="1"/>
      </contour>
      <contour>
        <pt x="250" y="976" on="1"/>
        <pt x="250" y="1082" on="0"/>
        <pt x="50" y="1102" on="1"/>
        <pt x="202" y="1306" on="0"/>
        <pt x="256" y="1500" on="1"/>
        <pt x="363" y="1428" on="1"/>
        <pt x="434" y="1380" on="0"/>
        <pt x="493" y="1380" on="1"/>
        <pt x="523" y="1380" on="0"/>
        <pt x="550" y="1393" on="1"/>
        <pt x="550" y="1260" on="0"/>
        <pt x="488" y="1241" on="1"/>
        <pt x="473" y="1236" on="0"/>
        <pt x="455" y="1236" on="1"/>
        <pt x="400" y="1236" on="0"/>
        <pt x="321" y="1284" on="1"/>
        <pt x="266" y="1171" on="1"/>
        <pt x="400" y="1112" on="0"/>
        <pt x="400" y="976" on="1"/>
        <pt x="400" y="480" on="1"/>
        <pt x="450" y="480" on="1"/>
        <pt x="550" y="480" on="0"/>
        <pt x="550" y="340" on="1"/>
        <pt x="550" y="230" on="0"/>
        <pt x="420" y="0" on="1"/>
        <pt x="250" y="0" on="1"/>
      </contour>
    </TTGlyph>
    <TTGlyph name="glyph260" xMin="50" yMin="0" xMax="1908" yMax="1500">
      <contour>
        <pt x="1650" y="750" on="1"/>
        <pt x="1650" y="900" on="1"/>
        <pt x="1610" y="900" on="0"/>
        <pt x="1580" y="838" on="1"/>
        <pt x="1550" y="776" on="0"/>
        <pt x="1550" y="730" on="1"/>
        <pt x="1550" y="690" on="0"/>
        <pt x="1600" y="690" on="1"/>
        <pt x="1650" y="690" on="0"/>
      </contour>
      <contour>
        <pt x="797" y="1280" on="1"/>
        <pt x="929" y="1380" on="0"/>
        <pt x="995" y="1440" on="1"/>
        <pt x="1062" y="1500" on="0"/>
        <pt x="1091" y="1500" on="1"/>
        <pt x="1120" y="1500" on="0"/>
        <pt x="1178" y="1466" on="1"/>
        <pt x="1235" y="1432" on="1"/>
        <pt x="1350" y="1364" on="1"/>
        <pt x="1445" y="1432" on="1"/>
        <pt x="1492" y="1466" on="1"/>
        <pt x="1539" y="1500" on="0"/>
        <pt x="1569" y="1500" on="1"/>
        <pt x="1598" y="1500" on="0"/>
        <pt x="1640" y="1465" on="1"/>
        <pt x="1683" y="1430" on="1"/>
        <pt x="1768" y="1359" on="0"/>
        <pt x="1908" y="1300" on="1"/>
        <pt x="1839" y="1203" on="0"/>
        <pt x="1780" y="1203" on="1"/>
        <pt x="1765" y="1203" on="0"/>
        <pt x="1751" y="1209" on="1"/>
        <pt x="1679" y="1239" on="0"/>
        <pt x="1561" y="1337" on="1"/>
        <pt x="1350" y="1191" on="1"/>
        <pt x="1106" y="1340" on="1"/>
        <pt x="985" y="1249" on="1"/>
        <pt x="1025" y="1169" on="1"/>
        <pt x="934" y="1111" on="1"/>
        <pt x="797" y="1225" on="1"/>
      </contour>
      <contour>
        <pt x="1650" y="554" on="1"/>
        <pt x="1627" y="550" on="0"/>
        <pt x="1600" y="550" on="1"/>
        <pt x="1400" y="550" on="0"/>
        <pt x="1400" y="730" on="1"/>
        <pt x="1400" y="835" on="0"/>
        <pt x="1479" y="942" on="1"/>
        <pt x="1558" y="1050" on="0"/>
        <pt x="1650" y="1050" on="1"/>
        <pt x="1800" y="1050" on="0"/>
        <pt x="1800" y="900" on="1"/>
        <pt x="1800" y="250" on="1"/>
        <pt x="1800" y="0" on="0"/>
        <pt x="1500" y="0" on="1"/>
        <pt x="1200" y="0" on="0"/>
        <pt x="1200" y="250" on="1"/>
        <pt x="1200" y="350" on="0"/>
        <pt x="1125" y="350" on="1"/>
        <pt x="1050" y="350" on="0"/>
        <pt x="1050" y="100" on="1"/>
        <pt x="1050" y="0" on="1"/>
        <pt x="900" y="0" on="1"/>
        <pt x="900" y="790" on="1"/>
        <pt x="830" y="790" on="0"/>
        <pt x="830" y="900" on="1"/>
        <pt x="830" y="1090" on="0"/>
        <pt x="990" y="1090" on="1"/>
        <pt x="1050" y="1090" on="0"/>
        <pt x="1050" y="990" on="1"/>
        <pt x="1050" y="487" on="1"/>
        <pt x="1084" y="500" on="0"/>
        <pt x="1125" y="500" on="1"/>
        <pt x="1350" y="500" on="0"/>
        <pt x="1350" y="250" on="1"/>
        <pt x="1350" y="150" on="0"/>
        <pt x="1500" y="150" on="1"/>
        <pt x="1650" y="150" on="0"/>
        <pt x="1650" y="250" on="1"/>
      </contour>
      <contour>
        <pt x="250" y="976" on="1"/>
        <pt x="250" y="1082" on="0"/>
        <pt x="50" y="1102" on="1"/>
        <pt x="202" y="1306" on="0"/>
        <pt x="256" y="1500" on="1"/>
        <pt x="363" y="1428" on="1"/>
        <pt x="434" y="1380" on="0"/>
        <pt x="493" y="1380" on="1"/>
        <pt x="523" y="1380" on="0"/>
        <pt x="550" y="1393" on="1"/>
        <pt x="550" y="1260" on="0"/>
        <pt x="488" y="1241" on="1"/>
        <pt x="473" y="1236" on="0"/>
        <pt x="455" y="1236" on="1"/>
        <pt x="400" y="1236" on="0"/>
        <pt x="321" y="1284" on="1"/>
        <pt x="266" y="1171" on="1"/>
        <pt x="400" y="1112" on="0"/>
        <pt x="400" y="976" on="1"/>
        <pt x="400" y="480" on="1"/>
        <pt x="450" y="480" on="1"/>
        <pt x="550" y="480" on="0"/>
        <pt x="550" y="340" on="1"/>
        <pt x="550" y="230" on="0"/>
        <pt x="420" y="0" on="1"/>
        <pt x="250" y="0" on="1"/>
      </contour>
    </TTGlyph>
    <TTGlyph name="glyph261" xMin="50" yMin="0" xMax="1800" yMax="1800">
      <contour>
        <pt x="1800" y="1200" on="0"/>
        <pt x="1410" y="1200" on="1"/>
        <pt x="1278" y="1200" on="0"/>
        <pt x="1141" y="1295" on="1"/>
        <pt x="1060" y="1350" on="1"/>
        <pt x="950" y="1272" on="1"/>
        <pt x="950" y="1239" on="0"/>
        <pt x="1050" y="1165" on="1"/>
        <pt x="900" y="1128" on="1"/>
        <pt x="800" y="1180" on="0"/>
        <pt x="800" y="1236" on="1"/>
        <pt x="800" y="1289" on="1"/>
        <pt x="800" y="1326" on="0"/>
        <pt x="865" y="1369" on="1"/>
        <pt x="931" y="1412" on="1"/>
        <pt x="1042" y="1500" on="0"/>
        <pt x="1074" y="1500" on="1"/>
        <pt x="1098" y="1500" on="0"/>
        <pt x="1221" y="1424" on="1"/>
        <pt x="1351" y="1350" on="0"/>
        <pt x="1410" y="1350" on="1"/>
        <pt x="1650" y="1350" on="0"/>
        <pt x="1650" y="1536" on="1"/>
        <pt x="1650" y="1690" on="0"/>
        <pt x="1360" y="1690" on="1"/>
        <pt x="1360" y="1800" on="0"/>
        <pt x="1500" y="1800" on="1"/>
        <pt x="1800" y="1800" on="0"/>
        <pt x="1800" y="1536" on="1"/>
      </contour>
      <contour>
        <pt x="1650" y="1050" on="1"/>
        <pt x="1800" y="1050" on="1"/>
        <pt x="1800" y="0" on="1"/>
        <pt x="1650" y="0" on="1"/>
        <pt x="1350" y="293" on="1"/>
        <pt x="1050" y="0" on="1"/>
        <pt x="900" y="0" on="1"/>
        <pt x="900" y="790" on="1"/>
        <pt x="830" y="790" on="0"/>
        <pt x="830" y="900" on="1"/>
        <pt x="830" y="1090" on="0"/>
        <pt x="990" y="1090" on="1"/>
        <pt x="1050" y="1090" on="0"/>
        <pt x="1050" y="990" on="1"/>
        <pt x="1050" y="205" on="1"/>
        <pt x="1350" y="498" on="1"/>
        <pt x="1650" y="205" on="1"/>
      </contour>
      <contour>
        <pt x="250" y="976" on="1"/>
        <pt x="250" y="1082" on="0"/>
        <pt x="50" y="1102" on="1"/>
        <pt x="202" y="1306" on="0"/>
        <pt x="256" y="1500" on="1"/>
        <pt x="363" y="1428" on="1"/>
        <pt x="434" y="1380" on="0"/>
        <pt x="493" y="1380" on="1"/>
        <pt x="523" y="1380" on="0"/>
        <pt x="550" y="1393" on="1"/>
        <pt x="550" y="1260" on="0"/>
        <pt x="488" y="1241" on="1"/>
        <pt x="473" y="1236" on="0"/>
        <pt x="455" y="1236" on="1"/>
        <pt x="400" y="1236" on="0"/>
        <pt x="321" y="1284" on="1"/>
        <pt x="266" y="1171" on="1"/>
        <pt x="400" y="1112" on="0"/>
        <pt x="400" y="976" on="1"/>
        <pt x="400" y="480" on="1"/>
        <pt x="450" y="480" on="1"/>
        <pt x="550" y="480" on="0"/>
        <pt x="550" y="340" on="1"/>
        <pt x="550" y="230" on="0"/>
        <pt x="420" y="0" on="1"/>
        <pt x="250" y="0" on="1"/>
      </contour>
    </TTGlyph>
    <TTGlyph name="glyph262" xMin="50" yMin="0" xMax="3200" yMax="1500">
      <contour>
        <pt x="1050" y="300" on="1"/>
        <pt x="1050" y="150" on="1"/>
        <pt x="1090" y="150" on="0"/>
        <pt x="1120" y="212" on="1"/>
        <pt x="1150" y="274" on="0"/>
        <pt x="1150" y="320" on="1"/>
        <pt x="1150" y="360" on="0"/>
        <pt x="1100" y="360" on="1"/>
        <pt x="1050" y="360" on="0"/>
      </contour>
      <contour>
        <pt x="1050" y="496" on="1"/>
        <pt x="1073" y="500" on="0"/>
        <pt x="1100" y="500" on="1"/>
        <pt x="1300" y="500" on="0"/>
        <pt x="1300" y="320" on="1"/>
        <pt x="1300" y="215" on="0"/>
        <pt x="1221" y="108" on="1"/>
        <pt x="1142" y="0" on="0"/>
        <pt x="1050" y="0" on="1"/>
        <pt x="900" y="0" on="1"/>
        <pt x="900" y="1100" on="1"/>
        <pt x="900" y="1500" on="0"/>
        <pt x="1325" y="1500" on="1"/>
        <pt x="1750" y="1500" on="0"/>
        <pt x="1750" y="1100" on="1"/>
        <pt x="1750" y="400" on="1"/>
        <pt x="1750" y="150" on="0"/>
        <pt x="2000" y="150" on="1"/>
        <pt x="2250" y="150" on="0"/>
        <pt x="2250" y="400" on="1"/>
        <pt x="2250" y="976" on="1"/>
        <pt x="2250" y="1082" on="0"/>
        <pt x="2050" y="1102" on="1"/>
        <pt x="2202" y="1306" on="0"/>
        <pt x="2256" y="1500" on="1"/>
        <pt x="2363" y="1428" on="1"/>
        <pt x="2434" y="1380" on="0"/>
        <pt x="2493" y="1380" on="1"/>
        <pt x="2523" y="1380" on="0"/>
        <pt x="2550" y="1393" on="1"/>
        <pt x="2550" y="1260" on="0"/>
        <pt x="2488" y="1241" on="1"/>
        <pt x="2473" y="1236" on="0"/>
        <pt x="2455" y="1236" on="1"/>
        <pt x="2400" y="1236" on="0"/>
        <pt x="2321" y="1284" on="1"/>
        <pt x="2266" y="1171" on="1"/>
        <pt x="2400" y="1112" on="0"/>
        <pt x="2400" y="976" on="1"/>
        <pt x="2400" y="400" on="1"/>
        <pt x="2400" y="150" on="0"/>
        <pt x="2650" y="150" on="1"/>
        <pt x="2900" y="150" on="0"/>
        <pt x="2900" y="400" on="1"/>
        <pt x="2900" y="976" on="1"/>
        <pt x="2900" y="1082" on="0"/>
        <pt x="2700" y="1102" on="1"/>
        <pt x="2852" y="1306" on="0"/>
        <pt x="2906" y="1500" on="1"/>
        <pt x="3013" y="1428" on="1"/>
        <pt x="3084" y="1380" on="0"/>
        <pt x="3143" y="1380" on="1"/>
        <pt x="3173" y="1380" on="0"/>
        <pt x="3200" y="1393" on="1"/>
        <pt x="3200" y="1260" on="0"/>
        <pt x="3138" y="1241" on="1"/>
        <pt x="3123" y="1236" on="0"/>
        <pt x="3105" y="1236" on="1"/>
        <pt x="3050" y="1236" on="0"/>
        <pt x="2971" y="1284" on="1"/>
        <pt x="2916" y="1171" on="1"/>
        <pt x="3050" y="1112" on="0"/>
        <pt x="3050" y="976" on="1"/>
        <pt x="3050" y="400" on="1"/>
        <pt x="3050" y="0" on="0"/>
        <pt x="2650" y="0" on="1"/>
        <pt x="2423" y="0" on="0"/>
        <pt x="2325" y="129" on="1"/>
        <pt x="2227" y="0" on="0"/>
        <pt x="2000" y="0" on="1"/>
        <pt x="1600" y="0" on="0"/>
        <pt x="1600" y="400" on="1"/>
        <pt x="1600" y="1100" on="1"/>
        <pt x="1600" y="1350" on="0"/>
        <pt x="1325" y="1350" on="1"/>
        <pt x="1050" y="1350" on="0"/>
        <pt x="1050" y="1100" on="1"/>
      </contour>
      <contour>
        <pt x="250" y="976" on="1"/>
        <pt x="250" y="1082" on="0"/>
        <pt x="50" y="1102" on="1"/>
        <pt x="202" y="1306" on="0"/>
        <pt x="256" y="1500" on="1"/>
        <pt x="363" y="1428" on="1"/>
        <pt x="434" y="1380" on="0"/>
        <pt x="493" y="1380" on="1"/>
        <pt x="523" y="1380" on="0"/>
        <pt x="550" y="1393" on="1"/>
        <pt x="550" y="1260" on="0"/>
        <pt x="488" y="1241" on="1"/>
        <pt x="473" y="1236" on="0"/>
        <pt x="455" y="1236" on="1"/>
        <pt x="400" y="1236" on="0"/>
        <pt x="321" y="1284" on="1"/>
        <pt x="266" y="1171" on="1"/>
        <pt x="400" y="1112" on="0"/>
        <pt x="400" y="976" on="1"/>
        <pt x="400" y="480" on="1"/>
        <pt x="450" y="480" on="1"/>
        <pt x="550" y="480" on="0"/>
        <pt x="550" y="340" on="1"/>
        <pt x="550" y="230" on="0"/>
        <pt x="420" y="0" on="1"/>
        <pt x="250" y="0" on="1"/>
      </contour>
    </TTGlyph>
    <TTGlyph name="glyph263" xMin="50" yMin="-600" xMax="2450" yMax="1500">
      <contour>
        <pt x="1050" y="300" on="1"/>
        <pt x="1050" y="150" on="1"/>
        <pt x="1090" y="150" on="0"/>
        <pt x="1120" y="212" on="1"/>
        <pt x="1150" y="274" on="0"/>
        <pt x="1150" y="320" on="1"/>
        <pt x="1150" y="360" on="0"/>
        <pt x="1100" y="360" on="1"/>
        <pt x="1050" y="360" on="0"/>
      </contour>
      <contour>
        <pt x="1800" y="0" on="1"/>
        <pt x="1650" y="0" on="1"/>
        <pt x="1650" y="1153" on="1"/>
        <pt x="1529" y="1285" on="1"/>
        <pt x="1349" y="1120" on="1"/>
        <pt x="1169" y="1285" on="1"/>
        <pt x="1050" y="1153" on="1"/>
        <pt x="1050" y="496" on="1"/>
        <pt x="1073" y="500" on="0"/>
        <pt x="1100" y="500" on="1"/>
        <pt x="1300" y="500" on="0"/>
        <pt x="1300" y="320" on="1"/>
        <pt x="1300" y="215" on="0"/>
        <pt x="1221" y="108" on="1"/>
        <pt x="1142" y="0" on="0"/>
        <pt x="1050" y="0" on="1"/>
        <pt x="900" y="0" on="1"/>
        <pt x="900" y="1135" on="1"/>
        <pt x="900" y="1211" on="0"/>
        <pt x="965" y="1285" on="1"/>
        <pt x="1159" y="1500" on="1"/>
        <pt x="1349" y="1322" on="1"/>
        <pt x="1539" y="1500" on="1"/>
        <pt x="1733" y="1285" on="1"/>
        <pt x="1747" y="1269" on="0"/>
        <pt x="1758" y="1253" on="1"/>
        <pt x="2015" y="1500" on="1"/>
        <pt x="2369" y="1277" on="1"/>
        <pt x="2450" y="1226" on="0"/>
        <pt x="2450" y="1135" on="1"/>
        <pt x="2450" y="0" on="1"/>
        <pt x="2300" y="0" on="1"/>
        <pt x="2300" y="1139" on="1"/>
        <pt x="2031" y="1306" on="1"/>
        <pt x="1800" y="1083" on="1"/>
      </contour>
      <contour>
        <pt x="2225" y="-379" on="1"/>
        <pt x="2300" y="-336" on="0"/>
        <pt x="2300" y="-266" on="1"/>
        <pt x="2300" y="-213" on="0"/>
        <pt x="2235" y="-213" on="1"/>
        <pt x="2173" y="-213" on="0"/>
        <pt x="2173" y="-156" on="1"/>
        <pt x="2173" y="-100" on="0"/>
        <pt x="2235" y="-100" on="1"/>
        <pt x="2450" y="-100" on="0"/>
        <pt x="2450" y="-266" on="1"/>
        <pt x="2450" y="-405" on="0"/>
        <pt x="2335" y="-486" on="1"/>
        <pt x="2174" y="-600" on="0"/>
        <pt x="1789" y="-600" on="1"/>
        <pt x="1509" y="-600" on="0"/>
        <pt x="1295" y="-502" on="1"/>
        <pt x="1088" y="-408" on="0"/>
        <pt x="941" y="-225" on="1"/>
        <pt x="900" y="-183" on="0"/>
        <pt x="900" y="-141" on="1"/>
        <pt x="900" y="-100" on="0"/>
        <pt x="952" y="-100" on="1"/>
        <pt x="1003" y="-100" on="0"/>
        <pt x="1034" y="-141" on="1"/>
        <pt x="1178" y="-294" on="0"/>
        <pt x="1366" y="-372" on="1"/>
        <pt x="1555" y="-450" on="0"/>
        <pt x="1789" y="-450" on="1"/>
        <pt x="2105" y="-450" on="0"/>
      </contour>
      <contour>
        <pt x="250" y="976" on="1"/>
        <pt x="250" y="1082" on="0"/>
        <pt x="50" y="1102" on="1"/>
        <pt x="202" y="1306" on="0"/>
        <pt x="256" y="1500" on="1"/>
        <pt x="363" y="1428" on="1"/>
        <pt x="434" y="1380" on="0"/>
        <pt x="493" y="1380" on="1"/>
        <pt x="523" y="1380" on="0"/>
        <pt x="550" y="1393" on="1"/>
        <pt x="550" y="1260" on="0"/>
        <pt x="488" y="1241" on="1"/>
        <pt x="473" y="1236" on="0"/>
        <pt x="455" y="1236" on="1"/>
        <pt x="400" y="1236" on="0"/>
        <pt x="321" y="1284" on="1"/>
        <pt x="266" y="1171" on="1"/>
        <pt x="400" y="1112" on="0"/>
        <pt x="400" y="976" on="1"/>
        <pt x="400" y="480" on="1"/>
        <pt x="450" y="480" on="1"/>
        <pt x="550" y="480" on="0"/>
        <pt x="550" y="340" on="1"/>
        <pt x="550" y="230" on="0"/>
        <pt x="420" y="0" on="1"/>
        <pt x="250" y="0" on="1"/>
      </contour>
    </TTGlyph>
    <TTGlyph name="glyph264" xMin="50" yMin="0" xMax="1800" yMax="1800">
      <contour>
        <pt x="830" y="1420" on="1"/>
        <pt x="830" y="1540" on="0"/>
        <pt x="960" y="1540" on="1"/>
        <pt x="1089" y="1540" on="0"/>
        <pt x="1089" y="1420" on="1"/>
        <pt x="1089" y="1332" on="0"/>
        <pt x="1010" y="1322" on="1"/>
        <pt x="1070" y="1250" on="0"/>
        <pt x="1238" y="1250" on="1"/>
        <pt x="1645" y="1250" on="0"/>
        <pt x="1645" y="1490" on="1"/>
        <pt x="1645" y="1670" on="0"/>
        <pt x="1291" y="1700" on="1"/>
        <pt x="1291" y="1800" on="0"/>
        <pt x="1423" y="1800" on="1"/>
        <pt x="1800" y="1800" on="0"/>
        <pt x="1800" y="1490" on="1"/>
        <pt x="1800" y="1100" on="0"/>
        <pt x="1238" y="1100" on="1"/>
        <pt x="1039" y="1100" on="0"/>
        <pt x="830" y="1260" on="0"/>
      </contour>
      <contour>
        <pt x="1650" y="1050" on="1"/>
        <pt x="1800" y="1050" on="1"/>
        <pt x="1800" y="0" on="1"/>
        <pt x="1650" y="0" on="1"/>
        <pt x="1350" y="293" on="1"/>
        <pt x="1050" y="0" on="1"/>
        <pt x="900" y="0" on="1"/>
        <pt x="900" y="790" on="1"/>
        <pt x="830" y="790" on="0"/>
        <pt x="830" y="900" on="1"/>
        <pt x="830" y="1090" on="0"/>
        <pt x="990" y="1090" on="1"/>
        <pt x="1050" y="1090" on="0"/>
        <pt x="1050" y="990" on="1"/>
        <pt x="1050" y="205" on="1"/>
        <pt x="1350" y="498" on="1"/>
        <pt x="1650" y="205" on="1"/>
      </contour>
      <contour>
        <pt x="250" y="976" on="1"/>
        <pt x="250" y="1082" on="0"/>
        <pt x="50" y="1102" on="1"/>
        <pt x="202" y="1306" on="0"/>
        <pt x="256" y="1500" on="1"/>
        <pt x="363" y="1428" on="1"/>
        <pt x="434" y="1380" on="0"/>
        <pt x="493" y="1380" on="1"/>
        <pt x="523" y="1380" on="0"/>
        <pt x="550" y="1393" on="1"/>
        <pt x="550" y="1260" on="0"/>
        <pt x="488" y="1241" on="1"/>
        <pt x="473" y="1236" on="0"/>
        <pt x="455" y="1236" on="1"/>
        <pt x="400" y="1236" on="0"/>
        <pt x="321" y="1284" on="1"/>
        <pt x="266" y="1171" on="1"/>
        <pt x="400" y="1112" on="0"/>
        <pt x="400" y="976" on="1"/>
        <pt x="400" y="480" on="1"/>
        <pt x="450" y="480" on="1"/>
        <pt x="550" y="480" on="0"/>
        <pt x="550" y="340" on="1"/>
        <pt x="550" y="230" on="0"/>
        <pt x="420" y="0" on="1"/>
        <pt x="250" y="0" on="1"/>
      </contour>
    </TTGlyph>
</ttFont>
